<svg width="98" height="98" viewBox="0 0 98 98" fill="none" xmlns="http://www.w3.org/2000/svg">
<path d="M22.4547 63.514C31.6944 67.3429 34.5092 71.6053 38.5976 79.0214C42.6927 86.4327 46.2797 87.9647 50.1975 87.6674C55.2602 87.2785 59.6803 84.2906 60.1178 76.1681C60.4852 69.3477 61.0168 63.7667 67.7756 58.7134C76.8289 51.9448 82.7796 46.9733 81.8315 38.5477C80.8834 30.1221 73.2106 19.0283 62.8599 19.663C52.5158 20.293 49.1217 29.0059 31.9966 28.0767C14.86 27.1456 7.06289 35.5384 6.19116 43.3306C5.43252 50.0644 8.94747 57.9137 22.4547 63.514Z" fill="url(#paint0_linear)"/>
<defs>
<linearGradient id="paint0_linear" x1="94.4017" y1="51.2277" x2="32.818" y2="91.5202" gradientUnits="userSpaceOnUse">
<stop stop-color="#F37B02"/>
<stop offset="1" stop-color="#FCAC1B"/>
</linearGradient>
</defs>
</svg>
