<svg width="964" height="443" viewBox="0 0 964 443" fill="none" xmlns="http://www.w3.org/2000/svg">
<path d="M783.198 277.048C624.928 275.15 499.818 281.644 402.467 283.373C305.117 285.102 152.985 294.612 111.661 299.967C-21.6546 317.214 -20.8108 325.943 37.4095 359.615C50.5512 367.206 30.2374 390.336 55.1287 405.833C74.2612 417.746 124.318 422.237 172.413 427.171C295.815 439.863 431.261 446.568 558.291 440.011C725.716 431.366 780.118 442.752 894.365 415.574C912.865 411.167 927.8 405.601 939.401 399.254C1026.31 351.751 853.231 336.992 875.908 328.642C913.245 314.916 863.04 278.018 783.198 277.048Z" fill="url(#paint0_linear)"/>
<path d="M786.152 284.28L775.584 284.681L775.035 238.484L718.84 238.379L719.388 284.575L706.985 284.554C704.939 284.554 703.272 285.819 703.293 287.401L703.357 292.292L789.97 292.06L789.907 287.169C789.907 285.566 788.219 284.28 786.152 284.28Z" fill="#4B3E3B"/>
<path d="M875.107 264.735L624.485 265.325C614.043 265.346 604.699 264.229 604.53 252.653L602.779 79.7382C602.589 68.1627 610.9 65.5693 621.342 65.5482L878.439 65.4217C888.881 65.4006 890.843 70.3555 891.033 81.931L894.366 252.695C894.555 264.25 885.548 264.713 875.107 264.735Z" fill="#A396E3"/>
<path d="M874.811 59.3706L613.959 59.9821C603.707 60.0032 595.522 69.1539 595.649 80.4131L597.568 249.554C597.695 260.813 606.111 269.922 616.342 269.9L877.194 269.289C887.446 269.268 895.631 260.117 895.504 248.858L893.585 79.7173C893.479 68.4581 885.063 59.3496 874.811 59.3706ZM887.488 244.641C886.75 256.09 882.405 257.524 868.883 259.168L624.485 260.37C614.233 260.391 605.373 257.186 605.247 245.948L603.622 82.7746C603.496 71.5154 611.997 66.687 622.249 66.6659L866.647 65.4641C876.899 65.443 885.421 72.675 885.548 83.9342L887.488 244.641Z" fill="#64534E"/>
<path opacity="0.5" d="M871.815 77.7985H619.296C617.039 77.7985 615.203 75.9641 615.203 73.7081C615.203 71.452 617.039 69.6177 619.296 69.6177H871.815C874.073 69.6177 875.908 71.452 875.908 73.7081C875.908 75.9641 874.073 77.7985 871.815 77.7985Z" fill="white"/>
<path d="M857.092 74.3618H850.489V75.8799H857.092V74.3618Z" fill="#9E3E75"/>
<path d="M873.187 72.0848L872.237 71.1149L870.634 72.7384L869.073 71.0728L868.082 72.0005L869.664 73.6872L868.019 75.3318L868.989 76.3017L870.592 74.6782L872.132 76.3439L873.145 75.4162L871.562 73.7294L873.187 72.0848Z" fill="#9E3E75"/>
<path d="M860.024 71.0938V75.9854H864.918V71.0938H860.024ZM863.716 74.8046H861.227V72.3167H863.716V74.8046Z" fill="#9E3E75"/>
<mask id="mask0" mask-type="alpha" maskUnits="userSpaceOnUse" x="602" y="-1" width="287" height="262">
<path d="M869.402 259.293L623.805 260.061C613.573 260.089 604.415 258.635 604.25 243.576L602.534 18.6247C602.348 3.56571 610.493 0.191853 620.725 0.164423L872.668 -0.00015699C882.901 -0.0275868 884.823 6.41841 885.009 21.4773L888.275 243.631C888.461 258.663 879.635 259.266 869.402 259.293Z" fill="#A396E3"/>
</mask>
<g mask="url(#mask0)">
<path d="M655.072 220.098C655.072 220.098 660.683 203.61 678.191 203.61C695.699 203.61 957.69 209.767 957.69 209.767L960.643 261.066L642.246 262.921C642.246 262.921 633.323 259.506 638.576 247.804C643.828 236.123 655.072 220.098 655.072 220.098Z" fill="#8B64FF"/>
<path d="M726.965 226.659C727.032 226.486 727.1 226.312 727.167 226.139C727.05 226.442 726.917 226.789 726.965 226.659Z" fill="#FFBD8E"/>
<path d="M687.283 224.551C714.314 222.936 709.057 222.399 709.658 221.273C723.183 195.983 726.956 141.389 725.362 134.923C718.09 105.423 723.494 83.3752 731.415 80.2894C734.397 79.1278 738.004 80.187 739.859 82.8027C750.402 79.2552 749.993 94.07 752.301 99.7903C755.977 108.906 758.642 113.383 759.062 119.024C759.75 128.204 736.261 220.548 723.93 233.401C722.984 234.387 717.295 245.748 705.675 244.121C699.389 243.241 694.394 246.728 693.553 242.815C692.991 240.093 694.847 239.205 698.971 237.27C685.054 235.131 661.03 240.525 662.237 233.326C662.237 233.326 683.169 224.8 687.283 224.551Z" fill="#FFCA8B"/>
<path d="M703.746 228.897C703.737 228.897 703.729 228.895 703.72 228.895C703.742 228.897 703.769 228.899 703.746 228.897Z" fill="#FFBD8E"/>
<path d="M726.986 95.7434C726.986 95.7434 744.138 117.008 742.59 142.532C742.074 151.037 725.266 152.777 723.886 163.28C723.77 164.176 724.007 167.333 724.007 167.333C729.624 169.589 737.965 170.431 738.797 175.606C741.682 193.488 725.377 232.227 725.377 232.227C725.377 232.227 732.815 226.648 748.58 173.266C750.859 165.547 759.125 125.828 759.125 125.828L742.963 105.596L726.986 95.7434Z" fill="#F8BF7B"/>
<path d="M725.454 91.1827L726.986 95.7435C726.986 95.7435 734.37 110.531 744.027 118.97C769.882 141.558 792.632 138.216 792.632 138.216L754.954 99.9575L740.268 78.9983L729.281 81.3633C729.281 81.3633 725.305 83.1997 725.454 91.1827Z" fill="#FE8E1A"/>
<path d="M770.591 73.608C778.994 40.2972 757.532 55.4776 742.867 44.9834C736.363 40.2053 730.227 44.9709 730.325 50.3736C728.069 52.4336 724.738 57.8363 724.114 67.1898C723.116 82.3013 733.671 79.1361 747.916 89.5822C750.402 91.4061 753.109 93.8067 756.853 94.4376C769.928 96.6313 769.377 79.0922 770.591 73.608Z" fill="#F8BF7B"/>
<path d="M809.121 130.694C817.409 126.908 819.321 125.201 819.321 125.201C818.992 125.795 839.325 92.6721 827.025 73.3258C825.589 71.0694 825.973 72.6677 826.234 71.1112C826.739 68.0986 823.61 67.2754 823.373 67.1542C812.955 61.1748 806.786 59.0647 801.307 57.7882C780.036 52.5087 763.117 50.0956 744.026 69.1599C737.722 75.4547 739.298 78.2292 747.042 101.783C753.863 122.521 792.549 138.088 809.121 130.694Z" fill="#F8BF7B"/>
<path d="M735.635 77.966C735.635 77.966 747.845 66.6883 751.915 77.966C755.985 89.2437 757.237 100.526 757.237 100.526C757.237 100.526 771.952 70.3549 767.882 61.6679C763.812 52.9809 762.247 49.7593 762.247 49.7593L738.186 62.7752L735.635 77.966Z" fill="#FE8E1A"/>
<path d="M1043.26 245.431C1041.18 245.082 1042.28 246.651 1040.84 243.373C1031.1 221.179 978.094 178.634 900.165 149.884C871.484 138.439 877.583 135.286 861.14 146.29C856.782 148.85 850.251 148.01 856.997 157.522C897.706 214.941 958.41 214.408 1026.31 262.299C1029.08 264.376 1030.76 266.112 1032.91 266.474C1038.69 267.443 1051.57 246.826 1043.26 245.431Z" fill="#0A245C"/>
<path d="M1061.52 236.265C1057.13 221.417 1030.76 203.441 1030.01 202.382C1017.56 191.988 996.199 191.789 965.392 162.925C920.955 120.386 944.159 135.117 932.03 121.14C920.336 107.666 881.96 102.56 881.065 102.539C872.186 102.326 880.188 106.118 863.783 131.981C861.253 135.963 860.93 137.906 858.696 141.069C849.663 152.928 848.225 152.455 870.913 170.887C906.063 199.44 1015.43 230.027 1046.55 257.199C1054.74 264.353 1062.96 241.267 1061.52 236.265Z" fill="#0A245C"/>
<path d="M753.905 48.0175C754.028 47.8608 754.163 47.7145 754.312 47.5808C755.428 47.6393 755.326 47.6289 758.394 47.8002C775.11 48.732 789.226 51.7843 789.226 51.7823C814.949 57.9267 833.782 71.2957 849.746 78.2884C850.621 78.6707 873.749 91.3503 891.271 99.3207C897.792 102.285 910.966 109.447 910.966 109.447C911.753 114.043 903.116 119.377 892.544 135.255C887.274 143.17 877.045 164.789 862.748 164.789C862.748 164.789 853.526 157.399 849.598 155.805C807.512 138.73 791.32 138.139 775.659 134.788C762.673 131.647 772.923 130.576 770.097 131.382C768.498 131.838 766.785 131.555 765.543 130.452C759.348 124.945 748.816 115.874 748.933 115.769C754.646 110.671 762.047 85.1661 762.591 77.8496C762.591 77.8538 762.591 77.8601 762.589 77.8642C762.848 75.3405 765.643 62.711 759.636 55.7434C758.365 52.7517 756.296 50.1213 753.905 48.0175Z" fill="#FE8E1A"/>
<path d="M793.845 57.1571C793.845 57.1571 834.856 75.6468 850.197 90.6872C865.538 105.73 882.129 115.756 885.573 125.471C889.017 135.186 889.728 140.827 889.728 140.827C889.728 140.827 897.547 135.785 904.145 126.384C910.742 116.982 914.182 111.034 914.182 111.034C914.182 111.034 868.282 87.9566 850.944 79.2925C833.606 70.6306 819.152 61.4964 802.36 55.6821C785.141 49.7215 782.046 50.388 782.046 50.388L793.845 57.1571Z" fill="#F27F07"/>
<path d="M730.622 88.6817C734.9 83.4858 738.027 76.7919 738.186 62.7753C739.701 53.6913 747.031 28.9004 713.872 16.668C706.193 13.8329 697.055 13.3315 688.667 16.0872C637.658 32.8219 699.723 126.213 730.622 88.6817Z" fill="#FFCA8B"/>
<path d="M711.661 53.7624C712.36 56.1211 711.494 58.4569 709.728 58.9834C707.962 59.5078 705.963 58.0223 705.264 55.6636C704.565 53.3048 705.431 50.9691 707.196 50.4426C708.964 49.9182 710.962 51.4057 711.661 53.7624Z" fill="#3C2B27"/>
<path d="M684.067 67.5077C685.722 67.308 686.831 65.2164 686.544 62.836C686.258 60.4555 684.684 58.6877 683.029 58.8874C681.374 59.0871 680.265 61.1787 680.552 63.5592C680.838 65.9396 682.412 67.7075 684.067 67.5077Z" fill="#3C2B27"/>
<path d="M698.631 77.0241C700.929 77.3062 703.312 76.1425 703.452 76.0735C703.893 75.8541 704.047 75.3444 703.797 74.937C703.544 74.5296 702.983 74.377 702.542 74.5964C702.509 74.6131 699.015 76.2741 697.424 74.728C696.187 73.5246 696.304 70.7 696.408 68.2096C696.456 67.0564 696.506 65.8634 696.431 64.8104C696.174 61.2232 693.795 57.5942 693.695 57.4417C693.43 57.0406 692.864 56.9048 692.43 57.1388C691.998 57.3707 691.86 57.8846 692.125 58.2858C692.148 58.3192 694.369 61.7142 694.596 64.8815C694.665 65.8467 694.619 66.9435 694.571 68.1052C694.446 71.0677 694.319 74.1305 696.099 75.8604C696.834 76.577 697.725 76.9134 698.631 77.0241Z" fill="#3C2B27"/>
<path d="M707.658 81.1439C704.316 82.6942 700.242 83.1538 697.551 83.275C701.576 85.6212 708.088 88.5503 711.458 86.5425C715.069 84.3885 715.979 77.3979 716.2 73.4932C714.385 75.8791 711.212 79.4955 707.658 81.1439Z" fill="white"/>
<path d="M787.594 68.8444C795.976 70.3758 801.282 71.1634 803.941 88.1322C806.6 105.101 799.614 124.307 796.465 134.342C793.227 144.658 790.387 151.49 786.64 157.428C782.894 163.365 778.84 166.075 773.66 166.687C768.477 167.299 704.434 163.581 702.701 157.996C701.862 155.288 704.666 142.139 716.686 143.332C730.34 144.688 764.589 140.672 764.712 138.128C765.818 115.468 773.082 114.07 771.454 107.844C768.093 94.9974 763.627 96.7628 766.987 83.7886C769.118 75.555 779.974 67.4529 787.594 68.8444Z" fill="#FFCA8B"/>
<path d="M671.408 126.846C674.948 125.365 681.426 133.254 686.521 135.637C688.024 118.387 681.479 105.011 687.688 100.868C690.819 98.7791 694.238 113.308 694.872 118.334C695.179 120.785 695.465 123.041 695.728 125.124C696.008 124.771 696.828 109.317 696.694 101.834C696.661 99.9742 697.331 96.8821 699.366 96.763C701.159 96.6585 703.753 99.105 703.789 101.1C703.937 109.353 703.953 117.609 703.847 125.862C704.225 125.977 704.69 119.949 704.611 118.756C704.292 113.941 704.732 110.615 705.245 105.795C705.444 103.935 706.694 100.992 708.499 101.378C710.484 101.804 711.636 103.497 711.426 105.488C710.962 109.837 711.515 114.624 711.785 119.289C712.041 123.739 712.599 126.246 712.371 132.29C712.4 132.33 712.425 132.372 712.455 132.412C712.695 131.442 713.11 129.06 713.087 128.03C712.941 121.604 714.79 117.185 714.2 110.892C714.024 109.035 715.738 107.057 717.671 106.944C719.587 106.833 720.065 111.411 720.252 113.4C720.864 119.91 720.783 123.217 720.313 129.742C720.09 132.848 718.313 149.481 719.117 152.851C718.303 158.504 718.604 165.547 702.649 164.772C698.763 165.227 695.064 164.498 693.939 163.725C692.555 162.772 683.745 157.913 678.673 144.41C676.928 139.856 666.874 128.741 671.408 126.846Z" fill="#FFCA8B"/>
<path d="M781.43 70.773C781.43 70.773 798.904 89.856 788.358 112.562C783.929 122.097 778.339 129.635 779.781 142.728C781.105 154.737 778.039 160.234 773.703 162.242C766.83 165.426 748.987 163.713 752.429 164.435C755.873 165.158 765.76 167.185 772.626 167.005C782.409 166.75 789.923 157.992 797.646 138.945C805.471 119.642 805.798 116.343 807.359 99.1677C808.925 81.9316 801.778 66.2707 787.254 68.0047C784.484 68.3348 779.331 69.7868 779.331 69.7868C779.331 69.7868 780.282 69.8746 781.43 70.773Z" fill="#F8BF7B"/>
<path d="M715.694 27.2235C714.736 29.8434 712.248 31.1617 710.265 32.5092C700.221 39.3201 689.483 44.4262 676.893 44.0209C674.718 43.952 672.8 42.9366 670.399 42.5334C673.04 46.7432 673.513 50.8945 671.67 55.426C670.829 57.4944 672.806 59.4583 673.136 61.56C665.094 58.2005 660.302 51.8534 657.392 43.9603C655.353 38.428 654.606 32.6158 654.735 26.7095C656.087 26.1454 656.517 27.2611 656.818 28.0738C659.047 34.1054 664.363 34.916 669.51 34.9244C679.516 34.939 689.341 33.4306 698.771 29.741C703.755 27.7897 708.125 25.0068 712.056 21.4488C712.592 20.962 713.469 20.3583 713.032 19.6061C712.452 18.6096 711.432 19.2531 710.762 19.6354C704.573 23.1557 697.514 24.0458 690.823 25.8174C684.799 27.4115 678.276 28.0613 672.405 24.3111C670.09 22.8319 668.237 21.0853 669.089 18.0267C669.437 16.7731 668.172 16.4326 668.064 15.5112L668.097 15.5091C671.416 13.8503 675.004 12.8036 678.264 11.0131C682.472 9.35635 686.932 8.55618 691.714 7.24205C689.545 6.4753 687.754 6.90986 685.736 6.83883C686.35 5.602 687.304 5.22803 688.212 4.79556C697.823 0.220137 707.936 -0.832836 718.369 0.589932C721.074 0.959726 723.932 0.836461 726.336 2.50785C728.799 6.8639 728.563 8.3201 724.811 11.947C724.656 12.0953 724.51 12.2541 724.347 12.3941C721.916 14.4833 717.96 15.7097 716.996 18.2523C716.04 20.7845 716.529 24.2421 715.694 27.2235Z" fill="#322A27"/>
<path d="M668.067 15.5088C669.492 15.8765 671.64 15.4942 669.866 18.2875C668.874 19.8502 670.016 21.4025 671.496 22.654C676.138 26.5817 681.596 25.8609 686.987 25.6583C688.817 25.5893 690.623 25.3512 692.326 24.6137C696.494 22.8086 701.092 22.5328 705.321 20.9742C707.525 20.1615 709.625 19.0772 711.816 18.229C712.634 17.9135 713.764 17.0694 714.415 18.2102C715.028 19.284 714.747 20.6399 713.747 21.4401C709.09 25.1652 704.34 28.6187 698.631 30.8166C691.435 33.5848 683.954 34.8405 676.445 35.7451C672.652 36.2027 668.582 36.4784 664.748 35.4192C660.772 34.3203 656.827 33.0019 655.982 28.0609C655.869 27.3986 655.426 26.9077 654.738 26.7071C654.721 23.5795 656.453 21.649 659.002 20.1344C661.928 18.3961 664.894 16.7582 668.067 15.5088Z" fill="#64534E"/>
<path d="M715.694 27.223C715.262 27.1185 714.702 26.8615 714.867 26.4437C715.948 23.7172 716.698 21.0305 715.424 18.1181C715.047 17.251 715.936 16.8645 716.662 16.5804C719.995 15.2705 722.49 12.8281 725.053 10.4443C727.278 8.37598 728.079 6.25541 725.988 3.67938C725.474 3.04844 725.808 2.77266 726.336 2.50732C730.289 3.11738 730.997 6.71504 732.264 9.46238C736.213 18.0241 738.288 27.1018 738.717 36.5409C738.747 37.1823 738.878 37.8195 738.964 38.4568C735.866 40.1741 732.717 41.8309 731.018 45.1987C730.517 45.9049 730.794 46.8973 729.826 47.921C727.584 45.3199 726.939 42.395 726.889 39.142C726.835 35.5256 727.215 31.8778 726.489 28.2947C725.869 25.2424 724.355 22.7499 721.554 21.1851C718.91 22.5222 718.282 25.8253 715.694 27.223Z" fill="#64534E"/>
<path d="M678.264 11.0085C675.399 13.6911 671.665 14.4098 668.1 15.5067C671.182 13.3151 674.62 11.9299 678.264 11.0085Z" fill="#A87A59"/>
<path d="M721.559 21.1831C725.314 22.1713 728.367 27.1312 728.006 31.2407C727.543 36.5411 727.228 41.8686 729.624 46.9538C730.446 46.6592 729.985 45.295 731.02 45.1947C730.97 46.2518 730.993 47.3194 730.853 48.3661C730.697 49.5424 731.031 51.0654 728.948 50.9965C727.226 50.9401 725.767 50.8398 725.37 48.7067C724.496 44.0101 722.817 39.4117 723.738 34.5124C724.625 29.8033 723.646 25.4034 721.559 21.1831Z" fill="#322A27"/>
<path d="M681.213 48.7088C681.923 48.4748 682.637 48.245 683.344 48.0027C684.605 47.5723 685.423 48.2722 686.037 49.1872C686.742 50.2402 686.441 51.3433 685.534 52.0641C682.451 54.5127 678.742 56.0358 675.738 58.6285C675.271 59.0338 674.559 59.0464 674.039 58.3841C673.305 57.446 673.232 56.3115 673.591 55.3609C674.601 52.6742 676.442 50.6414 679.088 49.4338C679.765 49.1246 680.505 48.9533 681.215 48.7172C681.215 48.7151 681.213 48.7109 681.213 48.7088Z" fill="#322A27"/>
<path d="M706.264 38.4883C709.416 37.8783 712.549 37.2473 715.468 39.4055C716.245 39.98 716.748 40.5316 716.537 41.5052C716.291 42.6313 715.337 42.5477 714.494 42.6417C711.388 42.9823 708.387 43.7678 705.452 44.8229C704.045 45.3285 702.678 45.6001 701.789 44.0269C700.906 42.4662 701.931 41.43 702.943 40.4146C703.882 39.4765 704.978 38.8456 706.264 38.4883Z" fill="#322A27"/>
</g>
<path d="M124.423 333.154L93.2039 361.387C89.6601 364.591 91.7695 370.748 96.4314 370.79L706.668 376.821C712.744 376.884 715.76 369.04 711.372 364.591L677.579 330.434C671.968 324.763 664.48 321.621 656.717 321.684L141.911 326.217C135.498 326.302 129.296 328.748 124.423 333.154Z" fill="url(#paint1_linear)"/>
<path d="M541.099 151.742C550.36 136.034 558.397 134.643 576.053 126.019C583.9 122.055 589.637 128.275 588.561 134.073C590.608 136.688 591.662 143.055 592.211 153.239C592.443 157.54 577.888 172.089 562.594 172.974C559.24 173.164 556.245 176.58 552.111 176.58C537.682 176.58 537.998 157.013 541.099 151.742Z" fill="#FFECCF"/>
<path d="M491.042 215.46C482.816 209.894 479.44 198.318 479.44 198.318C479.694 199.014 463.81 159.797 480.516 141.263C482.457 139.092 481.761 140.757 481.761 139.028C481.761 135.697 485.262 135.381 485.558 135.297C497.835 130.763 504.838 129.604 510.955 129.224C534.771 127.39 549.452 116.995 556.54 150.182C559.894 165.806 565.547 173.017 561.35 186.237C554.114 208.861 507.517 226.403 491.042 215.46Z" fill="#FFECCF"/>
<path d="M211.374 309.708C211.416 309.666 211.395 309.687 211.416 309.645C211.416 309.666 211.395 309.687 211.374 309.708ZM181.737 343.591C174.164 340.323 180.83 329.528 179.817 312.534C179.226 302.708 186.715 293.895 193.191 291.576C205.7 286.304 211.564 302.265 211.353 305.744C213.547 308.949 202.915 317.636 202.493 319.534C199.203 336.718 197.473 334.588 202.493 339.543C206.776 343.76 208.21 355.019 181.737 343.591Z" fill="#FFD89D"/>
<path d="M216.542 299.967C216.542 299.967 201.333 308.696 197.114 319.533C192.874 330.371 185.639 332.374 186.525 336.591C187.411 340.808 200.215 348.377 200.215 348.377C200.215 348.377 192.242 348.693 186.525 345.51C180.808 342.326 176.252 345.404 178.066 331.952C179.88 318.5 178.066 307.916 178.066 307.916L193.191 291.554H202.515L216.542 299.967Z" fill="#FFAD72"/>
<path d="M197.304 312.07C217.154 287.506 204.139 293.094 202.894 278.103C204.075 273 199.477 270.786 198.485 275.045C197.642 276.5 193.992 278.503 192.811 279.326C175.408 290.774 160.263 281.097 157.541 299.082C156.423 306.44 161.739 310.467 160.431 332.522C159.946 338.847 155.432 359.847 184.099 355.335C188.381 354.661 191.419 355.378 193.655 353.185C197.03 349.896 190.659 346.564 186.694 343.781C182.327 340.703 179.712 337.013 190.28 320.757C191.419 319.133 192.073 318.543 197.304 312.07Z" fill="#FFD89D"/>
<path d="M718.059 133.778C715.317 132.513 708.778 137.573 703.546 140.525C704.77 125.239 711.878 112.419 706.394 108.73C701.69 105.546 700.087 119.904 698.779 124.185C698.146 126.272 697.577 128.212 697.028 129.983C696.838 129.624 697.007 114.971 698.209 108.455C698.505 106.832 698.209 104.723 696.437 104.323C694.876 103.964 692.619 106.305 692.303 108.034C690.953 115.224 690.932 122.203 689.814 129.435C689.455 129.477 690.257 124.163 690.194 123.109C689.729 116.383 688.886 115.687 689.139 111.407C689.244 109.763 688.042 106.916 686.397 106.98C684.604 107.064 683.338 108.371 683.232 110.142C683 114.001 682.705 116.889 682.6 122.076C682.536 126.019 682.093 128.465 681.418 133.799C681.397 133.82 681.355 133.862 681.334 133.883C681.271 132.998 681.25 130.868 681.418 129.962C682.494 124.374 681.186 120.031 680.807 114.443C680.596 111.196 678.613 110.564 676.946 110.184C675.28 109.805 674.71 113.874 674.9 115.645C675.638 122.097 675.385 124.648 674.837 130.405C674.584 133.146 673.698 147.947 672.495 150.772C638.302 155.411 600.416 165.595 595.628 161.589C573.985 143.456 564.725 125.323 542.976 133.335C539.707 134.537 527.324 142.655 529.645 145.269C523.253 155.558 539.053 158.827 544.537 162.706C553.27 168.884 583.309 190.243 589.173 192.098C598.729 195.113 661.737 180.67 693.21 165.995C694.56 165.363 702.724 160.366 709.136 149.317C711.33 145.628 722.004 135.634 718.059 133.778Z" fill="#FFD89D"/>
<path d="M198.486 287.696C198.486 287.696 176.337 291.639 171.928 296.762C163.068 307.094 167.287 317.636 167.287 323.54C167.287 329.443 161.001 345.784 165.6 348.398C175.725 354.133 188.508 353.691 190.238 354.745C191.989 355.799 177.434 357.106 172.434 355.673C167.435 354.239 165.431 355.989 161.507 348.398C157.584 340.829 160.98 333.492 160.621 325.817C160.284 318.121 159.482 313.018 158.449 307.768C157.436 302.518 155.96 300.684 158.449 295.139C160.938 289.593 161.17 288.349 168.363 287.042C175.556 285.735 183.994 284.322 188.382 281.834C192.769 279.346 196.798 275.678 201.439 272.937C206.08 270.196 201.439 282.214 201.439 282.214L198.486 287.696Z" fill="#FFAD72"/>
<path d="M210.277 286.979C212.577 286.979 211.121 288.476 213.252 285.207C227.722 263.153 292.355 227.035 381.289 210.231C414.175 203.125 408.184 198.634 423.878 213.414C428.097 216.957 435.986 218.011 426.304 226.213C391.604 255.689 307.058 268.972 225.465 308.126C222.111 309.855 220.002 311.416 217.618 311.416C211.227 311.437 201.101 286.979 210.277 286.979Z" fill="#0F2C6A"/>
<path d="M423.161 230.831C423.161 230.831 412.298 216.24 410.863 211.475C409.45 206.71 409.007 208.144 409.007 208.144C409.007 208.144 398.038 215.924 379.475 223.957C360.912 232.011 320.622 245.505 304.169 248.036C287.715 250.566 227.301 281.265 218.737 286.41C210.172 291.554 207.346 296.446 207.346 296.446L209.118 301.78L212.197 307.262C212.197 307.262 224.643 295.054 250.378 288.602C268.709 284.006 286.871 282.382 310.075 275.656C333.279 268.93 340.008 266.949 369.139 257.503C397.743 248.268 423.161 230.831 423.161 230.831Z" fill="#051B4B"/>
<path d="M199.118 273.843C206.523 258.704 238.101 244.156 239.092 243.165C254.343 234.246 277.336 237.894 315.643 212.466C371.058 174.83 352.326 184.065 367.894 171.245C382.892 158.89 415.63 158.173 416.601 158.321C426.178 159.691 417.466 166.86 430.417 197.58C432.421 202.303 432.421 204.454 434.257 208.249C441.83 222.608 443.454 222.355 415.757 238.041C372.83 262.352 249.787 275.446 211.438 298.997C201.354 305.217 196.672 278.967 199.118 273.843Z" fill="#0A245C"/>
<path d="M405.674 197.496C405.674 197.496 397.426 180.164 381.605 188.387C365.784 196.61 353.761 217.062 329.291 223.599C304.822 230.135 280.985 236.671 264.11 241.099C247.235 245.527 213.716 267.497 208.231 273.485C202.726 279.473 200.827 288.602 200.827 288.602C200.827 288.602 196.482 278.587 198.486 275.024C200.468 271.482 220.993 247.804 242.024 241.626C263.055 235.448 284.593 229.46 293.094 225.18C301.595 220.9 325.136 208.776 335.345 198.866C345.534 189.02 359.667 170.676 374.222 165.827C388.777 160.977 402.636 159.354 402.636 159.354L405.674 197.496Z" fill="#051B4B"/>
<path d="M588.182 153.049C581.411 151.574 583.647 151.658 574.618 140.42C567.615 134.031 545.951 118.639 565.042 87.6872C569.471 80.5184 576.559 74.3406 585.081 71.199C640.432 50.9156 637.036 163.782 588.182 153.049Z" fill="#FFD89D"/>
<path d="M590.502 157.119C590.502 157.119 585.587 163.929 588.54 171.519C591.494 179.11 593.814 186.279 600.986 186.279C608.158 186.279 629.927 182.631 647.604 178.267C670.808 172.532 688.506 165.974 689.856 165.784C691.206 165.616 698.231 163.802 693.21 166.016C688.19 168.251 660.577 179.257 638.66 184.276C616.744 189.294 595.628 193.49 590.502 192.52C585.376 191.55 574.217 183.39 571.349 181.345C568.48 179.3 575.04 173.396 575.04 173.396L590.502 157.119Z" fill="#FFAD72"/>
<path d="M617.967 80.7082C617.967 80.7082 618.726 81.5305 619.907 83.4492C621.089 85.3679 621.89 88.4673 621.468 97.3229C621.047 106.178 617.461 125.576 611.976 134.432C606.492 143.287 594.531 150.772 590.523 150.709C586.515 150.646 584.912 149.212 580.968 150.709C577.023 152.206 572.108 151.742 569.788 157.33C567.467 162.917 562.848 170.508 562.848 170.508C562.848 170.508 556.498 150.899 558.819 144.784C561.139 138.67 582.444 93.5487 597.632 85.9583C612.82 78.3678 617.967 80.7082 617.967 80.7082Z" fill="#FFAD72"/>
<path d="M566.433 129.456C566.328 129.266 566.201 129.076 566.075 128.908C564.872 128.76 564.978 128.781 561.645 128.402C543.504 126.378 537.85 126.61 527.788 127.116C526.038 127.2 520.068 127.664 514.457 128.233C491.527 130.531 476.382 140.019 457.966 144.658C456.574 144.995 455.224 145.459 453.895 145.965C426.135 156.634 408.395 159.059 404.956 159.059C399.219 159.059 405.842 194.481 405.842 194.481C409.239 211.897 417.212 228.385 428.16 230.831C428.16 230.831 435.058 226.529 440.057 225.412C488.363 214.68 485.262 222.376 502.686 221.596C512.98 223.346 525.004 221.237 537.239 214.068C542.006 210.843 551.836 204.538 554.958 199.731C555.106 199.204 571.939 180.565 582.38 169.158C588.034 162.98 590.375 157.372 590.46 157.077C571.285 175.631 569.682 175.673 565.758 165.321C564.535 162.074 563.48 131.29 566.433 129.456ZM534.454 153.83C534.475 153.83 534.475 153.83 534.454 153.83C534.496 153.914 534.496 153.914 534.454 153.83Z" fill="#541DF8"/>
<path d="M550.423 140.757C548.039 145.248 543.166 147.884 538.104 147.378C524.856 146.07 499.438 145.543 482.035 150.667C463.113 156.254 437.104 171.498 428.455 181.619C419.807 191.74 408.564 205.065 410.462 210.399C412.361 215.734 403.775 200.384 402.657 176.559C402.299 168.757 402.657 159.333 402.657 159.333C402.657 159.333 408.732 160.239 422.76 156.107C436.788 151.974 455.119 145.29 474.631 138.986C494.143 132.682 503.34 128.233 518.95 126.778C534.56 125.323 555.865 126.778 555.865 126.778L554.81 132.492L550.423 140.757Z" fill="#4109E9"/>
<path d="M572.066 352.362C572.066 352.362 560.78 344.772 558.376 343.57C549.389 339.079 548.925 340.323 540.192 339.227C532.873 337.54 533.632 338.826 530.257 336.739C524.414 331.552 527.008 287.864 531.691 267.138C540.192 229.502 542.217 188.429 542.091 183.243C541.268 147.04 519.119 145.839 512.074 153.956C506.315 160.598 503.931 166.544 501.104 185.963C497.371 211.601 507.369 318.037 507.116 314.283C507.981 327.082 509.395 345.404 517.052 351.224C517.642 352.13 518.613 352.679 519.625 352.805C521.123 353.501 522.663 353.838 524.224 353.754C532.282 355.42 539.813 354.154 548.039 352.636C554.262 351.498 559.789 353.269 559.852 353.269C564.725 353.269 572.72 357.148 572.066 352.362Z" fill="#FFD89D"/>
<path d="M528.147 153.893C528.147 153.893 518.718 155.031 515.343 166.544C511.968 178.056 507.96 232.243 508.382 241.731C508.804 251.219 507.116 296.973 509.226 310.467C511.335 323.961 511.546 339.775 515.554 345.046C519.562 350.317 523.148 351.793 523.148 351.793L526.903 354.091C526.903 354.091 523.253 354.66 518.127 352.278C513.002 349.895 512.369 348.209 510.259 341.672C508.15 335.136 506.399 309.539 504.69 286.895C502.982 264.25 500.239 219.803 500.239 211.369C500.239 202.936 498.763 186.996 504.079 169.77C509.416 152.543 513.086 151.215 517.811 149.697C522.536 148.2 531.986 149.845 531.986 149.845C531.986 149.845 539.897 150.667 528.147 153.893Z" fill="#FFAD72"/>
<path d="M613.031 73.2021L612.988 73.1811C606.365 67.9099 601.133 65.3376 588.962 65.4219C577.824 65.4852 565.505 68.5424 557.363 75.163C553.924 77.9462 550.444 83.8499 548.06 93.0006C529.371 87.0126 497.856 107.317 518.718 144.595C525.51 157.604 538.568 158.3 546.605 170.676C549.98 175.863 554.937 188.704 555.612 186.911C565.336 161.083 527.704 145.733 544.073 115.561C544.2 115.392 545.423 114.085 545.719 113.853C547.87 140.399 566.982 149.254 572.108 150.667C579.913 152.797 588.814 157.836 598.898 145.354C603.285 139.935 612.651 126.019 614.085 118.998C617.65 101.498 619.148 86.3168 617.65 78.2835C616.089 75.3528 612.63 72.8859 613.031 73.2021Z" fill="#2F3542"/>
<path d="M610.563 71.916C610.563 71.916 590.46 68.3949 582.444 85.2626C574.428 102.13 580.588 104.871 572.129 118.091C569.429 122.329 566.18 125.45 564.176 128.549C558.312 137.552 565.822 147.863 565.822 147.863C565.822 147.863 555.865 141.896 551.414 133.23C550.423 131.332 550.739 131.417 547.976 125.387C545.508 119.968 545.719 113.853 545.719 113.853C545.719 113.853 548.545 111.239 558.312 111.239C564.872 111.239 564.429 103.121 558.312 97.8923C553.756 94.0127 548.081 92.9585 548.081 92.9585C548.081 92.9585 551.414 80.3288 557.384 75.1209C563.754 69.5756 567.72 66.9822 579.069 65.6539C604.255 62.7653 610.563 71.916 610.563 71.916Z" fill="#252A36"/>
<path d="M534.602 97.5124C525.342 105.398 522.663 108.055 520.406 118.323C517.938 129.561 523.928 139.365 528.147 145.037C531.965 150.161 538.779 156.043 542.344 161.209C545.339 165.531 547.238 171.751 547.238 171.751C547.238 171.751 542.618 163.634 533.758 159.248C524.899 154.863 513.592 141.326 511.82 130.004C510.407 121.001 510.386 116.151 516.018 106.073C521.65 95.9943 528.358 93.4642 536.163 92.4521C539.939 91.9671 545.677 92.431 545.677 92.431C545.677 92.431 539.855 93.0214 534.602 97.5124Z" fill="#252A36"/>
<path d="M799.821 316.055C791.573 316.055 784.591 324.172 782.207 335.41H761.303C758.919 324.193 751.937 316.055 743.689 316.055C733.479 316.055 725.189 328.516 725.189 343.886C725.189 359.257 733.458 371.718 743.689 371.718C751.937 371.718 758.919 363.6 761.303 352.362H782.207C784.591 363.579 791.573 371.718 799.821 371.718C810.031 371.718 818.321 359.257 818.321 343.886C818.3 328.516 810.031 316.055 799.821 316.055Z" fill="#4D79D9"/>
<path d="M827.792 343.043C820.746 347.323 819.017 357.908 822.814 368.724L804.968 379.604C797.1 371.254 786.89 367.965 779.844 372.245C771.132 377.558 770.542 392.507 778.537 405.622C786.531 418.758 800.095 425.083 808.828 419.77C815.873 415.489 817.603 404.905 813.806 394.089L831.652 383.209C839.52 391.559 849.73 394.848 856.775 390.568C865.487 385.254 866.078 370.305 858.083 357.191C850.067 344.076 836.504 337.73 827.792 343.043Z" fill="#4D79D9"/>
<path d="M831.083 345.383C831.083 345.383 838.17 343.95 850.046 359.194C860.615 372.751 855.025 387.532 855.025 387.532C855.025 387.532 872.659 381.986 855.995 357.718C842.157 337.54 831.083 345.383 831.083 345.383Z" fill="#2A58BB"/>
<path d="M783.198 374.249C783.198 374.249 790.286 372.815 802.162 388.059C812.73 401.616 807.14 416.397 807.14 416.397C807.14 416.397 824.775 410.851 808.111 386.583C794.273 366.405 783.198 374.249 783.198 374.249Z" fill="#2A58BB"/>
<path d="M825.493 368.556C825.493 368.556 826.969 366.447 831.083 371.718C835.196 376.989 833.509 381.417 833.509 381.417C833.509 381.417 838.677 375.661 836.04 371.718C831.083 364.339 825.493 368.556 825.493 368.556Z" fill="#2A58BB"/>
<path d="M799.695 319.66C799.695 319.66 806.508 322.085 808.829 341.251C810.896 358.308 798.492 368.112 798.492 368.112C798.492 368.112 816.465 372.435 814.693 343.043C813.216 318.627 799.695 319.66 799.695 319.66Z" fill="#2A58BB"/>
<path d="M743.773 319.745C743.773 319.745 750.587 322.169 752.907 341.335C754.974 358.393 742.571 368.197 742.571 368.197C742.571 368.197 760.543 372.519 758.771 343.127C757.295 318.711 743.773 319.745 743.773 319.745Z" fill="#2A58BB"/>
<path d="M782.966 336.633C782.966 336.633 785.308 335.6 786.13 342.221C786.932 348.862 783.219 351.793 783.219 351.793C783.219 351.793 790.624 349.516 790.391 344.793C789.927 335.895 782.966 336.633 782.966 336.633Z" fill="#2A58BB"/>
<defs>
<linearGradient id="paint0_linear" x1="12.2317" y1="353.369" x2="957.157" y2="624.118" gradientUnits="userSpaceOnUse">
<stop stop-color="#541DF8"/>
<stop stop-color="#541DF8"/>
<stop offset="0.0001" stop-color="#541DF8"/>
<stop offset="1" stop-color="#280597"/>
</linearGradient>
<linearGradient id="paint1_linear" x1="713.453" y1="372.41" x2="190.428" y2="118.086" gradientUnits="userSpaceOnUse">
<stop stop-color="#F37B02"/>
<stop offset="1" stop-color="#FCAC1B"/>
</linearGradient>
</defs>
</svg>
