<svg width="30" height="29" viewBox="0 0 30 29" fill="none" xmlns="http://www.w3.org/2000/svg">
<path d="M25.4326 26.4558C25.9663 25.912 26.3783 25.2582 26.6403 24.5319C26.992 23.5573 27.0487 22.5226 26.8044 21.5397C26.5728 20.6076 26.0747 19.7606 25.3556 19.0683V3.55251L27.4512 2.28568L26.5192 0.844971L20.7462 4.33471L21.6782 5.77542L23.5978 4.61508V17.5949C18.8254 13.6928 15.5511 11.4271 13.855 10.8552C12.6128 10.4364 11.3199 10.2833 10.0475 10.391L7.65023 7.03347H10.101V5.33425H3.23168V7.03347H5.51437L8.16598 10.7471C7.724 10.8787 7.28918 11.0432 6.8649 11.2412C4.66441 12.2681 3.00932 14.0619 2.20459 16.2922C1.3998 18.5225 1.5416 20.9222 2.60391 23.0493C3.2966 24.4362 4.32674 25.5988 5.59916 26.4558H0V28.155H30V26.4558H25.4326ZM24.9805 23.9722C24.5792 25.0842 23.4892 26.2982 21.633 26.3708C20.704 26.4071 19.8391 26.435 19.0322 26.4558H12.7631C10.1225 26.3581 8.93736 26.1284 8.40803 25.95C6.54416 25.3215 5.0451 24.0291 4.18693 22.3106C3.32877 20.5923 3.21416 18.6537 3.86432 16.8519C4.51447 15.0502 5.85147 13.6012 7.62908 12.7716C8.64668 12.2967 9.73863 12.0574 10.8362 12.0574C11.656 12.0574 12.4791 12.191 13.276 12.4597C14.2068 12.7735 16.8249 14.1811 23.9026 20.0815C25.3093 21.2542 25.3818 22.8603 24.9805 23.9722Z" fill="#541DF8"/>
<path d="M14.5442 22.6809L12.9495 20.3186C13.7807 19.6275 14.3087 18.6046 14.3087 17.4642C14.3087 15.3881 12.5614 13.699 10.4136 13.699C8.26588 13.699 6.51855 15.3881 6.51855 17.4642C6.51855 19.5403 8.26588 21.2294 10.4136 21.2294C10.749 21.2294 11.0746 21.1882 11.3853 21.1108L12.4453 22.6809H11.1178V24.3801H16.1518V22.6809H14.5442ZM10.4136 19.5302C9.23514 19.5302 8.27637 18.6033 8.27637 17.4642C8.27637 16.325 9.23514 15.3982 10.4136 15.3982C11.5921 15.3982 12.5508 16.325 12.5508 17.4642C12.5508 18.6034 11.5921 19.5302 10.4136 19.5302Z" fill="#541DF8"/>
</svg>
