<svg width="360" height="322" viewBox="0 0 360 322" fill="none" xmlns="http://www.w3.org/2000/svg">
<path opacity="0.06" d="M310.774 129.44C306.685 78.1101 278.649 45.0277 238.09 22.7999C197.531 0.572065 196.5 -43.5448 213.41 -76.0632C234.085 -115.841 215.084 -166.214 169.403 -176.48C132.79 -184.698 85.6775 -163.385 81.041 -110.607C76.5302 -59.9565 62.919 -15.6183 27.8015 8.87315C-7.35493 33.3819 -45.8663 56.9506 -41.2793 105.626C-37.7267 143.277 -4.37999 161.551 31.3168 149.053C67.4583 136.402 85.4594 149.52 101.631 174.352C117.803 199.184 129.576 219.891 153.556 232.197C177.574 244.486 203.598 248.811 242.098 235.697C280.597 222.583 314.863 180.769 310.774 129.44Z" fill="url(#paint0_linear)"/>
<defs>
<linearGradient id="paint0_linear" x1="163.491" y1="-189.693" x2="319.387" y2="218.606" gradientUnits="userSpaceOnUse">
<stop stop-color="#F37B02"/>
<stop offset="1" stop-color="#FCAC1B"/>
</linearGradient>
</defs>
</svg>
