<svg width="422" height="716" viewBox="0 0 422 716" fill="none" xmlns="http://www.w3.org/2000/svg">
<path opacity="0.1" d="M622.876 30.8416C573.473 -4.71042 454.393 -30.2923 394.099 83.6586C356.004 155.654 318.796 182.631 218.69 173.628C135.414 166.14 46.225 189.853 11.9711 287.755C-25.5143 394.892 30.5626 484.17 139.289 547.341C248.016 610.512 287.588 571.355 337.11 634.783C394.98 708.904 424.25 728.022 477.625 707.293C508.865 695.146 584.568 641.261 602.568 538.18C623.474 418.569 569.038 347.795 631.93 198.278C691.728 56.1207 680.316 72.1917 622.876 30.8416Z" fill="url(#paint0_linear)"/>
<defs>
<linearGradient id="paint0_linear" x1="0.751068" y1="169.757" x2="688.746" y2="197.793" gradientUnits="userSpaceOnUse">
<stop stop-color="#F37B02"/>
<stop offset="1" stop-color="#FCAC1B"/>
</linearGradient>
</defs>
</svg>
