<svg width="544" height="695" viewBox="0 0 544 695" fill="none" xmlns="http://www.w3.org/2000/svg">
<path opacity="0.04" d="M171.525 601.409C80.6516 588.081 25.0766 534.284 -9.70349 459.477C-44.4836 384.671 -122.881 377.636 -182.75 403.899C-255.982 436.006 -343.395 396.252 -356.282 313.74C-366.594 247.608 -323.107 166.27 -228.627 164.239C-137.949 162.18 -57.4324 143.182 -9.70348 83.5667C38.0607 23.8846 84.5473 -41.8793 170.639 -27.978C237.23 -17.2173 265.824 44.2866 239.372 106.346C212.597 169.179 233.822 202.763 276.111 234.472C318.4 266.181 353.867 289.576 372.943 333.705C391.983 377.901 396.613 424.729 368.735 491.704C340.857 558.679 262.399 614.736 171.525 601.409Z" fill="url(#paint0_linear)"/>
<defs>
<linearGradient id="paint0_linear" x1="405.223" y1="403.33" x2="-319.634" y2="76.88" gradientUnits="userSpaceOnUse">
<stop stop-color="#541DF8"/>
<stop stop-color="#541DF8"/>
<stop offset="0.0001" stop-color="#541DF8"/>
<stop offset="1" stop-color="#280597"/>
</linearGradient>
</defs>
</svg>
