<svg width="30" height="29" viewBox="0 0 30 29" fill="none" xmlns="http://www.w3.org/2000/svg">
<g clip-path="url(#clip0)">
<path d="M26.7956 8.11499C25.9999 7.96549 25.289 7.8202 24.3282 7.63112C25.6331 5.67932 24.1953 3.01254 21.7364 3.01254C19.0847 3.01254 17.7524 5.92117 19.2599 7.83327C18.8139 8.0136 18.3896 8.24363 17.9853 8.52393C17.6373 7.57336 17.2701 6.89559 16.3271 6.57474C17.0077 5.81183 17.7077 5.0266 18.3907 4.24489C18.8984 3.66385 19.0535 2.90883 18.8055 2.22515C18.3356 0.929992 16.5215 0.344575 15.2777 1.62321C14.4279 2.49659 13.5254 3.42024 12.0826 4.89687C11.907 3.35986 10.5567 2.14592 8.91257 2.14592C6.05589 2.14592 4.60226 5.54102 6.70116 7.46323C5.54271 7.69462 4.27293 7.94681 3.12195 8.19893C2.24753 8.39051 1.64422 8.91703 1.42318 9.68159C1.02839 11.0472 0.635607 12.4412 0.298403 13.6405C-0.019352 14.7706 0.489538 15.7769 1.53599 16.0878C2.57163 16.3954 4.15271 15.9057 4.56318 14.8362C4.91572 13.9177 5.28971 12.9811 5.62967 12.1326C5.66833 12.1256 5.70706 12.1186 5.74589 12.1117C5.52614 13.1267 5.3185 14.0856 5.08447 15.0516C4.95121 15.6017 4.94974 16.1239 5.07578 16.6076C3.63295 19.0957 1.68147 22.487 0.256451 24.9729C-0.52595 26.3377 0.580552 28.0541 2.24089 28.0541C2.94497 28.0541 3.62102 27.7247 4.03473 27.1181C5.28941 25.2784 7.04541 22.508 8.50551 20.2764C8.8265 20.5575 9.14695 20.8394 9.46312 21.1211C9.53316 21.1837 9.48809 20.9445 10.6256 26.3075C10.9823 27.9877 12.9269 28.5012 14.0729 27.6108C14.6956 27.127 15.0003 26.3215 14.8878 25.4562C14.6336 23.5005 14.3991 21.5347 14.1165 19.5815C13.9372 18.3426 13.1201 17.8086 11.3849 15.9174C11.6621 14.5763 11.971 13.2201 12.2611 11.8814C12.5153 10.7084 12.6398 10.7151 13.3883 9.88044C13.98 10.9773 14.5586 12.046 15.1092 13.0593C15.5407 13.8533 16.1139 14.1452 16.5189 14.2501C17.4967 14.5035 18.2574 13.9573 18.795 13.6489C18.7753 14.0821 18.7545 14.5069 18.7303 14.9308C17.9627 15.8675 16.9264 17.1494 16.1241 17.9778C14.9828 19.156 14.5939 20.5945 15.0571 21.9244C15.4978 23.1897 15.7866 24.5177 16.1662 25.8641C16.5218 27.1252 17.73 27.9033 19.2095 27.493C20.369 27.1713 21.0001 26.2242 20.9532 24.9182C21.078 25.4624 21.2007 25.9914 21.3223 26.5089C21.5332 27.407 22.4576 28.0908 23.4921 28.0907C24.8177 28.0907 26.0025 26.9612 25.8142 25.6231C25.5803 23.9608 25.7048 24.9711 25.1969 21.3019L26.9492 20.6343C27.442 20.4466 27.6776 19.9015 27.4684 19.4303C26.8572 18.0539 25.8129 17.4652 25.2165 16.0599C25.5079 16.3011 25.8721 16.4757 26.3056 16.5455C27.7847 16.7838 29.071 15.4924 29.3065 14.4987C29.5687 13.393 29.6608 12.9339 29.9329 11.8472C30.4016 9.97563 28.3154 8.40051 26.7956 8.11499ZM20.8633 5.16808C21.6103 4.45408 22.9474 4.93101 22.9379 6.02471C22.9323 6.66045 22.4145 7.17873 21.7114 7.17873C20.5558 7.17169 20.1509 5.84926 20.8633 5.16808ZM9.83376 4.3373C10.6626 5.14076 10.0803 6.49914 8.91463 6.49903C8.17136 6.49891 7.5872 5.94724 7.58685 5.24198C7.58632 4.12044 9.00147 3.53048 9.83376 4.3373ZM2.46499 26.1177C2.36499 26.2644 2.18701 26.2572 2.05499 26.1849C1.92778 26.1153 1.84863 25.9452 1.90099 25.8539C3.17465 23.632 4.86948 20.6858 6.24421 18.3104C6.48975 18.5238 6.73553 18.7372 7.08807 19.0428C5.60852 21.297 3.74982 24.2337 2.46499 26.1177ZM11.4047 9.31337C10.618 10.1768 10.5123 11.1017 10.1166 12.8959C9.91326 13.818 9.70291 14.7714 9.50948 15.715C9.42017 16.1506 9.56841 16.6727 9.8783 17.014C10.5789 17.7857 11.3423 18.5331 12.002 19.2935C12.3103 19.6487 12.2298 19.587 13.0223 25.6828C13.0582 25.9592 12.9762 26.1311 12.895 26.1941C12.8742 26.2102 12.8191 26.253 12.6703 26.2018C12.3923 26.1062 12.6054 26.3563 11.3697 20.8504C11.2815 20.4572 11.0451 20.0588 10.7376 19.7847C9.61736 18.7865 8.46268 17.7957 7.34589 16.8239C6.90028 16.4362 6.77548 16.0428 6.91515 15.4662C7.2587 14.048 7.54543 12.6509 7.87223 11.1724C7.99709 10.6073 7.55101 10.0737 6.95293 10.0737C6.77601 10.0737 5.08782 10.3815 4.85238 10.4273C4.46941 10.502 4.15312 10.786 3.98461 11.2065C3.61844 12.12 3.20391 13.1541 2.8123 14.1733C2.68973 14.2933 2.25852 14.401 2.08836 14.3505C2.05428 14.3395 2.02743 14.3452 3.23411 10.1708C3.25427 10.1012 3.27507 10.0291 3.53759 9.97165C10.1127 8.53126 10.8569 8.80292 12.0203 7.60897C17.0007 2.49761 16.7641 2.70498 16.8894 2.72884C17.0817 2.76553 17.0771 2.93172 16.9544 3.07213C16.2889 3.83362 11.9226 8.74505 11.4047 9.31337ZM28.1054 11.4195C27.8267 12.5327 27.7347 12.9923 27.4738 14.0923C27.42 14.3011 26.9542 14.8071 26.6145 14.7527C26.2122 14.6879 26.254 14.1544 26.2546 14.1491C26.3566 13.3421 26.4883 12.5397 26.615 11.6835C26.6875 11.1933 26.3406 10.7371 25.8349 10.6578C25.0131 10.5289 24.4094 10.1733 23.8693 10.5641C23.4948 10.8351 23.4999 11.1782 23.4482 11.5756C23.0579 14.5805 23.2046 13.3906 23.1757 13.6788C22.956 14.4565 22.8526 15.5713 23.7526 17.3377C24.1369 18.0919 24.7503 18.7115 25.2307 19.3353L23.8227 19.8718C23.4203 20.0251 23.1781 20.4239 23.2356 20.8382C23.7603 24.6277 23.8086 24.8549 23.9511 25.8679C23.9674 25.984 23.8642 26.1827 23.5837 26.2612C23.3789 26.3182 23.1784 26.1682 23.1557 26.1064C22.8089 24.63 22.4525 23.0593 22.0662 21.3045C21.8718 20.4216 21.249 20.1646 20.7608 20.1045C20.272 20.0444 19.5312 19.7817 19.2571 19.7817C18.652 19.7817 18.204 20.3273 18.3415 20.897C18.8818 23.142 18.8867 23.6095 19.0489 24.7132C19.1807 25.61 18.8373 25.7052 18.6907 25.7459C18.3233 25.8479 18.0883 25.77 17.9801 25.3861C17.6055 24.0575 17.3079 22.691 16.8389 21.3443C16.5046 20.3847 17.1874 19.539 17.4964 19.22C18.274 18.4172 19.2083 17.2756 19.959 16.3582C20.279 15.9679 20.5691 15.6808 20.5966 15.2184C20.6582 14.1842 20.6977 13.1525 20.7472 12.0472C20.7799 11.3167 19.9479 10.8481 19.3064 11.2393C18.87 11.5054 17.7898 12.1023 17.3729 12.3567C17.1541 12.4902 17.0316 12.5012 17.0059 12.4946C16.8841 12.4631 16.8327 12.3356 14.9523 8.84904C14.8707 8.69756 15.0227 8.37217 15.1793 8.29015C15.3673 8.19178 15.7867 8.25312 15.8697 8.39125C16.2674 9.05283 16.2349 9.45258 16.7677 10.3396C16.8975 10.5556 17.1134 10.7105 17.3649 10.7678C18.6388 11.0586 19.2672 8.50559 23.4952 9.32251C24.4765 9.51216 25.4481 9.71328 26.4369 9.89907C27.0644 10.017 28.2566 10.8156 28.1054 11.4195Z" fill="#541DF8"/>
</g>
<defs>
<clipPath id="clip0">
<rect width="30" height="29" fill="white"/>
</clipPath>
</defs>
</svg>
