<svg width="50" height="50" viewBox="0 0 50 50" fill="none" xmlns="http://www.w3.org/2000/svg">
<g clip-path="url(#clip0)">
<path d="M45.9792 23.5141C44.8481 22.5718 43.4166 22.1127 41.9485 22.2229C41.4053 22.2636 40.8788 22.3809 40.3812 22.5679C40.6967 21.3182 40.8651 20.0105 40.8651 18.6643C40.8651 9.87187 33.712 2.71877 24.9196 2.71877C16.1272 2.71877 8.97377 9.87222 8.97377 18.6646C8.97377 23.2042 10.8808 27.3068 13.9359 30.2138H2V47.2879H34.2013L46.7517 31.394C48.6812 29.0111 48.3359 25.478 45.9792 23.5141ZM4.69566 32.9094H8.90955V44.5923H4.69566V32.9094ZM11.6056 32.9094H30.1014C31.136 32.9094 31.9776 33.751 31.9776 34.7856C31.9776 35.8202 31.136 36.6618 30.1014 36.6618H21.6839V39.3578H30.1014C32.6227 39.3578 34.6736 37.3069 34.6736 34.7856C34.6736 34.0202 34.4834 33.2983 34.1493 32.6638L40.1699 25.8907C41.2315 24.6961 43.0253 24.562 44.2532 25.5851C45.4847 26.6112 45.6641 28.4576 44.6533 29.7017L32.895 44.5923H11.6056V32.9094ZM11.6694 18.6646C11.6694 11.3585 17.6135 5.41478 24.9196 5.41478C32.2254 5.41478 38.1695 11.3585 38.1695 18.6646C38.1695 23.6148 35.4401 27.9392 31.4073 30.2138H18.4316C14.3991 27.9392 11.6694 23.6148 11.6694 18.6646Z" fill="#541DF8"/>
<path d="M18.4361 27.8858L24.9196 25.5938L31.4031 27.8858L31.2266 21.0114L35.4099 15.5534L28.8177 13.5968L24.9196 7.93175L21.0216 13.5968L14.429 15.5534L18.6127 21.011L18.4361 27.8858ZM27.1369 15.9099L30.8869 17.0232L28.5071 20.1277L28.6074 24.0384L24.9196 22.7346L21.2315 24.0384L21.3318 20.1277L18.952 17.0232L22.7023 15.9099L24.9196 12.6875L27.1369 15.9099Z" fill="#541DF8"/>
</g>
<defs>
<clipPath id="clip0">
<rect width="46" height="46" fill="white" transform="translate(2 2)"/>
</clipPath>
</defs>
</svg>
