<svg width="30" height="30" viewBox="0 0 30 30" fill="none" xmlns="http://www.w3.org/2000/svg">
<g clip-path="url(#clip0)">
<path d="M29.8713 19.1528C27.243 14.0279 21.5227 9.375 15.0005 9.375C8.43246 9.375 2.72883 14.0846 0.129611 19.1528C-0.0425374 19.4885 -0.0425374 19.8865 0.129611 20.2223C2.75795 25.3471 8.47822 30 15.0005 30C22.3856 30 27.8294 24.2038 29.8713 20.2222C30.0435 19.8865 30.0435 19.4885 29.8713 19.1528ZM15.0005 27.6562C9.68156 27.6562 5.21684 24.1226 2.52258 19.6875C5.18701 15.3015 9.6375 11.7188 15.0005 11.7188C20.3405 11.7188 24.7992 15.2774 27.4784 19.6875C24.7717 24.1429 20.2891 27.6562 15.0005 27.6562ZM0.369787 6.51398C0.802795 6.03299 1.54383 5.9942 2.02483 6.42727L4.63483 8.77728C5.11576 9.21041 5.15461 9.95133 4.72154 10.4323C4.28848 10.9134 3.54744 10.9521 3.06651 10.519L0.456506 8.16897C-0.0244319 7.73596 -0.0632796 6.99498 0.369787 6.51398ZM13.8286 5.85938V1.17188C13.8286 0.524707 14.3532 0 15.0005 0C15.6477 0 16.1723 0.524707 16.1723 1.17188V5.85938C16.1723 6.50654 15.6477 7.03125 15.0005 7.03125C14.3532 7.03125 13.8286 6.50654 13.8286 5.85938ZM6.39891 3.24932C6.13565 2.65805 6.40154 1.96535 6.99281 1.70209C7.58414 1.43883 8.27678 1.70473 8.54004 2.296L10.3322 6.32139C10.5955 6.9126 10.3296 7.60535 9.73834 7.86861C9.14877 8.13105 8.45526 7.86779 8.19111 7.27471L6.39891 3.24932ZM25.2794 10.4323C24.8463 9.95139 24.8851 9.21041 25.3661 8.77728L27.9761 6.42727C28.4571 5.9942 29.1981 6.03299 29.6312 6.51398C30.0642 6.99492 30.0254 7.7359 29.5444 8.16897L26.9344 10.519C26.4533 10.9522 25.7124 10.9132 25.2794 10.4323ZM19.6686 6.32139L21.4608 2.296C21.7241 1.70473 22.4168 1.43883 23.0081 1.70209C23.5993 1.96535 23.8652 2.65805 23.602 3.24932L21.8098 7.27465C21.5453 7.86861 20.8512 8.13064 20.2625 7.86861C19.6713 7.60535 19.4054 6.91266 19.6686 6.32139ZM15.0005 13.9307C11.8262 13.9307 9.24363 16.5132 9.24363 19.6875C9.24363 22.8618 11.8262 25.4443 15.0005 25.4443C18.1748 25.4443 20.7573 22.8618 20.7573 19.6875C20.7573 16.5132 18.1748 13.9307 15.0005 13.9307ZM15.0005 23.1006C13.1185 23.1006 11.5874 21.5695 11.5874 19.6875C11.5874 17.8055 13.1185 16.2744 15.0005 16.2744C16.8824 16.2744 18.4136 17.8055 18.4136 19.6875C18.4136 21.5695 16.8824 23.1006 15.0005 23.1006Z" fill="url(#paint0_linear)"/>
</g>
<defs>
<linearGradient id="paint0_linear" x1="220" y1="15" x2="-22.5" y2="15" gradientUnits="userSpaceOnUse">
<stop stop-color="#280597"/>
<stop offset="1" stop-color="#541DF8"/>
</linearGradient>
<clipPath id="clip0">
<rect width="30" height="30" fill="white"/>
</clipPath>
</defs>
</svg>
