<svg width="369" height="291" viewBox="0 0 369 291" fill="none" xmlns="http://www.w3.org/2000/svg">
<path opacity="0.06" d="M107.859 390.844C132.168 426.744 182.016 444.196 222.653 445.477C263.29 446.759 294.386 416.482 334.673 416.435C369.232 416.116 411.392 442.675 445.951 442.355C516.501 441.785 574.547 407.189 597.623 352.572C605.437 333.935 609.512 311.843 600.874 289.8C586.239 253.05 542.184 225.386 501.802 211.663C461.421 197.939 419.734 192.675 379.194 175.666C342.584 160.156 308.536 135.591 276.461 110.464C244.387 85.338 213.219 58.2883 178.789 37.6379C143.293 15.6258 103.819 -0.0209644 68.5439 0.264145C32.5529 0.515128 1.81086 20.681 1.07623 52.765C-0.53323 81.5299 20.5782 113.344 42.0717 141.244C64.2813 169.178 88.6389 197.214 97.4034 227.784C105.643 256.363 98.3216 282.233 94.5803 308.275C90.1229 334.282 89.4044 363.745 107.859 390.844Z" fill="url(#paint0_linear)"/>
<defs>
<linearGradient id="paint0_linear" x1="163.145" y1="179.179" x2="174.749" y2="22.5508" gradientUnits="userSpaceOnUse">
<stop stop-color="white"/>
<stop offset="1" stop-color="white" stop-opacity="0"/>
</linearGradient>
</defs>
</svg>
