<svg width="193" height="271" viewBox="0 0 193 271" fill="none" xmlns="http://www.w3.org/2000/svg">
<path d="M91.5114 25.5978C123.42 22.9528 146.536 36.8347 164.248 59.4915C181.961 82.1483 193.07 71.2864 211.326 57.6444C233.659 40.9637 282.545 54.6292 293.432 81.6302C302.152 103.272 293.803 134.323 261.882 142.467C231.254 150.321 205.413 163.126 193.911 187.135C182.401 211.169 171.806 237.168 141.475 239.241C118.015 240.842 103.453 222.214 107.537 199.054C111.671 175.606 101.814 165.877 84.9523 158.447C68.0907 151.016 54.2016 145.871 44.2423 132.392C34.2897 118.887 29.0224 103.352 33.2037 78.4103C37.3851 53.4686 59.6029 28.2428 91.5114 25.5978Z" fill="url(#paint0_linear)"/>
<defs>
<linearGradient id="paint0_linear" x1="24.9972" y1="103.007" x2="236.332" y2="239.432" gradientUnits="userSpaceOnUse">
<stop stop-color="#541DF8"/>
<stop offset="1" stop-color="#280597"/>
</linearGradient>
</defs>
</svg>
