<svg width="229" height="62" viewBox="0 0 229 62" fill="none" xmlns="http://www.w3.org/2000/svg">
<g clip-path="url(#clip0)">
<path d="M61.148 37.8998C59.609 37.8998 58.2712 37.5543 57.131 36.8669C55.9909 36.1795 55.0978 35.2464 54.4519 34.0711V45.5216H49.4642V17.8516H53.8165V21.2316C54.5366 20.0812 55.4649 19.173 56.6086 18.5105C57.7488 17.8481 59.0654 17.5168 60.5515 17.5168C61.8646 17.5168 63.0824 17.7875 64.1978 18.3253C65.3133 18.8631 66.2734 19.5897 67.0817 20.5015C67.8865 21.4168 68.5219 22.4924 68.9808 23.7318C69.4397 24.9712 69.6691 26.2783 69.6691 27.6567C69.6691 29.0849 69.4573 30.424 69.0373 31.6741C68.6137 32.9278 68.0277 34.0141 67.2688 34.9401C66.5134 35.8661 65.6133 36.5927 64.572 37.1162C63.5307 37.6362 62.3905 37.8998 61.148 37.8998ZM59.4749 33.6188C60.2197 33.6188 60.908 33.4549 61.5398 33.1308C62.1717 32.8067 62.7118 32.3686 63.1601 31.8166C63.6048 31.2681 63.9543 30.627 64.2014 29.9005C64.4485 29.1739 64.572 28.4224 64.572 27.6495C64.572 26.8233 64.4343 26.054 64.1625 25.3416C63.8907 24.6293 63.513 24.0096 63.0259 23.4825C62.5423 22.9554 61.9705 22.5422 61.3139 22.2431C60.6574 21.9439 59.9443 21.7907 59.1748 21.7907C58.7018 21.7907 58.2182 21.8727 57.7241 22.0365C57.2263 22.2003 56.7675 22.4318 56.3474 22.731C55.9238 23.0302 55.5461 23.3828 55.2108 23.7817C54.8755 24.1841 54.6213 24.6222 54.4483 25.0959V29.7153C54.8931 30.8407 55.5779 31.7739 56.4957 32.5111C57.417 33.2519 58.4089 33.6188 59.4749 33.6188Z" fill="#2B2B2B"/>
<path d="M78.3775 37.8989C77.435 37.8989 76.5525 37.7422 75.7371 37.4288C74.9182 37.1154 74.2122 36.6773 73.6157 36.1146C73.0191 35.5519 72.5567 34.893 72.2214 34.145C71.8861 33.3971 71.7202 32.5673 71.7202 31.6662C71.7202 30.7402 71.9249 29.8818 72.3344 29.0947C72.7438 28.3076 73.3157 27.638 74.0463 27.086C74.777 26.5339 75.6524 26.103 76.669 25.7896C77.6856 25.4761 78.8011 25.3194 80.0189 25.3194C80.8872 25.3194 81.7379 25.3942 82.5674 25.5438C83.3969 25.6934 84.1347 25.9071 84.7807 26.1813V25.0559C84.7807 23.7559 84.4136 22.7515 83.6829 22.0535C82.9522 21.3518 81.865 21.0028 80.4283 21.0028C79.387 21.0028 78.3704 21.1916 77.3785 21.5655C76.3866 21.9395 75.37 22.4915 74.3287 23.2181L72.8038 20.0269C75.31 18.3494 78.0139 17.5125 80.9155 17.5125C83.7182 17.5125 85.8961 18.207 87.4457 19.596C88.9953 20.985 89.7719 22.9937 89.7719 25.6222V31.741C89.7719 32.2681 89.8637 32.642 90.0507 32.8664C90.2378 33.0908 90.5414 33.2155 90.9614 33.2404V37.5214C90.1178 37.6959 89.3871 37.785 88.7659 37.785C87.8234 37.785 87.0962 37.5713 86.5879 37.1474C86.0796 36.7236 85.762 36.1573 85.6384 35.4593L85.5255 34.3694C84.6571 35.5198 83.6017 36.396 82.3627 36.9979C81.1167 37.5998 79.7894 37.8989 78.3775 37.8989ZM79.7894 34.2198C80.6331 34.2198 81.4308 34.0702 82.1897 33.7675C82.9451 33.4683 83.5346 33.0659 83.9582 32.5673C84.5018 32.1434 84.7771 31.6662 84.7771 31.1391V28.8846C84.1806 28.6602 83.5346 28.4786 82.8428 28.3397C82.1474 28.2079 81.4767 28.1366 80.8343 28.1366C79.5459 28.1366 78.4904 28.4323 77.6715 29.0199C76.8526 29.6076 76.4431 30.352 76.4431 31.253C76.4431 32.1042 76.7643 32.813 77.4103 33.3757C78.0527 33.9385 78.847 34.2198 79.7894 34.2198Z" fill="#2B2B2B"/>
<path d="M106.097 37.8988C104.558 37.8988 103.221 37.5533 102.08 36.8659C100.94 36.1786 100.047 35.2454 99.4013 34.0701V45.5206H94.4136V17.8507H98.7659V21.2306C99.486 20.0802 100.414 19.172 101.558 18.5096C102.698 17.8471 104.015 17.5159 105.501 17.5159C106.814 17.5159 108.032 17.7865 109.147 18.3243C110.263 18.8621 111.223 19.5887 112.031 20.5005C112.836 21.4158 113.471 22.4914 113.93 23.7308C114.389 24.9703 114.619 26.2774 114.619 27.6557C114.619 29.0839 114.407 30.423 113.987 31.6732C113.563 32.9268 112.977 34.0131 112.218 34.9391C111.463 35.8651 110.563 36.5917 109.521 37.1152C108.48 37.6352 107.34 37.8988 106.097 37.8988ZM104.424 33.6178C105.169 33.6178 105.857 33.4539 106.489 33.1298C107.121 32.8057 107.661 32.3677 108.109 31.8156C108.554 31.2671 108.904 30.626 109.151 29.8995C109.398 29.1729 109.521 28.4214 109.521 27.6486C109.521 26.8223 109.384 26.053 109.112 25.3407C108.84 24.6283 108.462 24.0086 107.975 23.4815C107.492 22.9544 106.92 22.5413 106.263 22.2421C105.607 21.9429 104.894 21.7898 104.124 21.7898C103.651 21.7898 103.168 21.8717 102.673 22.0355C102.176 22.1993 101.717 22.4309 101.297 22.73C100.873 23.0292 100.496 23.3818 100.16 23.7807C99.8249 24.1831 99.5707 24.6212 99.3977 25.0949V29.7143C99.8425 30.8397 100.527 31.7729 101.445 32.5101C102.363 33.2509 103.358 33.6178 104.424 33.6178Z" fill="#2B2B2B"/>
<path d="M127.047 37.8989C125.483 37.8989 124.071 37.6282 122.804 37.0904C121.541 36.5526 120.46 35.8189 119.567 34.8929C118.674 33.9669 117.986 32.8913 117.502 31.6625C117.019 30.4373 116.775 29.148 116.775 27.7946C116.775 26.3914 117.012 25.0736 117.481 23.8342C117.951 22.5947 118.635 21.5049 119.528 20.5682C120.422 19.6279 121.505 18.8836 122.783 18.3351C124.061 17.7866 125.494 17.5088 127.082 17.5088C128.671 17.5088 130.09 17.783 131.343 18.3351C132.596 18.8871 133.662 19.6244 134.544 20.5504C135.423 21.4764 136.094 22.552 136.553 23.7807C137.012 25.0059 137.241 26.2845 137.241 27.6094C137.241 27.9335 137.234 28.247 137.224 28.5497C137.21 28.8489 137.181 29.1017 137.132 29.3012H122.063C122.137 30.0776 122.324 30.765 122.621 31.3669C122.917 31.9688 123.302 32.4817 123.775 32.9055C124.244 33.3329 124.781 33.657 125.374 33.8814C125.97 34.1058 126.588 34.2197 127.234 34.2197C128.226 34.2197 129.161 33.974 130.044 33.486C130.923 32.9981 131.526 32.3535 131.848 31.5521L136.126 32.7524C135.406 34.2554 134.259 35.4877 132.684 36.4493C131.11 37.418 129.229 37.8989 127.047 37.8989ZM132.109 26.0352C131.985 24.5572 131.445 23.3747 130.489 22.4879C129.532 21.601 128.374 21.1559 127.008 21.1559C126.338 21.1559 125.713 21.2734 125.13 21.512C124.548 21.7506 124.033 22.0819 123.588 22.5057C123.14 22.9331 122.776 23.4459 122.49 24.0443C122.204 24.6462 122.038 25.3087 121.989 26.0352H132.109Z" fill="#2B2B2B"/>
<path d="M151.905 22.2066C150.39 22.2316 149.038 22.5272 147.849 23.0899C146.659 23.6526 145.801 24.4967 145.283 25.6257V37.5285H140.295V17.8508H144.873V22.057C145.219 21.3803 145.628 20.7749 146.101 20.2371C146.571 19.6993 147.083 19.2291 147.626 18.8302C148.17 18.4314 148.724 18.1251 149.282 17.9114C149.84 17.6977 150.38 17.5908 150.902 17.5908C151.174 17.5908 151.379 17.5908 151.516 17.5908C151.654 17.5908 151.781 17.6051 151.908 17.63V22.2066H151.905Z" fill="#2B2B2B"/>
<path d="M161.354 37.6352C160.037 37.6352 158.848 37.3717 157.782 36.8481C156.716 36.321 155.791 35.6016 155.011 34.6898C154.231 33.778 153.627 32.7202 153.207 31.5164C152.783 30.3162 152.575 29.0376 152.575 27.6877C152.575 26.2595 152.798 24.9346 153.246 23.7095C153.694 22.4843 154.312 21.4051 155.106 20.4791C155.9 19.5531 156.853 18.8265 157.972 18.303C159.088 17.7759 160.316 17.5159 161.657 17.5159C163.172 17.5159 164.499 17.8613 165.639 18.5487C166.779 19.2361 167.722 20.1586 168.467 21.309V17.8542H172.819V36.5881C172.819 38.0377 172.547 39.3412 172 40.4916C171.453 41.642 170.705 42.6179 169.748 43.4192C168.791 44.2206 167.651 44.8332 166.324 45.2606C164.997 45.6844 163.553 45.8981 161.989 45.8981C159.857 45.8981 158.064 45.5419 156.613 44.8296C155.163 44.1173 153.916 43.1094 152.875 41.8058L155.593 39.1418C156.338 40.0678 157.273 40.7943 158.403 41.3179C159.533 41.845 160.729 42.105 161.993 42.105C162.762 42.105 163.5 41.9982 164.206 41.7845C164.912 41.5708 165.54 41.2395 166.084 40.7908C166.628 40.342 167.058 39.7651 167.369 39.0634C167.679 38.3618 167.835 37.5355 167.835 36.5846V34.1057C167.189 35.2312 166.285 36.1002 165.117 36.7163C163.948 37.3289 162.695 37.6352 161.354 37.6352ZM163.031 33.6178C163.574 33.6178 164.097 33.5287 164.594 33.3542C165.089 33.1797 165.547 32.9411 165.971 32.6419C166.391 32.3427 166.765 31.9901 167.086 31.5912C167.408 31.1923 167.658 30.7649 167.831 30.3162V25.622C167.383 24.4716 166.684 23.5456 165.727 22.844C164.771 22.1424 163.775 21.7933 162.731 21.7933C161.961 21.7933 161.266 21.9607 160.648 22.2991C160.027 22.6374 159.494 23.0862 159.049 23.6489C158.601 24.2116 158.262 24.8563 158.025 25.5828C157.789 26.3094 157.672 27.0609 157.672 27.8338C157.672 28.6351 157.806 29.3866 158.082 30.0882C158.354 30.7899 158.731 31.4025 159.218 31.9296C159.702 32.4567 160.267 32.8698 160.913 33.169C161.552 33.4682 162.261 33.6178 163.031 33.6178Z" fill="#2B2B2B"/>
<path d="M177.725 41.3536C178.145 41.4783 178.555 41.5709 178.953 41.635C179.349 41.6955 179.684 41.7276 179.959 41.7276C180.281 41.7276 180.581 41.6635 180.852 41.5388C181.124 41.4141 181.375 41.1933 181.597 40.8835C181.82 40.57 182.046 40.1391 182.268 39.5871C182.49 39.035 182.727 38.3476 182.974 37.5213L175.272 17.8472H180.408L185.692 33.1655L190.38 17.8472H195.067L186.881 41.4248C186.412 42.7996 185.604 43.9286 184.464 44.8048C183.323 45.6809 181.908 46.119 180.221 46.119C179.822 46.119 179.419 46.0869 179.01 46.0264C178.6 45.9623 178.173 45.859 177.725 45.7058V41.3536Z" fill="#2B2B2B"/>
<path d="M228.072 37.5248H223.084V26.4839C223.084 24.9061 222.816 23.7558 222.283 23.0292C221.75 22.3026 221.012 21.9394 220.069 21.9394C219.078 21.9394 218.146 22.3204 217.277 23.0826C216.409 23.8448 215.788 24.842 215.417 26.0672V37.5177H210.429V26.4839C210.429 24.9061 210.161 23.7558 209.628 23.0292C209.095 22.3026 208.357 21.9394 207.415 21.9394C206.448 21.9394 205.523 22.3133 204.644 23.0648C203.761 23.8163 203.137 24.8064 202.766 26.0316V37.5213H197.778V17.8507H202.279V21.4942C202.999 20.2191 203.984 19.2361 205.237 18.5487C206.49 17.8613 207.923 17.5159 209.533 17.5159C211.171 17.5159 212.434 17.9183 213.327 18.7161C214.22 19.5175 214.792 20.5076 215.039 21.6829C215.834 20.3331 216.836 19.3002 218.054 18.5843C219.268 17.872 220.659 17.5159 222.223 17.5159C223.412 17.5159 224.394 17.7402 225.163 18.1926C225.933 18.6413 226.526 19.2326 226.949 19.9556C227.369 20.6821 227.662 21.5084 227.825 22.4344C227.987 23.3604 228.068 24.3007 228.068 25.2516V37.5248H228.072Z" fill="#2B2B2B"/>
<path d="M0.0211792 12.4691L0 0L35.6057 16.3334C35.6057 16.3334 40.2192 18.1356 39.4074 23.5278C38.599 28.92 35.2527 31.1603 35.2527 31.1603L19.5766 42.3792L19.4213 54.8911L9.09292 62.0035L9.6224 37.304L26.714 25.0023L0.0211792 12.4691Z" fill="#F9233E"/>
</g>
<defs>
<clipPath id="clip0">
<rect width="228.071" height="62" fill="white"/>
</clipPath>
</defs>
</svg>
