<svg width="18" height="18" viewBox="0 0 18 18" fill="none" xmlns="http://www.w3.org/2000/svg">
<path fill-rule="evenodd" clip-rule="evenodd" d="M17.0304 0.882264C17.2342 1.08506 17.3032 1.38611 17.208 1.65681L11.958 16.5884C11.8564 16.8774 11.5879 17.0753 11.2807 17.0878C10.9734 17.1002 10.6896 16.9247 10.5648 16.645L7.68191 10.1882L1.19552 7.31848C0.914511 7.19415 0.738214 6.91167 0.750749 6.60581C0.763285 6.29995 0.962112 6.0327 1.25236 5.93158L16.2523 0.705509C16.5243 0.610764 16.8267 0.679464 17.0304 0.882264ZM9.14467 9.78791L11.1672 14.3178L14.7065 4.25143L9.14467 9.78791ZM13.6458 3.1956L3.53343 6.71882L8.08401 8.73208L13.6458 3.1956Z" fill="white"/>
</svg>
