<svg width="187" height="177" viewBox="0 0 187 177" fill="none" xmlns="http://www.w3.org/2000/svg">
<path d="M109.748 156.895C92.2122 153.416 81.9338 142.415 75.9032 127.533C69.8726 112.65 62.2416 116.776 50.3464 121.297C35.7963 126.823 11.6504 111.982 9.95116 95.8154C8.59248 82.8585 17.841 67.4709 36.2279 67.999C53.8761 68.4847 69.7143 65.5778 79.5753 54.4548C89.4438 43.319 99.1233 30.9884 115.724 34.5319C128.564 37.2743 133.522 49.5101 127.774 61.3162C121.955 73.2695 125.753 80.0058 133.664 86.5831C141.576 93.1605 148.242 98.055 151.519 106.82C154.789 115.598 155.232 124.747 149.158 137.494C143.084 150.242 127.284 160.373 109.748 156.895Z" fill="url(#paint0_linear)"/>
<defs>
<linearGradient id="paint0_linear" x1="157.339" y1="125.55" x2="64.8301" y2="19.8672" gradientUnits="userSpaceOnUse">
<stop stop-color="#541DF8"/>
<stop offset="1" stop-color="#280597"/>
</linearGradient>
</defs>
</svg>
