<svg width="92" height="139" viewBox="0 0 92 139" fill="none" xmlns="http://www.w3.org/2000/svg">
<path d="M83.9957 0.73627C72.6414 -0.257884 57.3299 11.8559 55.2158 35.2492C53.8801 50.0293 47.0234 63.487 28.7211 71.3308C13.4956 77.856 -0.442359 89.8074 0.831886 108.284C2.22634 128.504 18.7659 137.283 42.6296 137.114C66.4932 136.945 71.73 122.838 83.9957 132.507C97.0109 142.749 106.302 139.035 114.155 130.86C118.75 126.073 128.061 110.65 123.538 92.8653C118.292 72.2272 103.423 66.1897 103.34 36.9943C103.261 9.23577 97.198 1.89454 83.9957 0.73627Z" fill="url(#paint0_linear)"/>
<defs>
<linearGradient id="paint0_linear" x1="117.261" y1="46.3369" x2="12.7177" y2="140.615" gradientUnits="userSpaceOnUse">
<stop stop-color="#541DF8"/>
<stop offset="1" stop-color="#280597"/>
</linearGradient>
</defs>
</svg>
