<svg width="143" height="146" viewBox="0 0 143 146" fill="none" xmlns="http://www.w3.org/2000/svg">
<path d="M60.4053 12.4097C46.1282 26.3623 48.0215 45.291 50.9459 62.8211C53.8703 80.3512 35.885 89.1943 22.2617 92.2581C5.59988 96.009 -4.89224 114.14 2.7856 130.218C8.94206 143.102 26.3304 151.765 43.0861 140.037C59.1805 128.8 75.538 121.825 91.0533 126.146C106.583 130.475 122.621 136.03 135.994 122.589C146.336 112.191 143.931 97.7783 131.84 90.3084C119.599 82.7446 119.267 74.1568 122.841 63.2033C126.416 52.2497 129.798 43.6226 127.821 33.4659C125.83 23.3019 121.004 14.5206 108.072 6.37343C95.1398 -1.77373 74.6823 -1.54289 60.4053 12.4097Z" fill="url(#paint0_linear)"/>
<defs>
<linearGradient id="paint0_linear" x1="0.251166" y1="135.249" x2="85.4081" y2="-11.9534" gradientUnits="userSpaceOnUse">
<stop stop-color="#F37B02"/>
<stop offset="1" stop-color="#FCAC1B"/>
</linearGradient>
</defs>
</svg>
