<svg width="441" height="819" viewBox="0 0 441 819" fill="none" xmlns="http://www.w3.org/2000/svg">
<path opacity="0.04" d="M599.793 740.312C507.949 739.715 445.451 694.144 400.633 624.884C355.815 555.623 276.618 590 221.618 609.5C150.618 634.673 68.3226 605.428 44.1177 525.5C24.7345 461.437 49.597 377.97 142.883 362.857C232.399 348.244 309.503 318.263 348.504 252.605C387.53 186.876 424.448 115.301 511.636 117.129C579.076 118.552 615.922 175.496 598.332 240.624C580.529 306.563 606.206 336.879 652.484 362.418C698.762 387.956 737.13 406.206 762.141 447.264C787.126 488.392 798.205 534.125 779.884 604.319C761.564 674.513 691.637 740.909 599.793 740.312Z" fill="url(#paint0_linear)"/>
<defs>
<linearGradient id="paint0_linear" x1="803.764" y1="511.739" x2="40.6408" y2="288.963" gradientUnits="userSpaceOnUse">
<stop stop-color="#541DF8"/>
<stop stop-color="#541DF8"/>
<stop offset="0.0001" stop-color="#541DF8"/>
<stop offset="1" stop-color="#280597"/>
</linearGradient>
</defs>
</svg>
