<svg width="137" height="133" viewBox="0 0 137 133" fill="none" xmlns="http://www.w3.org/2000/svg">
<path d="M2.94979 10.3793C-2.61024 20.3289 2.16471 39.2599 22.6368 50.7753C35.5714 58.0509 45.0371 69.8205 44.6914 89.7298C44.4038 106.292 49.5934 123.904 66.9694 130.313C85.9846 137.328 100.771 125.839 110.397 104.002C120.022 82.1651 109.301 71.6072 123.146 64.381C137.823 56.7065 138.243 46.7094 134.004 36.1959C131.521 30.0424 121.268 15.2285 103.192 12.0662C82.2169 8.39306 70.616 19.4823 43.9509 7.59299C18.5982 -3.71114 9.41686 -1.1888 2.94979 10.3793Z" fill="url(#paint0_linear)"/>
<defs>
<linearGradient id="paint0_linear" x1="58.1778" y1="-1.27601" x2="101.332" y2="132.721" gradientUnits="userSpaceOnUse">
<stop stop-color="#541DF8"/>
<stop offset="1" stop-color="#280597"/>
</linearGradient>
</defs>
</svg>
