<svg width="175" height="137" viewBox="0 0 175 137" fill="none" xmlns="http://www.w3.org/2000/svg">
<path d="M28.0836 123.904C47.9126 131.482 62 118.5 79 113.5C96 108.5 107.478 112.111 116.5 123.904C127.538 138.326 155.392 141.687 167.502 127.116C177.204 115.436 177.831 94.7877 159.047 83.8258C141.032 73.284 127.016 60.5912 124.283 43.684C121.552 26.7598 119.779 8.79831 100.846 1.86645C86.2008 -3.49365 73.3523 5.24337 71.5197 20.245C69.6632 35.4331 61.5175 39.5762 49.3483 40.9995C37.1791 42.4227 27.3419 42.9956 18.413 49.4256C9.48349 55.8725 3.15106 64.4417 1.03872 80.5568C-1.07361 96.672 8.25452 116.326 28.0836 123.904Z" fill="url(#paint0_linear)"/>
<defs>
<linearGradient id="paint0_linear" x1="0.54531" y1="63.2112" x2="160.039" y2="14.9627" gradientUnits="userSpaceOnUse">
<stop stop-color="#541DF8"/>
<stop offset="1" stop-color="#280597"/>
</linearGradient>
</defs>
</svg>
