<?xml version="1.0" encoding="utf-8"?>
<!-- Generator: Adobe Illustrator 23.0.5, SVG Export Plug-In . SVG Version: 6.00 Build 0)  -->
<svg version="1.1" id="Layer_1" xmlns="http://www.w3.org/2000/svg" xmlns:xlink="http://www.w3.org/1999/xlink" x="0px" y="0px"
	 viewBox="0 0 441 819" style="enable-background:new 0 0 441 819;" xml:space="preserve">
<style type="text/css">
	.st0{opacity:4.000000e-02;fill:url(#SVGID_1_);enable-background:new    ;}
</style>
<linearGradient id="SVGID_1_" gradientUnits="userSpaceOnUse" x1="805.8076" y1="315.2616" x2="42.6845" y2="538.0375" gradientTransform="matrix(1 0 0 -1 0 820)">
	<stop  offset="0" style="stop-color:#541DF8"/>
	<stop  offset="0" style="stop-color:#541DF8"/>
	<stop  offset="1.000000e-04" style="stop-color:#541DF8"/>
	<stop  offset="1" style="stop-color:#280597"/>
</linearGradient>
<path class="st0" d="M599.8,740.3c-91.8-0.6-154.3-46.2-199.2-115.4c-44.8-69.3-124-34.9-179-15.4c-71,25.2-153.3-4.1-177.5-84
	c-19.4-64.1,5.5-147.5,98.8-162.6c89.5-14.6,166.6-44.6,205.6-110.3c39-65.7,75.9-137.3,163.1-135.5c67.4,1.4,104.3,58.4,86.7,123.5
	c-17.8,65.9,7.9,96.3,54.2,121.8c46.3,25.5,84.6,43.8,109.7,84.8c25,41.1,36.1,86.9,17.7,157.1C761.6,674.5,691.6,740.9,599.8,740.3
	z"/>
</svg>
