<svg width="50" height="50" viewBox="0 0 50 50" fill="none" xmlns="http://www.w3.org/2000/svg">
<path d="M6.90334 33.7429C7.1315 33.9245 7.41458 34.0234 7.70625 34.0234H17.5547V43.1328C17.5547 45.2652 19.2895 47 21.4219 47C23.5542 47 25.2891 45.2652 25.2891 43.1328V41.7578H38.2656V43.1328C38.2656 45.2652 40.0004 47 42.1328 47C44.2652 47 46 45.2652 46 43.1328V32.7344C46 30.602 44.2652 28.8672 42.1328 28.8672C40.0004 28.8672 38.2656 30.602 38.2656 32.7344V34.0234H25.2891V32.7344C25.2891 32.3574 25.2338 31.9932 25.1327 31.6484C26.8973 29.406 27.8672 26.5963 27.8672 23.7109C27.8672 19.5681 25.9326 15.8107 22.7109 13.3889V10.8203C22.7109 6.53074 19.2372 3 14.9766 3C10.7184 3 7.24219 6.52782 7.24219 10.8203V13.3666C4.06302 15.7183 2 19.4797 2 23.7109C2 27.6055 3.78716 31.2619 6.90334 33.7429ZM22.7109 43.1328C22.7109 43.8436 22.1327 44.4219 21.4219 44.4219C20.7111 44.4219 20.1328 43.8436 20.1328 43.1328V32.7344C20.1328 32.0236 20.7111 31.4453 21.4219 31.4453C22.1327 31.4453 22.7109 32.0236 22.7109 32.7344V43.1328ZM40.8438 32.7344C40.8438 32.0236 41.422 31.4453 42.1328 31.4453C42.8436 31.4453 43.4219 32.0236 43.4219 32.7344V43.1328C43.4219 43.8436 42.8436 44.4219 42.1328 44.4219C41.422 44.4219 40.8438 43.8436 40.8438 43.1328V32.7344ZM38.2656 36.6016V39.1797H25.2891V36.6016H38.2656ZM9.82031 10.8203C9.82031 7.92972 12.1334 5.57812 14.9766 5.57812C17.8197 5.57812 20.1328 7.92972 20.1328 10.8203V11.8859C18.5286 11.1878 16.7815 10.8203 14.9766 10.8203C13.1452 10.8203 11.4016 11.1999 9.82031 11.8828V10.8203ZM14.9766 13.3984C20.6629 13.3984 25.2891 18.0246 25.2891 23.7109C25.2891 25.8151 24.6807 27.7956 23.522 29.4897C22.9168 29.0966 22.1958 28.8672 21.4219 28.8672C19.7414 28.8672 18.3085 29.945 17.7764 31.4453H8.17091C5.88188 29.4675 4.57812 26.6727 4.57812 23.7109C4.57812 18.0505 9.21738 13.3984 14.9766 13.3984Z" fill="#541DF8"/>
<path d="M14.9766 28.8672C17.8197 28.8672 20.1328 26.5541 20.1328 23.7109C20.1328 20.8678 17.8197 18.5547 14.9766 18.5547C12.1334 18.5547 9.82031 20.8678 9.82031 23.7109C9.82031 26.5541 12.1334 28.8672 14.9766 28.8672ZM14.9766 21.1328C16.3981 21.1328 17.5547 22.2894 17.5547 23.7109C17.5547 25.1325 16.3981 26.2891 14.9766 26.2891C13.555 26.2891 12.3984 25.1325 12.3984 23.7109C12.3984 22.2894 13.555 21.1328 14.9766 21.1328Z" fill="#541DF8"/>
</svg>
