<svg width="30" height="29" viewBox="0 0 30 29" fill="none" xmlns="http://www.w3.org/2000/svg">
<path d="M26.9737 21.3855C26.2214 20.5572 25.1472 20.0822 24.0264 20.0822C23.6041 20.0822 22.9736 20.2394 22.8516 20.2707L22.8146 20.2804L22.7865 20.2905V14.8543C22.7865 12.1972 20.7693 10.0011 18.1806 9.70447C19.0865 8.77997 19.6456 7.51702 19.6456 6.12595C19.6456 3.29951 17.3373 1 14.5 1C11.6627 1 9.35415 3.29951 9.35415 6.12595C9.35415 7.51702 9.91351 8.77997 10.8194 9.70447C8.23069 10.0011 6.2135 12.1972 6.2135 14.8543V20.2905L6.18538 20.2804L6.14837 20.2707C6.02616 20.2394 5.39587 20.0822 4.97362 20.0822C3.85285 20.0822 2.7786 20.5572 2.02611 21.3855C1.27444 22.2132 0.907606 23.3289 1.01989 24.4466C1.11977 25.4401 1.6144 26.3521 2.41259 27.0145C3.17852 27.65 4.15248 28 5.15497 28H23.845C24.8475 28 25.8215 27.65 26.5874 27.0145C27.3856 26.3521 27.8802 25.4401 27.9801 24.4466C28.0924 23.3289 27.7256 22.2132 26.9737 21.3855ZM14.5 2.58203C16.4616 2.58203 18.0575 4.17189 18.0575 6.12595C18.0575 8.08021 16.4616 9.67007 14.5 9.67007C12.5382 9.67007 10.9423 8.08021 10.9423 6.12595C10.9423 4.17189 12.5382 2.58203 14.5 2.58203ZM7.80161 14.8543C7.80161 12.8681 9.42384 11.2521 11.4177 11.2521H17.5821C19.5762 11.2521 21.1984 12.8681 21.1984 14.8543V20.8673L18.8046 21.7366V15.2863H17.2165V22.3131L14.5 23.2996L11.7835 22.3131V15.2863H10.1954V21.7366L7.80161 20.8673V14.8543ZM2.60014 24.289C2.53149 23.6053 2.74572 22.9511 3.20375 22.447C3.65557 21.9496 4.30074 21.6643 4.97362 21.6643C5.11485 21.6643 5.45915 21.7296 5.71474 21.7934L13.7059 24.6952V26.418H5.15497C3.8423 26.418 2.72008 25.4828 2.60014 24.289ZM26.3999 24.289C26.2799 25.4828 25.1577 26.418 23.845 26.418H15.2941V24.6952L23.2853 21.7934C23.5136 21.7366 23.8769 21.6643 24.0264 21.6643C24.6993 21.6643 25.3442 21.9496 25.7963 22.447C26.2543 22.9513 26.4685 23.6053 26.3999 24.289Z" fill="#541DF8"/>
</svg>
