<svg width="50" height="50" viewBox="0 0 50 50" fill="none" xmlns="http://www.w3.org/2000/svg">
<g clip-path="url(#clip0)">
<path d="M31.3786 26.4575L33.1157 26.75C33.8982 26.8811 34.6374 26.3479 34.7677 25.5576C34.8981 24.7673 34.3698 24.02 33.5877 23.8881L31.8506 23.5956C29.5273 23.2043 27.4189 22.1079 25.7535 20.4249C25.4843 20.1528 25.1192 20 24.7384 20C24.3576 20 23.9925 20.1528 23.7234 20.4249C22.058 22.1079 19.9495 23.2043 17.6262 23.5956L15.8892 23.8881C15.1071 24.0199 14.5789 24.7673 14.7092 25.5576C14.8263 26.2672 15.4344 26.77 16.1235 26.7699C16.2018 26.7699 16.2813 26.7634 16.3611 26.75L18.0982 26.4575C20.5614 26.0427 22.8324 24.9964 24.7384 23.4086C26.6443 24.9963 28.9153 26.0425 31.3786 26.4575Z" fill="#541DF8"/>
<path d="M38.4412 34.6445C37.0878 34.6445 35.7396 34.831 34.434 35.1987L33.3443 35.5057V32.5391H34.7344C37.5448 32.5391 39.8313 30.1778 39.8313 27.2754V25.3613C39.8313 19.2105 35.6476 14.0506 30.0647 12.7553C31.2387 11.4003 31.9542 9.61328 31.9542 7.65625C31.9542 3.43459 28.6284 0 24.5405 0C20.4526 0 17.1268 3.43459 17.1268 7.65625C17.1268 9.61328 17.8423 11.4003 19.0163 12.7553C13.4335 14.0506 9.24974 19.2105 9.24974 25.3613V27.2754C9.24974 30.1778 11.5362 32.5391 14.3467 32.5391H15.7367V35.5057L14.6471 35.1987C13.3415 34.831 11.9933 34.6445 10.6398 34.6445C6.80738 34.6445 3.68945 37.8645 3.68945 41.8223C3.68945 45.7801 6.80738 49 10.6398 49H38.4412C42.2736 49 45.3916 45.7801 45.3916 41.8223C45.3916 37.8645 42.2736 34.6445 38.4412 34.6445ZM24.5405 2.87109C27.0955 2.87109 29.1741 5.01771 29.1741 7.65625C29.1741 10.2948 27.0955 12.4414 24.5405 12.4414C21.9856 12.4414 19.9069 10.2948 19.9069 7.65625C19.9069 5.01771 21.9856 2.87109 24.5405 2.87109ZM12.0299 27.2754V25.3613C12.0299 19.8204 16.395 15.3125 21.7604 15.3125H27.3207C32.6861 15.3125 37.0512 19.8204 37.0512 25.3613V27.2754C37.0512 28.5947 36.0118 29.668 34.7344 29.668H30.662C28.7515 29.668 26.9013 29.0894 25.3116 27.9951C25.0781 27.8343 24.8094 27.7539 24.5406 27.7539C24.2719 27.7539 24.003 27.8343 23.7696 27.9951C22.1797 29.0894 20.3296 29.668 18.419 29.668H14.3467C13.0692 29.668 12.0299 28.5947 12.0299 27.2754ZM18.5169 32.5374C20.6406 32.5204 22.704 31.9494 24.5405 30.8743C26.3771 31.9495 28.4404 32.5204 30.5642 32.5374V36.2887L24.5406 37.9852L18.5169 36.2886V32.5374ZM10.6398 46.1289C8.34035 46.1289 6.46959 44.1969 6.46959 41.8223C6.46959 39.4476 8.34035 37.5156 10.6398 37.5156C11.7462 37.5156 12.8484 37.6681 13.9156 37.9687L30.1922 42.5529C30.9569 42.7682 31.491 43.4904 31.491 44.3088C31.491 45.3124 30.7004 46.1289 29.7285 46.1289H10.6398ZM38.4412 46.1289H33.9151C34.1441 45.5689 34.271 44.954 34.271 44.3088C34.271 42.1992 32.8945 40.3382 30.9236 39.7829L29.8238 39.4731L35.1656 37.9687C36.2328 37.6681 37.3349 37.5156 38.4412 37.5156C40.7407 37.5156 42.6114 39.4476 42.6114 41.8223C42.6114 44.1969 40.7407 46.1289 38.4412 46.1289Z" fill="#541DF8"/>
</g>
<defs>
<clipPath id="clip0">
<rect width="50" height="50" fill="white"/>
</clipPath>
</defs>
</svg>
