<svg width="503" height="535" viewBox="0 0 503 535" fill="none" xmlns="http://www.w3.org/2000/svg">
<ellipse opacity="0.1" cx="243.5" cy="427.5" rx="65.5" ry="107.5" fill="url(#paint0_radial)"/>
<path d="M282.037 262.024C271.292 260.622 260.013 259.821 248.334 259.821C236.721 259.821 225.375 260.556 214.63 262.024H115.523V327.113C115.523 364.297 174.987 394.405 248.334 394.405C321.68 394.405 381.145 364.297 381.145 327.113V262.024H282.037Z" fill="url(#paint1_linear)"/>
<g opacity="0.5">
<path d="M424.862 429.586L373.74 404.085C359.458 396.942 347.845 378.116 347.845 362.094V233.118H349.113V362.094C349.113 377.649 360.392 395.94 374.274 402.95L425.463 428.452L424.862 429.586Z" fill="url(#paint2_linear)"/>
<path d="M440.608 446.409L363.124 407.489C348.841 400.346 337.229 381.521 337.229 365.499V232.985H338.497V365.499C338.497 381.053 349.776 399.345 363.657 406.355L441.142 445.274L440.608 446.409Z" fill="url(#paint3_linear)"/>
<path d="M459.094 464.234L352.578 410.828C338.296 403.684 326.683 384.859 326.683 368.837V232.851H327.951V368.904C327.951 384.458 339.23 402.75 353.112 409.759L459.628 463.166L459.094 464.234Z" fill="url(#paint4_linear)"/>
<path d="M439.478 462.965L342.039 414.232C327.756 407.089 316.144 388.197 316.144 372.241V232.718H317.412V372.241C317.412 387.796 328.691 406.088 342.573 413.097L440.012 461.83L439.478 462.965Z" fill="url(#paint5_linear)"/>
<path d="M458.363 481.39L331.559 417.637C317.277 410.494 305.664 391.668 305.664 375.646V232.584H306.932V375.646C306.932 391.201 318.211 409.492 332.093 416.502L458.897 480.255L458.363 481.39Z" fill="url(#paint6_linear)"/>
<path d="M415.852 468.84L320.949 421.042C306.666 413.898 295.054 395.006 295.054 379.051V232.451H296.322V379.051C296.322 394.605 307.601 412.897 321.483 419.907L416.452 467.705L415.852 468.84Z" fill="url(#paint7_linear)"/>
<path d="M464.17 501.418L310.403 424.379C296.121 417.169 284.508 398.344 284.508 382.389V232.25H285.776V382.389C285.776 397.943 297.055 416.235 310.937 423.244L464.704 500.283L464.17 501.418Z" fill="url(#paint8_linear)"/>
<path d="M420.989 488.467L299.857 427.784C285.575 420.574 273.963 401.748 273.963 385.793V232.117H275.231V385.793C275.231 401.348 286.51 419.639 300.391 426.649L421.523 487.332L420.989 488.467Z" fill="url(#paint9_linear)"/>
<path d="M358.321 465.903L289.313 431.189C275.031 423.979 263.418 405.153 263.418 389.198V231.983H264.686V389.198C264.686 404.753 275.965 423.044 289.847 430.054L358.855 464.768L358.321 465.903Z" fill="url(#paint10_linear)"/>
<path d="M371.602 481.39L278.768 434.593C264.486 427.383 252.873 408.558 252.873 392.603V231.85H254.141V392.603C254.141 408.157 265.42 426.449 279.302 433.458L372.136 480.256L371.602 481.39Z" fill="url(#paint11_linear)"/>
<path d="M422.256 428.986C422.256 430.588 423.525 431.923 425.193 431.923C426.795 431.923 428.13 430.588 428.13 428.986C428.13 427.384 426.795 426.048 425.193 426.048C423.525 426.115 422.256 427.384 422.256 428.986Z" fill="#6DC8F2"/>
<path d="M438.009 445.808C438.009 447.411 439.343 448.746 440.945 448.746C442.547 448.746 443.882 447.411 443.882 445.808C443.882 444.206 442.547 442.871 440.945 442.871C439.277 442.938 438.009 444.206 438.009 445.808Z" fill="#6DC8F2"/>
<path d="M456.492 463.699C456.492 465.302 457.827 466.637 459.429 466.637C461.03 466.637 462.365 465.302 462.365 463.699C462.365 462.097 461.03 460.762 459.429 460.762C457.827 460.762 456.492 462.097 456.492 463.699Z" fill="#6DC8F2"/>
<path d="M436.874 462.431C436.874 464.033 438.209 465.368 439.811 465.368C441.412 465.368 442.747 464.033 442.747 462.431C442.747 460.829 441.412 459.494 439.811 459.494C438.142 459.494 436.874 460.829 436.874 462.431Z" fill="#6DC8F2"/>
<path d="M455.69 480.789C455.69 482.392 457.025 483.727 458.627 483.727C460.229 483.727 461.563 482.392 461.563 480.789C461.563 479.187 460.229 477.852 458.627 477.852C457.025 477.919 455.69 479.187 455.69 480.789Z" fill="#6DC8F2"/>
<path d="M413.249 468.239C413.249 469.842 414.583 471.177 416.185 471.177C417.787 471.177 419.122 469.842 419.122 468.239C419.122 466.637 417.787 465.302 416.185 465.302C414.583 465.369 413.249 466.637 413.249 468.239Z" fill="#6DC8F2"/>
<path d="M461.497 500.884C461.497 502.486 462.832 503.821 464.434 503.821C466.036 503.821 467.371 502.486 467.371 500.884C467.371 499.281 466.036 497.946 464.434 497.946C462.832 497.946 461.497 499.281 461.497 500.884Z" fill="#6DC8F2"/>
<path d="M418.32 487.933C418.32 489.535 419.654 490.87 421.256 490.87C422.858 490.87 424.193 489.535 424.193 487.933C424.193 486.33 422.858 484.995 421.256 484.995C419.654 484.995 418.32 486.264 418.32 487.933Z" fill="#6DC8F2"/>
<path d="M355.719 465.368C355.719 466.971 357.053 468.306 358.655 468.306C360.257 468.306 361.592 466.971 361.592 465.368C361.592 463.766 360.257 462.431 358.655 462.431C356.987 462.431 355.719 463.699 355.719 465.368Z" fill="#6DC8F2"/>
<path d="M369.001 480.789C369.001 482.392 370.336 483.727 371.937 483.727C373.539 483.727 374.874 482.392 374.874 480.789C374.874 479.187 373.539 477.852 371.937 477.852C370.336 477.919 369.001 479.187 369.001 480.789Z" fill="#6DC8F2"/>
<path d="M122.401 376.381C119.064 376.381 115.461 375.446 111.723 373.577L37.9764 336.393L38.5771 335.258L112.391 372.442C118.998 375.78 125.138 375.98 129.81 373.11C134.481 370.239 137.017 364.631 137.017 357.221V273.44H138.285V357.288C138.285 365.099 135.482 371.174 130.477 374.244C128.008 375.646 125.338 376.381 122.401 376.381Z" fill="url(#paint12_linear)"/>
<path d="M132.943 372.976C129.606 372.976 126.002 372.041 122.265 370.172L2.60132 310.09L3.20197 308.955L122.865 369.037C129.472 372.375 135.679 372.575 140.284 369.705C144.956 366.834 147.492 361.227 147.492 353.816V270.035H148.76V353.816C148.76 361.627 146.024 367.702 140.952 370.773C138.549 372.242 135.879 372.976 132.943 372.976Z" fill="url(#paint13_linear)"/>
<path d="M143.491 369.571C140.154 369.571 136.55 368.637 132.812 366.767L16.0189 308.221L16.5528 307.086L133.346 365.633C139.954 368.97 146.094 369.171 150.765 366.3C155.437 363.43 157.973 357.822 157.973 350.412V266.631H159.241V350.412C159.241 358.222 156.438 364.297 151.433 367.368C149.097 368.904 146.427 369.571 143.491 369.571Z" fill="url(#paint14_linear)"/>
<path d="M154.034 366.233C150.697 366.233 147.093 365.299 143.356 363.43L5.00536 293.935L5.53927 292.8L143.89 362.228C150.497 365.566 156.637 365.766 161.308 362.896C165.98 360.025 168.516 354.417 168.516 347.007V263.293H169.784V347.141C169.784 354.951 167.048 361.026 161.976 364.097C159.707 365.499 156.97 366.233 154.034 366.233Z" fill="url(#paint15_linear)"/>
<path d="M164.578 362.829C161.241 362.829 157.637 361.894 153.899 360.025L47.05 306.285L47.5839 305.15L154.433 358.823C161.041 362.161 167.181 362.361 171.852 359.491C176.524 356.62 179.06 351.013 179.06 343.602V259.888H180.328V343.736C180.328 351.547 177.525 357.622 172.52 360.692C170.251 362.094 167.514 362.829 164.578 362.829Z" fill="url(#paint16_linear)"/>
<path d="M175.125 359.424C171.788 359.424 168.185 358.489 164.447 356.62L37.9764 292.866L38.5771 291.732L165.115 355.485C171.722 358.823 177.862 359.023 182.533 356.153C187.205 353.282 189.741 347.675 189.741 340.264V256.483H191.009V340.331C191.009 348.142 188.206 354.15 183.201 357.288C180.798 358.69 178.062 359.424 175.125 359.424Z" fill="url(#paint17_linear)"/>
<path d="M185.736 356.086C182.399 356.086 178.795 355.151 175.058 353.282L70.2772 300.544L70.8111 299.409L175.592 352.147C182.199 355.485 188.339 355.686 193.011 352.882C197.682 350.011 200.218 344.403 200.218 336.993V253.145H201.486V336.993C201.486 344.804 198.683 350.879 193.678 353.95C191.342 355.352 188.606 356.086 185.736 356.086Z" fill="url(#paint18_linear)"/>
<path d="M196.28 352.682C192.943 352.682 189.34 351.747 185.602 349.878L53.9258 283.654L54.5264 282.519L186.136 348.743C192.743 352.081 198.883 352.281 203.555 349.411C208.227 346.54 210.763 340.932 210.763 333.522V249.741H212.031V333.522C212.031 341.333 209.228 347.341 204.222 350.479C201.886 351.947 199.15 352.682 196.28 352.682Z" fill="url(#paint19_linear)"/>
<path d="M206.823 349.277C203.486 349.277 199.882 348.342 196.145 346.473L74.0787 284.922L74.6793 283.788L196.745 345.338C203.352 348.676 209.492 348.876 214.164 346.073C218.769 343.202 221.372 337.594 221.372 330.184V246.336H222.64V330.184C222.64 337.995 219.837 344.07 214.832 347.141C212.429 348.543 209.693 349.277 206.823 349.277Z" fill="url(#paint20_linear)"/>
<path d="M217.369 345.872C214.032 345.872 210.428 344.938 206.691 343.068L95.9704 287.192L96.5711 286.057L207.291 341.934C213.899 345.271 220.039 345.472 224.71 342.668C229.382 339.797 231.918 334.19 231.918 326.78V242.932H233.186V326.78C233.186 334.59 230.383 340.665 225.378 343.736C222.975 345.205 220.239 345.872 217.369 345.872Z" fill="url(#paint21_linear)"/>
<path d="M41.1128 335.792C41.1128 334.19 39.778 332.855 38.1763 332.855C36.5746 332.855 35.2398 334.19 35.2398 335.792C35.2398 337.394 36.5746 338.729 38.1763 338.729C39.8448 338.729 41.1128 337.394 41.1128 335.792Z" fill="#6DC8F2"/>
<path d="M5.80631 309.556C5.80631 307.954 4.47152 306.619 2.86978 306.619C1.26804 306.619 0 307.954 0 309.556C0 311.158 1.33478 312.493 2.93652 312.493C4.53826 312.493 5.80631 311.158 5.80631 309.556Z" fill="#6DC8F2"/>
<path d="M19.2211 307.62C19.2211 306.018 17.8863 304.683 16.2845 304.683C14.6828 304.683 13.348 306.018 13.348 307.62C13.348 309.222 14.6828 310.557 16.2845 310.557C17.953 310.557 19.2211 309.289 19.2211 307.62Z" fill="#6DC8F2"/>
<path d="M8.20627 293.401C8.20627 291.798 6.87148 290.463 5.26974 290.463C3.668 290.463 2.33322 291.732 2.33322 293.401C2.33322 295.003 3.668 296.338 5.26974 296.338C6.87148 296.271 8.20627 295.003 8.20627 293.401Z" fill="#6DC8F2"/>
<path d="M50.2573 305.751C50.2573 304.149 48.9225 302.814 47.3207 302.814C45.719 302.814 44.3842 304.149 44.3842 305.751C44.3842 307.353 45.719 308.688 47.3207 308.688C48.9225 308.622 50.2573 307.353 50.2573 305.751Z" fill="#6DC8F2"/>
<path d="M41.1128 292.333C41.1128 290.73 39.778 289.395 38.1763 289.395C36.5746 289.395 35.2398 290.73 35.2398 292.333C35.2398 293.935 36.5746 295.27 38.1763 295.27C39.8448 295.27 41.1128 293.935 41.1128 292.333Z" fill="#6DC8F2"/>
<path d="M73.4136 299.943C73.4136 298.341 72.0789 297.006 70.4771 297.006C68.8754 297.006 67.5406 298.341 67.5406 299.943C67.5406 301.545 68.8754 302.88 70.4771 302.88C72.1456 302.814 73.4136 301.545 73.4136 299.943Z" fill="#6DC8F2"/>
<path d="M57.1266 283.053C57.1266 281.451 55.8586 280.116 54.1901 280.116C52.5884 280.116 51.2536 281.451 51.2536 283.053C51.2536 284.655 52.5884 285.991 54.1901 285.991C55.8586 285.991 57.1266 284.655 57.1266 283.053Z" fill="#6DC8F2"/>
<path d="M77.2201 284.388C77.2201 282.786 75.8854 281.451 74.2836 281.451C72.6819 281.451 71.3471 282.719 71.3471 284.388C71.3471 286.057 72.6151 287.326 74.2836 287.326C75.9521 287.259 77.2201 285.991 77.2201 284.388Z" fill="#6DC8F2"/>
<path d="M99.1056 286.658C99.1056 285.056 97.7708 283.721 96.169 283.721C94.5673 283.721 93.2325 285.056 93.2325 286.658C93.2325 288.26 94.5673 289.595 96.169 289.595C97.8375 289.529 99.1056 288.26 99.1056 286.658Z" fill="#6DC8F2"/>
<path d="M374.737 376.381C371.8 376.381 369.131 375.646 366.728 374.178C361.722 371.107 358.919 365.032 358.919 357.221V273.44H360.187V357.288C360.187 364.631 362.724 370.306 367.395 373.176C372.067 376.047 378.207 375.78 384.814 372.509L479.384 324.844L479.984 325.978L385.415 373.577C381.677 375.446 378.007 376.381 374.737 376.381Z" fill="url(#paint22_linear)"/>
<path d="M364.191 372.976C361.254 372.976 358.585 372.242 356.182 370.773C351.177 367.635 348.374 361.627 348.374 353.816V270.035H349.642V353.816C349.642 361.227 352.178 366.834 356.85 369.705C361.521 372.575 367.661 372.308 374.269 369.037L462.031 324.844L462.564 325.978L374.803 370.172C371.132 372.041 367.461 372.976 364.191 372.976Z" fill="url(#paint23_linear)"/>
<path d="M353.58 369.571C350.643 369.571 347.974 368.837 345.638 367.368C340.632 364.297 337.829 358.222 337.829 350.412V266.631H339.097V350.412C339.097 357.755 341.634 363.43 346.305 366.3C350.977 369.171 357.117 368.904 363.724 365.633L499.005 297.74L499.538 298.875L364.258 366.767C360.588 368.637 356.917 369.571 353.58 369.571Z" fill="url(#paint24_linear)"/>
<path d="M343.039 366.233C340.103 366.233 337.433 365.499 335.097 364.03C330.092 360.96 327.289 354.885 327.289 347.074V263.293H328.557V347.141C328.557 354.484 331.093 360.158 335.765 363.029C340.436 365.9 346.576 365.633 353.184 362.361L479.721 298.674L480.322 299.809L353.718 363.43C350.047 365.299 346.376 366.233 343.039 366.233Z" fill="url(#paint25_linear)"/>
<path d="M332.494 362.829C329.557 362.829 326.888 362.094 324.552 360.626C319.546 357.555 316.743 351.48 316.743 343.669V259.888H318.011V343.736C318.011 351.079 320.547 356.754 325.219 359.624C329.891 362.495 336.031 362.228 342.638 358.957L462.435 298.741L462.969 299.876L343.172 360.092C339.501 361.894 335.831 362.829 332.494 362.829Z" fill="url(#paint26_linear)"/>
<path d="M321.949 359.424C319.013 359.424 316.343 358.69 314.007 357.221C309.002 354.15 306.199 348.075 306.199 340.264V256.483H307.467V340.331C307.467 347.675 310.003 353.349 314.675 356.22C319.347 359.09 325.486 358.823 332.094 355.552L444.816 298.674L445.417 299.809L332.694 356.687C328.89 358.489 325.286 359.424 321.949 359.424Z" fill="url(#paint27_linear)"/>
<path d="M311.404 356.086C308.467 356.086 305.798 355.352 303.462 353.883C298.456 350.812 295.653 344.737 295.653 336.927V253.145H296.921V336.993C296.921 344.337 299.457 350.011 304.129 352.882C308.801 355.752 314.941 355.485 321.548 352.147L417.652 303.748L418.253 304.816L322.149 353.215C318.345 355.085 314.741 356.086 311.404 356.086Z" fill="url(#paint28_linear)"/>
<path d="M300.858 352.682C297.922 352.682 295.252 351.947 292.916 350.479C287.911 347.408 285.108 341.333 285.108 333.522V249.741H286.376V333.522C286.376 340.866 288.912 346.54 293.583 349.411C298.255 352.281 304.395 352.014 311.002 348.743L442.612 282.519L443.146 283.654L311.536 349.878C307.799 351.747 304.195 352.682 300.858 352.682Z" fill="url(#paint29_linear)"/>
<path d="M290.314 349.277C287.377 349.277 284.708 348.543 282.372 347.141C277.366 344.07 274.563 337.995 274.563 330.184V246.336H275.831V330.184C275.831 337.594 278.367 343.202 283.039 346.073C287.711 348.943 293.851 348.676 300.458 345.338L420.255 285.123L420.789 286.258L300.992 346.473C297.255 348.342 293.651 349.277 290.314 349.277Z" fill="url(#paint30_linear)"/>
<path d="M279.768 345.872C276.831 345.872 274.162 345.138 271.826 343.669C266.821 340.598 264.018 334.523 264.018 326.713V242.932H265.286V326.78C265.286 334.123 267.822 339.797 272.493 342.668C277.165 345.538 283.305 345.271 289.912 341.934L397.095 287.993L397.696 289.128L290.513 343.068C286.709 344.938 283.105 345.872 279.768 345.872Z" fill="url(#paint31_linear)"/>
<path d="M476.716 325.444C476.716 323.842 477.984 322.507 479.652 322.507C481.254 322.507 482.589 323.842 482.589 325.444C482.589 327.046 481.254 328.382 479.652 328.382C478.05 328.315 476.716 327.046 476.716 325.444Z" fill="#6DC8F2"/>
<path d="M459.431 325.444C459.431 323.842 460.766 322.507 462.367 322.507C463.969 322.507 465.304 323.842 465.304 325.444C465.304 327.046 463.969 328.382 462.367 328.382C460.699 328.315 459.431 327.046 459.431 325.444Z" fill="#6DC8F2"/>
<path d="M496.399 298.274C496.399 296.672 497.734 295.337 499.336 295.337C500.938 295.337 502.272 296.672 502.272 298.274C502.272 299.876 500.938 301.211 499.336 301.211C497.667 301.211 496.399 299.943 496.399 298.274Z" fill="#6DC8F2"/>
<path d="M477.048 299.142C477.048 297.539 478.383 296.204 479.985 296.204C481.586 296.204 482.921 297.539 482.921 299.142C482.921 300.744 481.653 302.079 479.985 302.079C478.383 302.079 477.048 300.744 477.048 299.142Z" fill="#6DC8F2"/>
<path d="M459.763 299.209C459.763 297.606 461.031 296.271 462.7 296.271C464.302 296.271 465.636 297.606 465.636 299.209C465.636 300.811 464.302 302.146 462.7 302.146C461.098 302.146 459.763 300.811 459.763 299.209Z" fill="#6DC8F2"/>
<path d="M442.141 299.209C442.141 297.606 443.476 296.271 445.077 296.271C446.679 296.271 448.014 297.606 448.014 299.209C448.014 300.811 446.679 302.146 445.077 302.146C443.476 302.146 442.141 300.811 442.141 299.209Z" fill="#6DC8F2"/>
<path d="M415.048 304.282C415.048 302.68 416.383 301.345 417.984 301.345C419.586 301.345 420.921 302.68 420.921 304.282C420.921 305.884 419.586 307.219 417.984 307.219C416.316 307.153 415.048 305.884 415.048 304.282Z" fill="#6DC8F2"/>
<path d="M439.938 283.053C439.938 281.451 441.273 280.116 442.874 280.116C444.476 280.116 445.811 281.451 445.811 283.053C445.811 284.655 444.543 285.991 442.874 285.991C441.273 285.991 439.938 284.655 439.938 283.053Z" fill="#6DC8F2"/>
<path d="M417.583 285.657C417.583 284.055 418.918 282.719 420.52 282.719C422.122 282.719 423.456 284.055 423.456 285.657C423.456 287.259 422.122 288.594 420.52 288.594C418.918 288.594 417.583 287.259 417.583 285.657Z" fill="#6DC8F2"/>
<path d="M394.491 288.594C394.491 286.992 395.826 285.657 397.428 285.657C399.03 285.657 400.364 286.992 400.364 288.594C400.364 290.196 399.03 291.532 397.428 291.532C395.759 291.465 394.491 290.196 394.491 288.594Z" fill="#6DC8F2"/>
<path d="M81.7515 425.314C81.7515 426.916 80.4167 428.251 78.815 428.251C77.2133 428.251 75.8785 426.916 75.8785 425.314C75.8785 423.712 77.2133 422.376 78.815 422.376C80.4167 422.376 81.7515 423.712 81.7515 425.314Z" fill="#6DC8F2"/>
<path d="M79.149 425.848L78.6151 424.713L122.93 402.883C136.812 395.94 148.091 377.582 148.091 362.027V233.118H149.359V362.094C149.359 378.049 137.746 396.875 123.464 404.085L79.149 425.848Z" fill="url(#paint32_linear)"/>
<path d="M47.3182 451.483C47.3182 453.085 45.9835 454.42 44.3817 454.42C42.78 454.42 41.4452 453.085 41.4452 451.483C41.4452 449.881 42.78 448.545 44.3817 448.545C46.0502 448.545 47.3182 449.881 47.3182 451.483Z" fill="#6DC8F2"/>
<path d="M44.7157 452.084L44.1818 450.949L133.412 406.355C147.294 399.412 158.573 381.053 158.573 365.499V232.985H159.841V365.499C159.841 381.454 148.228 400.28 133.946 407.489L44.7157 452.084Z" fill="url(#paint33_linear)"/>
<path d="M65.3325 451.483C65.3325 453.085 63.9977 454.42 62.396 454.42C60.7942 454.42 59.4594 453.085 59.4594 451.483C59.4594 449.881 60.7942 448.546 62.396 448.546C64.0644 448.546 65.3325 449.881 65.3325 451.483Z" fill="#6DC8F2"/>
<path d="M62.7322 452.084L62.1316 450.949L143.954 409.759C157.836 402.817 169.114 384.458 169.114 368.904V232.851H170.383V368.904C170.383 384.859 158.77 403.684 144.488 410.894L62.7322 452.084Z" fill="url(#paint34_linear)"/>
<path d="M36.838 473.98C36.838 475.582 35.5699 476.918 33.9015 476.918C32.2997 476.918 30.9649 475.582 30.9649 473.98C30.9649 472.378 32.233 471.043 33.9015 471.043C35.5699 471.11 36.838 472.378 36.838 473.98Z" fill="#6DC8F2"/>
<path d="M34.2377 474.581L33.6371 473.446L154.435 413.097C168.317 406.154 179.596 387.796 179.596 372.241V232.718H180.864V372.241C180.864 388.196 169.251 407.022 154.969 414.232L34.2377 474.581Z" fill="url(#paint35_linear)"/>
<path d="M56.3907 472.912C56.3907 474.514 55.0559 475.849 53.4542 475.849C51.8524 475.849 50.5176 474.514 50.5176 472.912C50.5176 471.31 51.8524 469.975 53.4542 469.975C55.0559 470.041 56.3907 471.31 56.3907 472.912Z" fill="#6DC8F2"/>
<path d="M53.7237 473.513L53.1898 472.378L165.045 416.502C178.926 409.492 190.205 391.201 190.205 375.646V232.584H191.473V375.646C191.473 391.601 179.861 410.427 165.579 417.637L53.7237 473.513Z" fill="url(#paint36_linear)"/>
<path d="M31.0314 495.076C31.0314 496.678 29.6966 498.013 28.0948 498.013C26.4931 498.013 25.1583 496.678 25.1583 495.076C25.1583 493.474 26.4931 492.139 28.0948 492.139C29.7633 492.139 31.0314 493.407 31.0314 495.076Z" fill="#6DC8F2"/>
<path d="M28.4311 495.61L27.8305 494.475L175.591 419.907C189.473 412.964 200.752 394.605 200.752 379.051V232.451H202.02V379.051C202.02 395.006 190.407 413.832 176.125 421.042L28.4311 495.61Z" fill="url(#paint37_linear)"/>
<path d="M57.8578 490.203C57.8578 491.805 56.523 493.14 54.9213 493.14C53.3195 493.14 51.9847 491.871 51.9847 490.203C51.9847 488.6 53.2528 487.265 54.9213 487.265C56.523 487.332 57.8578 488.6 57.8578 490.203Z" fill="#6DC8F2"/>
<path d="M55.2575 490.803L54.6569 489.668L186.133 423.311C200.015 416.302 211.294 398.01 211.294 382.455V232.25H212.562V382.389C212.562 398.344 200.949 417.169 186.667 424.379L55.2575 490.803Z" fill="url(#paint38_linear)"/>
<path d="M80.6879 487.131C80.6879 488.734 79.3531 490.069 77.7514 490.069C76.1497 490.069 74.8149 488.734 74.8149 487.131C74.8149 485.529 76.1497 484.194 77.7514 484.194C79.4199 484.194 80.6879 485.463 80.6879 487.131Z" fill="#6DC8F2"/>
<path d="M78.0877 487.666L77.487 486.531L196.683 426.649C210.565 419.639 221.844 401.348 221.844 385.793V232.117H223.112V385.793C223.112 401.748 211.499 420.574 197.217 427.784L78.0877 487.666Z" fill="url(#paint39_linear)"/>
<path d="M118.528 476.584C118.528 478.186 117.194 479.521 115.592 479.521C113.99 479.521 112.655 478.186 112.655 476.584C112.655 474.982 113.99 473.647 115.592 473.647C117.26 473.647 118.528 474.982 118.528 476.584Z" fill="#6DC8F2"/>
<path d="M115.928 477.118L115.327 475.983L207.161 429.987C221.042 422.977 232.321 404.686 232.321 389.131V231.983H233.589V389.198C233.589 405.153 221.977 423.979 207.694 431.189L115.928 477.118Z" fill="url(#paint40_linear)"/>
<path d="M100.372 494.608C100.372 496.211 99.1038 497.546 97.4353 497.546C95.8336 497.546 94.4988 496.211 94.4988 494.608C94.4988 493.006 95.8336 491.671 97.4353 491.671C99.1038 491.671 100.372 492.939 100.372 494.608Z" fill="#6DC8F2"/>
<path d="M97.7716 495.143L97.1709 494.008L217.769 433.392C231.65 426.382 242.929 408.09 242.929 392.536V231.85H244.197V392.603C244.197 408.558 232.585 427.383 218.302 434.593L97.7716 495.143Z" fill="url(#paint41_linear)"/>
</g>
<path d="M248.334 376.981C174.987 376.981 115.523 346.874 115.523 309.69V327.18C115.523 364.364 174.987 394.472 248.334 394.472C321.68 394.472 381.145 364.364 381.145 327.18V309.69C381.145 346.874 321.68 376.981 248.334 376.981Z" fill="url(#paint42_linear)"/>
<path d="M248.334 345.205C174.987 345.205 115.523 315.097 115.523 277.913V309.69C115.523 346.874 174.987 376.981 248.334 376.981C321.68 376.981 381.145 346.874 381.145 309.69V277.913C381.145 315.097 321.68 345.205 248.334 345.205Z" fill="url(#paint43_linear)"/>
<path d="M248.334 345.205C174.987 345.205 115.523 315.097 115.523 277.913V309.69C115.523 346.874 174.987 376.981 248.334 376.981C321.68 376.981 381.145 346.874 381.145 309.69V277.913C381.145 315.097 321.68 345.205 248.334 345.205Z" fill="url(#paint44_linear)"/>
<path d="M248.334 345.205C174.987 345.205 115.523 315.097 115.523 277.913V309.69C115.523 346.874 174.987 376.981 248.334 376.981C321.68 376.981 381.145 346.874 381.145 309.69V277.913C381.145 315.097 321.68 345.205 248.334 345.205Z" fill="url(#paint45_linear)"/>
<path d="M248.334 344.537C174.987 344.537 115.523 314.429 115.523 277.245V309.022C115.523 346.206 174.987 376.314 248.334 376.314C321.68 376.314 381.145 346.206 381.145 309.022V277.245C381.145 314.429 321.68 344.537 248.334 344.537Z" fill="url(#paint46_linear)"/>
<path d="M248.334 259.821C236.721 259.821 225.375 260.556 214.63 262.024H115.523V277.913C115.523 315.097 174.987 345.205 248.334 345.205C321.68 345.205 381.145 315.097 381.145 277.913V262.024H282.037C271.292 260.622 260.013 259.821 248.334 259.821Z" fill="url(#paint47_linear)"/>
<path d="M248.334 259.821C236.721 259.821 225.375 260.556 214.63 262.024H115.523V277.913C115.523 315.097 174.987 345.205 248.334 345.205C321.68 345.205 381.145 315.097 381.145 277.913V262.024H282.037C271.292 260.622 260.013 259.821 248.334 259.821Z" fill="url(#paint48_linear)"/>
<path d="M248.334 259.821C236.721 259.821 225.375 260.556 214.63 262.024H115.523V277.913C115.523 315.097 174.987 345.205 248.334 345.205C321.68 345.205 381.145 315.097 381.145 277.913V262.024H282.037C271.292 260.622 260.013 259.821 248.334 259.821Z" fill="url(#paint49_linear)"/>
<path d="M381.145 262.024C381.145 299.208 321.68 329.316 248.334 329.316C174.987 329.316 115.523 299.208 115.523 262.024C115.523 224.84 174.987 194.732 248.334 194.732C321.68 194.732 381.145 224.84 381.145 262.024Z" fill="url(#paint50_linear)"/>
<path d="M380.747 261.691C380.747 298.674 321.483 328.582 248.337 328.582C175.19 328.582 115.926 298.608 115.926 261.691C115.926 224.707 175.19 194.732 248.337 194.732C321.483 194.732 380.747 224.707 380.747 261.691Z" fill="url(#paint51_linear)"/>
<path d="M248.336 285.924C205.289 285.924 178.794 267.432 178.794 254.147C178.794 240.862 205.223 222.37 248.336 222.37C291.45 222.37 317.878 240.862 317.878 254.147C317.878 267.365 291.45 285.924 248.336 285.924Z" fill="url(#paint52_linear)"/>
<path d="M248.338 284.321C205.892 284.321 180.397 266.43 180.397 254.147C180.397 241.864 205.892 223.972 248.338 223.972C290.784 223.972 316.278 241.864 316.278 254.147C316.278 266.43 290.784 284.321 248.338 284.321Z" fill="url(#paint53_linear)"/>
<path d="M188.807 267.632C199.552 258.753 220.241 250.943 248.338 250.943C276.435 250.943 297.058 258.753 307.869 267.632C313.342 263.092 316.278 258.286 316.278 254.147C316.278 241.863 290.784 223.972 248.338 223.972C205.892 223.972 180.397 241.863 180.397 254.147C180.397 258.286 183.334 263.092 188.807 267.632Z" fill="#201362"/>
<path d="M316 58L180 58.0594V257.16C180 268.086 205.517 284 248 284C290.483 284 316 268.086 316 257.16V58Z" fill="url(#paint54_linear)"/>
<defs>
<radialGradient id="paint0_radial" cx="0" cy="0" r="1" gradientUnits="userSpaceOnUse" gradientTransform="translate(243.5 427.5) rotate(90) scale(107.5 65.5)">
<stop stop-color="#14FBFA"/>
<stop offset="1" stop-color="#C4C4C4" stop-opacity="0"/>
</radialGradient>
<linearGradient id="paint1_linear" x1="114.951" y1="327.144" x2="380.866" y2="327.144" gradientUnits="userSpaceOnUse">
<stop stop-color="#2F6699"/>
<stop offset="1" stop-color="#427DB3"/>
</linearGradient>
<linearGradient id="paint2_linear" x1="250.726" y1="407.638" x2="454.235" y2="293.248" gradientUnits="userSpaceOnUse">
<stop stop-color="#5B9EDD"/>
<stop offset="0.215" stop-color="#5DA4DE"/>
<stop offset="0.5039" stop-color="#63B5E1"/>
<stop offset="0.8333" stop-color="#6CD1E5"/>
<stop offset="1" stop-color="#72E2E8"/>
</linearGradient>
<linearGradient id="paint3_linear" x1="254.893" y1="415.079" x2="458.416" y2="300.681" gradientUnits="userSpaceOnUse">
<stop stop-color="#5B9EDD"/>
<stop offset="0.215" stop-color="#5DA4DE"/>
<stop offset="0.5039" stop-color="#63B5E1"/>
<stop offset="0.8333" stop-color="#6CD1E5"/>
<stop offset="1" stop-color="#72E2E8"/>
</linearGradient>
<linearGradient id="paint4_linear" x1="259.642" y1="423.516" x2="463.154" y2="309.124" gradientUnits="userSpaceOnUse">
<stop stop-color="#5B9EDD"/>
<stop offset="0.215" stop-color="#5DA4DE"/>
<stop offset="0.5039" stop-color="#63B5E1"/>
<stop offset="0.8333" stop-color="#6CD1E5"/>
<stop offset="1" stop-color="#72E2E8"/>
</linearGradient>
<linearGradient id="paint5_linear" x1="255.709" y1="416.53" x2="459.241" y2="302.128" gradientUnits="userSpaceOnUse">
<stop stop-color="#5B9EDD"/>
<stop offset="0.215" stop-color="#5DA4DE"/>
<stop offset="0.5039" stop-color="#63B5E1"/>
<stop offset="0.8333" stop-color="#6CD1E5"/>
<stop offset="1" stop-color="#72E2E8"/>
</linearGradient>
<linearGradient id="paint6_linear" x1="260.607" y1="425.232" x2="464.124" y2="310.837" gradientUnits="userSpaceOnUse">
<stop stop-color="#5B9EDD"/>
<stop offset="0.215" stop-color="#5DA4DE"/>
<stop offset="0.5039" stop-color="#63B5E1"/>
<stop offset="0.8333" stop-color="#6CD1E5"/>
<stop offset="1" stop-color="#72E2E8"/>
</linearGradient>
<linearGradient id="paint7_linear" x1="251.531" y1="409.079" x2="455.042" y2="294.688" gradientUnits="userSpaceOnUse">
<stop stop-color="#5B9EDD"/>
<stop offset="0.215" stop-color="#5DA4DE"/>
<stop offset="0.5039" stop-color="#63B5E1"/>
<stop offset="0.8333" stop-color="#6CD1E5"/>
<stop offset="1" stop-color="#72E2E8"/>
</linearGradient>
<linearGradient id="paint8_linear" x1="262.995" y1="429.482" x2="466.514" y2="315.086" gradientUnits="userSpaceOnUse">
<stop stop-color="#5B9EDD"/>
<stop offset="0.215" stop-color="#5DA4DE"/>
<stop offset="0.5039" stop-color="#63B5E1"/>
<stop offset="0.8333" stop-color="#6CD1E5"/>
<stop offset="1" stop-color="#72E2E8"/>
</linearGradient>
<linearGradient id="paint9_linear" x1="253.744" y1="413.02" x2="457.26" y2="298.626" gradientUnits="userSpaceOnUse">
<stop stop-color="#5B9EDD"/>
<stop offset="0.215" stop-color="#5DA4DE"/>
<stop offset="0.5039" stop-color="#63B5E1"/>
<stop offset="0.8333" stop-color="#6CD1E5"/>
<stop offset="1" stop-color="#72E2E8"/>
</linearGradient>
<linearGradient id="paint10_linear" x1="240.107" y1="388.757" x2="443.623" y2="274.363" gradientUnits="userSpaceOnUse">
<stop stop-color="#5B9EDD"/>
<stop offset="0.215" stop-color="#5DA4DE"/>
<stop offset="0.5039" stop-color="#63B5E1"/>
<stop offset="0.8333" stop-color="#6CD1E5"/>
<stop offset="1" stop-color="#72E2E8"/>
</linearGradient>
<linearGradient id="paint11_linear" x1="243.706" y1="395.168" x2="447.229" y2="280.77" gradientUnits="userSpaceOnUse">
<stop stop-color="#5B9EDD"/>
<stop offset="0.215" stop-color="#5DA4DE"/>
<stop offset="0.5039" stop-color="#63B5E1"/>
<stop offset="0.8333" stop-color="#6CD1E5"/>
<stop offset="1" stop-color="#72E2E8"/>
</linearGradient>
<linearGradient id="paint12_linear" x1="150.16" y1="335.471" x2="56.8453" y2="291.149" gradientUnits="userSpaceOnUse">
<stop stop-color="#5B9EDD"/>
<stop offset="0.215" stop-color="#5DA4DE"/>
<stop offset="0.5039" stop-color="#63B5E1"/>
<stop offset="0.8333" stop-color="#6CD1E5"/>
<stop offset="1" stop-color="#72E2E8"/>
</linearGradient>
<linearGradient id="paint13_linear" x1="159.268" y1="331.556" x2="22.4645" y2="265.706" gradientUnits="userSpaceOnUse">
<stop stop-color="#5B9EDD"/>
<stop offset="0.215" stop-color="#5DA4DE"/>
<stop offset="0.5039" stop-color="#63B5E1"/>
<stop offset="0.8333" stop-color="#6CD1E5"/>
<stop offset="1" stop-color="#72E2E8"/>
</linearGradient>
<linearGradient id="paint14_linear" x1="176.135" y1="330.726" x2="35.2244" y2="265.197" gradientUnits="userSpaceOnUse">
<stop stop-color="#5B9EDD"/>
<stop offset="0.215" stop-color="#5DA4DE"/>
<stop offset="0.5039" stop-color="#63B5E1"/>
<stop offset="0.8333" stop-color="#6CD1E5"/>
<stop offset="1" stop-color="#72E2E8"/>
</linearGradient>
<linearGradient id="paint15_linear" x1="189.348" y1="329.545" x2="33.8663" y2="252.616" gradientUnits="userSpaceOnUse">
<stop stop-color="#5B9EDD"/>
<stop offset="0.215" stop-color="#5DA4DE"/>
<stop offset="0.5039" stop-color="#63B5E1"/>
<stop offset="0.8333" stop-color="#6CD1E5"/>
<stop offset="1" stop-color="#72E2E8"/>
</linearGradient>
<linearGradient id="paint16_linear" x1="202.143" y1="327.19" x2="74.8417" y2="264.507" gradientUnits="userSpaceOnUse">
<stop stop-color="#5B9EDD"/>
<stop offset="0.215" stop-color="#5DA4DE"/>
<stop offset="0.5039" stop-color="#63B5E1"/>
<stop offset="0.8333" stop-color="#6CD1E5"/>
<stop offset="1" stop-color="#72E2E8"/>
</linearGradient>
<linearGradient id="paint17_linear" x1="209.171" y1="322.82" x2="67.6217" y2="250.958" gradientUnits="userSpaceOnUse">
<stop stop-color="#5B9EDD"/>
<stop offset="0.215" stop-color="#5DA4DE"/>
<stop offset="0.5039" stop-color="#63B5E1"/>
<stop offset="0.8333" stop-color="#6CD1E5"/>
<stop offset="1" stop-color="#72E2E8"/>
</linearGradient>
<linearGradient id="paint18_linear" x1="220.456" y1="320.099" x2="97.9003" y2="257.413" gradientUnits="userSpaceOnUse">
<stop stop-color="#5B9EDD"/>
<stop offset="0.215" stop-color="#5DA4DE"/>
<stop offset="0.5039" stop-color="#63B5E1"/>
<stop offset="0.8333" stop-color="#6CD1E5"/>
<stop offset="1" stop-color="#72E2E8"/>
</linearGradient>
<linearGradient id="paint19_linear" x1="227.411" y1="313.492" x2="79.8406" y2="242.894" gradientUnits="userSpaceOnUse">
<stop stop-color="#5B9EDD"/>
<stop offset="0.215" stop-color="#5DA4DE"/>
<stop offset="0.5039" stop-color="#63B5E1"/>
<stop offset="0.8333" stop-color="#6CD1E5"/>
<stop offset="1" stop-color="#72E2E8"/>
</linearGradient>
<linearGradient id="paint20_linear" x1="236.984" y1="310.043" x2="99.5487" y2="242.295" gradientUnits="userSpaceOnUse">
<stop stop-color="#5B9EDD"/>
<stop offset="0.215" stop-color="#5DA4DE"/>
<stop offset="0.5039" stop-color="#63B5E1"/>
<stop offset="0.8333" stop-color="#6CD1E5"/>
<stop offset="1" stop-color="#72E2E8"/>
</linearGradient>
<linearGradient id="paint21_linear" x1="249.115" y1="306.736" x2="121.498" y2="246.902" gradientUnits="userSpaceOnUse">
<stop stop-color="#5B9EDD"/>
<stop offset="0.215" stop-color="#5DA4DE"/>
<stop offset="0.5039" stop-color="#63B5E1"/>
<stop offset="0.8333" stop-color="#6CD1E5"/>
<stop offset="1" stop-color="#72E2E8"/>
</linearGradient>
<linearGradient id="paint22_linear" x1="343.074" y1="339.654" x2="452.64" y2="282.354" gradientUnits="userSpaceOnUse">
<stop stop-color="#6DC8F2"/>
<stop offset="0.1079" stop-color="#65B5E9"/>
<stop offset="0.243" stop-color="#5EA4E0"/>
<stop offset="0.3433" stop-color="#5B9EDD"/>
<stop offset="0.4845" stop-color="#5DA4DE"/>
<stop offset="0.6742" stop-color="#63B5E1"/>
<stop offset="0.8905" stop-color="#6CD1E5"/>
<stop offset="1" stop-color="#72E2E8"/>
</linearGradient>
<linearGradient id="paint23_linear" x1="336.186" y1="331.874" x2="441.003" y2="283.437" gradientUnits="userSpaceOnUse">
<stop stop-color="#6DC8F2"/>
<stop offset="0.1079" stop-color="#65B5E9"/>
<stop offset="0.243" stop-color="#5EA4E0"/>
<stop offset="0.3433" stop-color="#5B9EDD"/>
<stop offset="0.4845" stop-color="#5DA4DE"/>
<stop offset="0.6742" stop-color="#63B5E1"/>
<stop offset="0.8905" stop-color="#6CD1E5"/>
<stop offset="1" stop-color="#72E2E8"/>
</linearGradient>
<linearGradient id="paint24_linear" x1="314.174" y1="335.674" x2="471.878" y2="255.895" gradientUnits="userSpaceOnUse">
<stop stop-color="#6DC8F2"/>
<stop offset="0.1079" stop-color="#65B5E9"/>
<stop offset="0.243" stop-color="#5EA4E0"/>
<stop offset="0.3433" stop-color="#5B9EDD"/>
<stop offset="0.4845" stop-color="#5DA4DE"/>
<stop offset="0.6742" stop-color="#63B5E1"/>
<stop offset="0.8905" stop-color="#6CD1E5"/>
<stop offset="1" stop-color="#72E2E8"/>
</linearGradient>
<linearGradient id="paint25_linear" x1="336.262" y1="316.254" x2="454.379" y2="255.472" gradientUnits="userSpaceOnUse">
<stop stop-color="#6DC8F2"/>
<stop offset="0.1079" stop-color="#65B5E9"/>
<stop offset="0.243" stop-color="#5EA4E0"/>
<stop offset="0.3433" stop-color="#5B9EDD"/>
<stop offset="0.4845" stop-color="#5DA4DE"/>
<stop offset="0.6742" stop-color="#63B5E1"/>
<stop offset="0.8905" stop-color="#6CD1E5"/>
<stop offset="1" stop-color="#72E2E8"/>
</linearGradient>
<linearGradient id="paint26_linear" x1="300.309" y1="323.099" x2="429.826" y2="265.798" gradientUnits="userSpaceOnUse">
<stop stop-color="#6DC8F2"/>
<stop offset="0.1079" stop-color="#65B5E9"/>
<stop offset="0.243" stop-color="#5EA4E0"/>
<stop offset="0.3433" stop-color="#5B9EDD"/>
<stop offset="0.4845" stop-color="#5DA4DE"/>
<stop offset="0.6742" stop-color="#63B5E1"/>
<stop offset="0.8905" stop-color="#6CD1E5"/>
<stop offset="1" stop-color="#72E2E8"/>
</linearGradient>
<linearGradient id="paint27_linear" x1="289.917" y1="321.355" x2="422.604" y2="254.872" gradientUnits="userSpaceOnUse">
<stop stop-color="#6DC8F2"/>
<stop offset="0.1079" stop-color="#65B5E9"/>
<stop offset="0.243" stop-color="#5EA4E0"/>
<stop offset="0.3433" stop-color="#5B9EDD"/>
<stop offset="0.4845" stop-color="#5DA4DE"/>
<stop offset="0.6742" stop-color="#63B5E1"/>
<stop offset="0.8905" stop-color="#6CD1E5"/>
<stop offset="1" stop-color="#72E2E8"/>
</linearGradient>
<linearGradient id="paint28_linear" x1="280.879" y1="316.833" x2="396.461" y2="260.483" gradientUnits="userSpaceOnUse">
<stop stop-color="#6DC8F2"/>
<stop offset="0.1079" stop-color="#65B5E9"/>
<stop offset="0.243" stop-color="#5EA4E0"/>
<stop offset="0.3433" stop-color="#5B9EDD"/>
<stop offset="0.4845" stop-color="#5DA4DE"/>
<stop offset="0.6742" stop-color="#63B5E1"/>
<stop offset="0.8905" stop-color="#6CD1E5"/>
<stop offset="1" stop-color="#72E2E8"/>
</linearGradient>
<linearGradient id="paint29_linear" x1="267.525" y1="315.498" x2="420.476" y2="238.252" gradientUnits="userSpaceOnUse">
<stop stop-color="#6DC8F2"/>
<stop offset="0.1079" stop-color="#65B5E9"/>
<stop offset="0.243" stop-color="#5EA4E0"/>
<stop offset="0.3433" stop-color="#5B9EDD"/>
<stop offset="0.4845" stop-color="#5DA4DE"/>
<stop offset="0.6742" stop-color="#63B5E1"/>
<stop offset="0.8905" stop-color="#6CD1E5"/>
<stop offset="1" stop-color="#72E2E8"/>
</linearGradient>
<linearGradient id="paint30_linear" x1="257.64" y1="311.481" x2="396.972" y2="241.835" gradientUnits="userSpaceOnUse">
<stop stop-color="#6DC8F2"/>
<stop offset="0.1079" stop-color="#65B5E9"/>
<stop offset="0.243" stop-color="#5EA4E0"/>
<stop offset="0.3433" stop-color="#5B9EDD"/>
<stop offset="0.4845" stop-color="#5DA4DE"/>
<stop offset="0.6742" stop-color="#63B5E1"/>
<stop offset="0.8905" stop-color="#6CD1E5"/>
<stop offset="1" stop-color="#72E2E8"/>
</linearGradient>
<linearGradient id="paint31_linear" x1="248.25" y1="307.295" x2="375.553" y2="244.611" gradientUnits="userSpaceOnUse">
<stop stop-color="#6DC8F2"/>
<stop offset="0.1079" stop-color="#65B5E9"/>
<stop offset="0.243" stop-color="#5EA4E0"/>
<stop offset="0.3433" stop-color="#5B9EDD"/>
<stop offset="0.4845" stop-color="#5DA4DE"/>
<stop offset="0.6742" stop-color="#63B5E1"/>
<stop offset="0.8905" stop-color="#6CD1E5"/>
<stop offset="1" stop-color="#72E2E8"/>
</linearGradient>
<linearGradient id="paint32_linear" x1="180.028" y1="292.865" x2="-23.9124" y2="411.479" gradientUnits="userSpaceOnUse">
<stop stop-color="#5B9EDD"/>
<stop offset="0.215" stop-color="#5DA4DE"/>
<stop offset="0.5039" stop-color="#63B5E1"/>
<stop offset="0.8333" stop-color="#6CD1E5"/>
<stop offset="1" stop-color="#72E2E8"/>
</linearGradient>
<linearGradient id="paint33_linear" x1="183.405" y1="298.66" x2="-20.5379" y2="417.276" gradientUnits="userSpaceOnUse">
<stop stop-color="#5B9EDD"/>
<stop offset="0.215" stop-color="#5DA4DE"/>
<stop offset="0.5039" stop-color="#63B5E1"/>
<stop offset="0.8333" stop-color="#6CD1E5"/>
<stop offset="1" stop-color="#72E2E8"/>
</linearGradient>
<linearGradient id="paint34_linear" x1="186.772" y1="304.457" x2="-17.1713" y2="423.073" gradientUnits="userSpaceOnUse">
<stop stop-color="#5B9EDD"/>
<stop offset="0.215" stop-color="#5DA4DE"/>
<stop offset="0.5039" stop-color="#63B5E1"/>
<stop offset="0.8333" stop-color="#6CD1E5"/>
<stop offset="1" stop-color="#72E2E8"/>
</linearGradient>
<linearGradient id="paint35_linear" x1="190.146" y1="310.254" x2="-13.7919" y2="428.867" gradientUnits="userSpaceOnUse">
<stop stop-color="#5B9EDD"/>
<stop offset="0.215" stop-color="#5DA4DE"/>
<stop offset="0.5039" stop-color="#63B5E1"/>
<stop offset="0.8333" stop-color="#6CD1E5"/>
<stop offset="1" stop-color="#72E2E8"/>
</linearGradient>
<linearGradient id="paint36_linear" x1="193.515" y1="316.051" x2="-10.4281" y2="434.667" gradientUnits="userSpaceOnUse">
<stop stop-color="#5B9EDD"/>
<stop offset="0.215" stop-color="#5DA4DE"/>
<stop offset="0.5039" stop-color="#63B5E1"/>
<stop offset="0.8333" stop-color="#6CD1E5"/>
<stop offset="1" stop-color="#72E2E8"/>
</linearGradient>
<linearGradient id="paint37_linear" x1="196.891" y1="321.847" x2="-7.05091" y2="440.463" gradientUnits="userSpaceOnUse">
<stop stop-color="#5B9EDD"/>
<stop offset="0.215" stop-color="#5DA4DE"/>
<stop offset="0.5039" stop-color="#63B5E1"/>
<stop offset="0.8333" stop-color="#6CD1E5"/>
<stop offset="1" stop-color="#72E2E8"/>
</linearGradient>
<linearGradient id="paint38_linear" x1="200.26" y1="327.646" x2="-3.68394" y2="446.262" gradientUnits="userSpaceOnUse">
<stop stop-color="#5B9EDD"/>
<stop offset="0.215" stop-color="#5DA4DE"/>
<stop offset="0.5039" stop-color="#63B5E1"/>
<stop offset="0.8333" stop-color="#6CD1E5"/>
<stop offset="1" stop-color="#72E2E8"/>
</linearGradient>
<linearGradient id="paint39_linear" x1="203.637" y1="333.444" x2="-0.303605" y2="452.059" gradientUnits="userSpaceOnUse">
<stop stop-color="#5B9EDD"/>
<stop offset="0.215" stop-color="#5DA4DE"/>
<stop offset="0.5039" stop-color="#63B5E1"/>
<stop offset="0.8333" stop-color="#6CD1E5"/>
<stop offset="1" stop-color="#72E2E8"/>
</linearGradient>
<linearGradient id="paint40_linear" x1="207.008" y1="339.242" x2="3.0647" y2="457.858" gradientUnits="userSpaceOnUse">
<stop stop-color="#5B9EDD"/>
<stop offset="0.215" stop-color="#5DA4DE"/>
<stop offset="0.5039" stop-color="#63B5E1"/>
<stop offset="0.8333" stop-color="#6CD1E5"/>
<stop offset="1" stop-color="#72E2E8"/>
</linearGradient>
<linearGradient id="paint41_linear" x1="210.375" y1="345.041" x2="6.43223" y2="463.657" gradientUnits="userSpaceOnUse">
<stop stop-color="#5B9EDD"/>
<stop offset="0.215" stop-color="#5DA4DE"/>
<stop offset="0.5039" stop-color="#63B5E1"/>
<stop offset="0.8333" stop-color="#6CD1E5"/>
<stop offset="1" stop-color="#72E2E8"/>
</linearGradient>
<linearGradient id="paint42_linear" x1="114.951" y1="352.058" x2="380.866" y2="352.058" gradientUnits="userSpaceOnUse">
<stop stop-color="#2F7399"/>
<stop offset="1" stop-color="#427DB3"/>
</linearGradient>
<linearGradient id="paint43_linear" x1="114.951" y1="327.441" x2="380.866" y2="327.441" gradientUnits="userSpaceOnUse">
<stop stop-color="#2F8099"/>
<stop offset="1" stop-color="#427DB3"/>
</linearGradient>
<linearGradient id="paint44_linear" x1="114.951" y1="327.441" x2="380.866" y2="327.441" gradientUnits="userSpaceOnUse">
<stop stop-color="#42B3B3"/>
<stop offset="1" stop-color="#2F6099"/>
</linearGradient>
<linearGradient id="paint45_linear" x1="115.527" y1="327.441" x2="381.16" y2="327.441" gradientUnits="userSpaceOnUse">
<stop stop-color="#709CE4"/>
<stop offset="1" stop-color="#4D75DA"/>
</linearGradient>
<linearGradient id="paint46_linear" x1="114.951" y1="326.779" x2="380.866" y2="326.779" gradientUnits="userSpaceOnUse">
<stop stop-color="#427DB3"/>
<stop offset="1" stop-color="#2F3A99"/>
</linearGradient>
<linearGradient id="paint47_linear" x1="114.951" y1="302.53" x2="380.866" y2="302.53" gradientUnits="userSpaceOnUse">
<stop stop-color="#2F6699"/>
<stop offset="1" stop-color="#427DB3"/>
</linearGradient>
<linearGradient id="paint48_linear" x1="114.951" y1="302.53" x2="380.866" y2="302.53" gradientUnits="userSpaceOnUse">
<stop stop-color="#2F6699"/>
<stop offset="1" stop-color="#427DB3"/>
</linearGradient>
<linearGradient id="paint49_linear" x1="114.951" y1="302.53" x2="380.866" y2="302.53" gradientUnits="userSpaceOnUse">
<stop stop-color="#2F6699"/>
<stop offset="1" stop-color="#427DB3"/>
</linearGradient>
<linearGradient id="paint50_linear" x1="114.951" y1="262.036" x2="380.866" y2="262.036" gradientUnits="userSpaceOnUse">
<stop stop-color="#709CE4"/>
<stop offset="1" stop-color="#4D75DA"/>
</linearGradient>
<linearGradient id="paint51_linear" x1="115.347" y1="261.664" x2="380.485" y2="261.664" gradientUnits="userSpaceOnUse">
<stop stop-color="#427DB3"/>
<stop offset="1" stop-color="#2F4099"/>
</linearGradient>
<linearGradient id="paint52_linear" x1="178.821" y1="254.098" x2="317.871" y2="254.098" gradientUnits="userSpaceOnUse">
<stop stop-color="#4D87E4"/>
<stop offset="1" stop-color="#4D75DA"/>
</linearGradient>
<linearGradient id="paint53_linear" x1="248.347" y1="287.167" x2="248.347" y2="249.986" gradientUnits="userSpaceOnUse">
<stop stop-color="#6BFAFF"/>
<stop offset="1" stop-color="#50A2DD"/>
</linearGradient>
<linearGradient id="paint54_linear" x1="248.009" y1="280.361" x2="248.009" y2="66.1463" gradientUnits="userSpaceOnUse">
<stop offset="0.0195" stop-color="#14FFFE"/>
<stop offset="1" stop-color="#0A0A10" stop-opacity="0"/>
</linearGradient>
</defs>
</svg>
