 <svg
                        width="28"
                        height="19"
                        viewBox="0 0 28 19"
                        fill="#fff"
                        xmlns="http://www.w3.org/2000/svg"
                      >
                        <path
                          d="M26.4595 9.52146C26.3036 9.44936 26.1414 9.39491 25.9755 9.35893C25.4678 8.47317 24.6838 7.82423 23.7722 7.53513C23.5926 4.62895 21.4068 2.36548 18.7619 2.36548C18.2333 2.36577 17.708 2.45888 17.2058 2.64135C16.4835 1.59807 15.5011 0.811144 14.3795 0.37748C13.2579 -0.0561833 12.0461 -0.117653 10.8933 0.200641C9.74057 0.518935 8.69713 1.20309 7.89152 2.16888C7.0859 3.13466 6.55329 4.3399 6.35925 5.63619L6.28305 5.6557C5.39114 5.88532 4.57634 6.38977 3.93311 7.11058C3.85753 7.19523 3.78447 7.2823 3.7139 7.3718C1.6484 7.48688 0 9.38155 0 11.6941C0 14.0801 1.75581 16.0218 3.91432 16.0218C4.18225 16.0218 4.44946 15.9911 4.71169 15.9303C4.7902 16.2327 4.89897 16.5246 5.036 16.8004C5.04498 16.8191 5.05396 16.8365 5.06325 16.8537C5.34016 17.3924 5.7204 17.8575 6.17724 18.2163C6.63408 18.5751 7.15644 18.8189 7.7076 18.9305C8.25875 19.0422 8.82534 19.019 9.36754 18.8626C9.90973 18.7063 10.4144 18.4204 10.846 18.0253C11.8738 18.7028 13.056 19.0395 14.2519 18.9953C15.4478 18.9512 16.6071 18.5281 17.5918 17.7763C17.6071 17.7648 17.6268 17.7507 17.6493 17.7329C18.3015 18.233 19.0768 18.4999 19.8704 18.4975C21.4307 18.4975 22.8223 17.4635 23.4426 15.9385C24.1582 15.7787 24.8195 15.4021 25.3528 14.8508C25.3991 14.8536 25.4457 14.855 25.4924 14.855C26.8752 14.855 28 13.6107 28 12.0811C28.0008 11.5338 27.8549 10.9986 27.5807 10.543C27.3066 10.0874 26.9164 9.73189 26.4595 9.52146Z"
                          fill="#fffs"
                        />
                      </svg>