<svg width="188" height="109" viewBox="0 0 188 109" fill="none" xmlns="http://www.w3.org/2000/svg">
<path fill-rule="evenodd" clip-rule="evenodd" d="M108.039 -5.55688C108.039 -4.45232 107.144 -3.55688 106.039 -3.55688C104.934 -3.55688 104.039 -4.45232 104.039 -5.55688C104.039 -6.66145 104.934 -7.55688 106.039 -7.55688C107.144 -7.55688 108.039 -6.66145 108.039 -5.55688ZM106.039 12.4431C107.144 12.4431 108.039 11.5477 108.039 10.4431C108.039 9.33854 107.144 8.44312 106.039 8.44312C104.934 8.44312 104.039 9.33854 104.039 10.4431C104.039 11.5477 104.934 12.4431 106.039 12.4431ZM122.039 12.4431C123.144 12.4431 124.039 11.5477 124.039 10.4431C124.039 9.33854 123.144 8.44312 122.039 8.44312C120.934 8.44312 120.039 9.33854 120.039 10.4431C120.039 11.5477 120.934 12.4431 122.039 12.4431ZM140.039 10.4431C140.039 11.5477 139.144 12.4431 138.039 12.4431C136.934 12.4431 136.039 11.5477 136.039 10.4431C136.039 9.33854 136.934 8.44312 138.039 8.44312C139.144 8.44312 140.039 9.33854 140.039 10.4431ZM154.039 12.4431C155.144 12.4431 156.039 11.5477 156.039 10.4431C156.039 9.33854 155.144 8.44312 154.039 8.44312C152.934 8.44312 152.039 9.33854 152.039 10.4431C152.039 11.5477 152.934 12.4431 154.039 12.4431ZM172.039 10.4431C172.039 11.5477 171.144 12.4431 170.039 12.4431C168.934 12.4431 168.039 11.5477 168.039 10.4431C168.039 9.33854 168.934 8.44312 170.039 8.44312C171.144 8.44312 172.039 9.33854 172.039 10.4431ZM186.039 12.4431C187.144 12.4431 188.039 11.5477 188.039 10.4431C188.039 9.33854 187.144 8.44312 186.039 8.44312C184.934 8.44312 184.039 9.33854 184.039 10.4431C184.039 11.5477 184.934 12.4431 186.039 12.4431ZM122.039 -3.55688C123.144 -3.55688 124.039 -4.45232 124.039 -5.55688C124.039 -6.66145 123.144 -7.55688 122.039 -7.55688C120.934 -7.55688 120.039 -6.66145 120.039 -5.55688C120.039 -4.45232 120.934 -3.55688 122.039 -3.55688ZM140.039 -5.55688C140.039 -4.45232 139.144 -3.55688 138.039 -3.55688C136.934 -3.55688 136.039 -4.45232 136.039 -5.55688C136.039 -6.66145 136.934 -7.55688 138.039 -7.55688C139.144 -7.55688 140.039 -6.66145 140.039 -5.55688ZM154.039 -3.55688C155.144 -3.55688 156.039 -4.45232 156.039 -5.55688C156.039 -6.66145 155.144 -7.55688 154.039 -7.55688C152.934 -7.55688 152.039 -6.66145 152.039 -5.55688C152.039 -4.45232 152.934 -3.55688 154.039 -3.55688ZM172.039 -5.55688C172.039 -4.45232 171.144 -3.55688 170.039 -3.55688C168.934 -3.55688 168.039 -4.45232 168.039 -5.55688C168.039 -6.66145 168.934 -7.55688 170.039 -7.55688C171.144 -7.55688 172.039 -6.66145 172.039 -5.55688ZM186.039 -3.55688C187.144 -3.55688 188.039 -4.45232 188.039 -5.55688C188.039 -6.66145 187.144 -7.55688 186.039 -7.55688C184.934 -7.55688 184.039 -6.66145 184.039 -5.55688C184.039 -4.45232 184.934 -3.55688 186.039 -3.55688ZM2.039 12.4431C3.14357 12.4431 4.039 11.5477 4.039 10.4431C4.039 9.33854 3.14357 8.44312 2.039 8.44312C0.934432 8.44312 0.0390015 9.33854 0.0390015 10.4431C0.0390015 11.5477 0.934432 12.4431 2.039 12.4431ZM18.039 12.4431C19.1436 12.4431 20.039 11.5477 20.039 10.4431C20.039 9.33854 19.1436 8.44312 18.039 8.44312C16.9344 8.44312 16.039 9.33854 16.039 10.4431C16.039 11.5477 16.9344 12.4431 18.039 12.4431ZM36.039 10.4431C36.039 11.5477 35.1436 12.4431 34.039 12.4431C32.9344 12.4431 32.039 11.5477 32.039 10.4431C32.039 9.33854 32.9344 8.44312 34.039 8.44312C35.1436 8.44312 36.039 9.33854 36.039 10.4431ZM50.039 12.4431C51.1436 12.4431 52.039 11.5477 52.039 10.4431C52.039 9.33854 51.1436 8.44312 50.039 8.44312C48.9344 8.44312 48.039 9.33854 48.039 10.4431C48.039 11.5477 48.9344 12.4431 50.039 12.4431ZM68.039 10.4431C68.039 11.5477 67.1436 12.4431 66.039 12.4431C64.9344 12.4431 64.039 11.5477 64.039 10.4431C64.039 9.33854 64.9344 8.44312 66.039 8.44312C67.1436 8.44312 68.039 9.33854 68.039 10.4431ZM82.039 12.4431C83.1436 12.4431 84.039 11.5477 84.039 10.4431C84.039 9.33854 83.1436 8.44312 82.039 8.44312C80.9344 8.44312 80.039 9.33854 80.039 10.4431C80.039 11.5477 80.9344 12.4431 82.039 12.4431ZM2.039 -3.55688C3.14357 -3.55688 4.039 -4.45232 4.039 -5.55688C4.039 -6.66145 3.14357 -7.55688 2.039 -7.55688C0.934432 -7.55688 0.0390015 -6.66145 0.0390015 -5.55688C0.0390015 -4.45232 0.934432 -3.55688 2.039 -3.55688ZM12.039 26.4431C12.039 27.5477 11.1436 28.4431 10.039 28.4431C8.93443 28.4431 8.039 27.5477 8.039 26.4431C8.039 25.3385 8.93443 24.4431 10.039 24.4431C11.1436 24.4431 12.039 25.3385 12.039 26.4431ZM10.039 44.4431C11.1436 44.4431 12.039 43.5477 12.039 42.4431C12.039 41.3385 11.1436 40.4431 10.039 40.4431C8.93443 40.4431 8.039 41.3385 8.039 42.4431C8.039 43.5477 8.93443 44.4431 10.039 44.4431ZM26.039 44.4431C27.1436 44.4431 28.039 43.5477 28.039 42.4431C28.039 41.3385 27.1436 40.4431 26.039 40.4431C24.9344 40.4431 24.039 41.3385 24.039 42.4431C24.039 43.5477 24.9344 44.4431 26.039 44.4431ZM44.039 42.4431C44.039 43.5477 43.1436 44.4431 42.039 44.4431C40.9344 44.4431 40.039 43.5477 40.039 42.4431C40.039 41.3385 40.9344 40.4431 42.039 40.4431C43.1436 40.4431 44.039 41.3385 44.039 42.4431ZM58.039 44.4431C59.1436 44.4431 60.039 43.5477 60.039 42.4431C60.039 41.3385 59.1436 40.4431 58.039 40.4431C56.9344 40.4431 56.039 41.3385 56.039 42.4431C56.039 43.5477 56.9344 44.4431 58.039 44.4431ZM76.039 42.4431C76.039 43.5477 75.1436 44.4431 74.039 44.4431C72.9344 44.4431 72.039 43.5477 72.039 42.4431C72.039 41.3385 72.9344 40.4431 74.039 40.4431C75.1436 40.4431 76.039 41.3385 76.039 42.4431ZM90.039 44.4431C91.1436 44.4431 92.039 43.5477 92.039 42.4431C92.039 41.3385 91.1436 40.4431 90.039 40.4431C88.9344 40.4431 88.039 41.3385 88.039 42.4431C88.039 43.5477 88.9344 44.4431 90.039 44.4431ZM26.039 28.4431C27.1436 28.4431 28.039 27.5477 28.039 26.4431C28.039 25.3385 27.1436 24.4431 26.039 24.4431C24.9344 24.4431 24.039 25.3385 24.039 26.4431C24.039 27.5477 24.9344 28.4431 26.039 28.4431ZM44.039 26.4431C44.039 27.5477 43.1436 28.4431 42.039 28.4431C40.9344 28.4431 40.039 27.5477 40.039 26.4431C40.039 25.3385 40.9344 24.4431 42.039 24.4431C43.1436 24.4431 44.039 25.3385 44.039 26.4431ZM58.039 28.4431C59.1436 28.4431 60.039 27.5477 60.039 26.4431C60.039 25.3385 59.1436 24.4431 58.039 24.4431C56.9344 24.4431 56.039 25.3385 56.039 26.4431C56.039 27.5477 56.9344 28.4431 58.039 28.4431ZM76.039 26.4431C76.039 27.5477 75.1436 28.4431 74.039 28.4431C72.9344 28.4431 72.039 27.5477 72.039 26.4431C72.039 25.3385 72.9344 24.4431 74.039 24.4431C75.1436 24.4431 76.039 25.3385 76.039 26.4431ZM90.039 28.4431C91.1436 28.4431 92.039 27.5477 92.039 26.4431C92.039 25.3385 91.1436 24.4431 90.039 24.4431C88.9344 24.4431 88.039 25.3385 88.039 26.4431C88.039 27.5477 88.9344 28.4431 90.039 28.4431ZM18.039 -3.55688C19.1436 -3.55688 20.039 -4.45232 20.039 -5.55688C20.039 -6.66145 19.1436 -7.55688 18.039 -7.55688C16.9344 -7.55688 16.039 -6.66145 16.039 -5.55688C16.039 -4.45232 16.9344 -3.55688 18.039 -3.55688ZM108.039 26.4431C108.039 27.5477 107.144 28.4431 106.039 28.4431C104.934 28.4431 104.039 27.5477 104.039 26.4431C104.039 25.3385 104.934 24.4431 106.039 24.4431C107.144 24.4431 108.039 25.3385 108.039 26.4431ZM106.039 44.4431C107.144 44.4431 108.039 43.5477 108.039 42.4431C108.039 41.3385 107.144 40.4431 106.039 40.4431C104.934 40.4431 104.039 41.3385 104.039 42.4431C104.039 43.5477 104.934 44.4431 106.039 44.4431ZM122.039 44.4431C123.144 44.4431 124.039 43.5477 124.039 42.4431C124.039 41.3385 123.144 40.4431 122.039 40.4431C120.934 40.4431 120.039 41.3385 120.039 42.4431C120.039 43.5477 120.934 44.4431 122.039 44.4431ZM140.039 42.4431C140.039 43.5477 139.144 44.4431 138.039 44.4431C136.934 44.4431 136.039 43.5477 136.039 42.4431C136.039 41.3385 136.934 40.4431 138.039 40.4431C139.144 40.4431 140.039 41.3385 140.039 42.4431ZM154.039 44.4431C155.144 44.4431 156.039 43.5477 156.039 42.4431C156.039 41.3385 155.144 40.4431 154.039 40.4431C152.934 40.4431 152.039 41.3385 152.039 42.4431C152.039 43.5477 152.934 44.4431 154.039 44.4431ZM172.039 42.4431C172.039 43.5477 171.144 44.4431 170.039 44.4431C168.934 44.4431 168.039 43.5477 168.039 42.4431C168.039 41.3385 168.934 40.4431 170.039 40.4431C171.144 40.4431 172.039 41.3385 172.039 42.4431ZM186.039 44.4431C187.144 44.4431 188.039 43.5477 188.039 42.4431C188.039 41.3385 187.144 40.4431 186.039 40.4431C184.934 40.4431 184.039 41.3385 184.039 42.4431C184.039 43.5477 184.934 44.4431 186.039 44.4431ZM122.039 28.4431C123.144 28.4431 124.039 27.5477 124.039 26.4431C124.039 25.3385 123.144 24.4431 122.039 24.4431C120.934 24.4431 120.039 25.3385 120.039 26.4431C120.039 27.5477 120.934 28.4431 122.039 28.4431ZM140.039 26.4431C140.039 27.5477 139.144 28.4431 138.039 28.4431C136.934 28.4431 136.039 27.5477 136.039 26.4431C136.039 25.3385 136.934 24.4431 138.039 24.4431C139.144 24.4431 140.039 25.3385 140.039 26.4431ZM154.039 28.4431C155.144 28.4431 156.039 27.5477 156.039 26.4431C156.039 25.3385 155.144 24.4431 154.039 24.4431C152.934 24.4431 152.039 25.3385 152.039 26.4431C152.039 27.5477 152.934 28.4431 154.039 28.4431ZM172.039 26.4431C172.039 27.5477 171.144 28.4431 170.039 28.4431C168.934 28.4431 168.039 27.5477 168.039 26.4431C168.039 25.3385 168.934 24.4431 170.039 24.4431C171.144 24.4431 172.039 25.3385 172.039 26.4431ZM186.039 28.4431C187.144 28.4431 188.039 27.5477 188.039 26.4431C188.039 25.3385 187.144 24.4431 186.039 24.4431C184.934 24.4431 184.039 25.3385 184.039 26.4431C184.039 27.5477 184.934 28.4431 186.039 28.4431ZM34.039 -3.55688C35.1436 -3.55688 36.039 -4.45232 36.039 -5.55688C36.039 -6.66145 35.1436 -7.55688 34.039 -7.55688C32.9344 -7.55688 32.039 -6.66145 32.039 -5.55688C32.039 -4.45232 32.9344 -3.55688 34.039 -3.55688ZM52.039 -5.55688C52.039 -4.45232 51.1436 -3.55688 50.039 -3.55688C48.9344 -3.55688 48.039 -4.45232 48.039 -5.55688C48.039 -6.66145 48.9344 -7.55688 50.039 -7.55688C51.1436 -7.55688 52.039 -6.66145 52.039 -5.55688ZM66.039 -3.55688C67.1436 -3.55688 68.039 -4.45232 68.039 -5.55688C68.039 -6.66145 67.1436 -7.55688 66.039 -7.55688C64.9344 -7.55688 64.039 -6.66145 64.039 -5.55688C64.039 -4.45232 64.9344 -3.55688 66.039 -3.55688ZM84.039 -5.55688C84.039 -4.45232 83.1436 -3.55688 82.039 -3.55688C80.9344 -3.55688 80.039 -4.45232 80.039 -5.55688C80.039 -6.66145 80.9344 -7.55688 82.039 -7.55688C83.1436 -7.55688 84.039 -6.66145 84.039 -5.55688Z" fill="#0875DD"/>
<path fill-rule="evenodd" clip-rule="evenodd" d="M108.039 58.4431C108.039 59.5477 107.144 60.4431 106.039 60.4431C104.934 60.4431 104.039 59.5477 104.039 58.4431C104.039 57.3385 104.934 56.4431 106.039 56.4431C107.144 56.4431 108.039 57.3385 108.039 58.4431ZM106.039 76.4431C107.144 76.4431 108.039 75.5477 108.039 74.4431C108.039 73.3385 107.144 72.4431 106.039 72.4431C104.934 72.4431 104.039 73.3385 104.039 74.4431C104.039 75.5477 104.934 76.4431 106.039 76.4431ZM122.039 76.4431C123.144 76.4431 124.039 75.5477 124.039 74.4431C124.039 73.3385 123.144 72.4431 122.039 72.4431C120.934 72.4431 120.039 73.3385 120.039 74.4431C120.039 75.5477 120.934 76.4431 122.039 76.4431ZM140.039 74.4431C140.039 75.5477 139.144 76.4431 138.039 76.4431C136.934 76.4431 136.039 75.5477 136.039 74.4431C136.039 73.3385 136.934 72.4431 138.039 72.4431C139.144 72.4431 140.039 73.3385 140.039 74.4431ZM154.039 76.4431C155.144 76.4431 156.039 75.5477 156.039 74.4431C156.039 73.3385 155.144 72.4431 154.039 72.4431C152.934 72.4431 152.039 73.3385 152.039 74.4431C152.039 75.5477 152.934 76.4431 154.039 76.4431ZM172.039 74.4431C172.039 75.5477 171.144 76.4431 170.039 76.4431C168.934 76.4431 168.039 75.5477 168.039 74.4431C168.039 73.3385 168.934 72.4431 170.039 72.4431C171.144 72.4431 172.039 73.3385 172.039 74.4431ZM186.039 76.4431C187.144 76.4431 188.039 75.5477 188.039 74.4431C188.039 73.3385 187.144 72.4431 186.039 72.4431C184.934 72.4431 184.039 73.3385 184.039 74.4431C184.039 75.5477 184.934 76.4431 186.039 76.4431ZM122.039 60.4431C123.144 60.4431 124.039 59.5477 124.039 58.4431C124.039 57.3385 123.144 56.4431 122.039 56.4431C120.934 56.4431 120.039 57.3385 120.039 58.4431C120.039 59.5477 120.934 60.4431 122.039 60.4431ZM140.039 58.4431C140.039 59.5477 139.144 60.4431 138.039 60.4431C136.934 60.4431 136.039 59.5477 136.039 58.4431C136.039 57.3385 136.934 56.4431 138.039 56.4431C139.144 56.4431 140.039 57.3385 140.039 58.4431ZM154.039 60.4431C155.144 60.4431 156.039 59.5477 156.039 58.4431C156.039 57.3385 155.144 56.4431 154.039 56.4431C152.934 56.4431 152.039 57.3385 152.039 58.4431C152.039 59.5477 152.934 60.4431 154.039 60.4431ZM172.039 58.4431C172.039 59.5477 171.144 60.4431 170.039 60.4431C168.934 60.4431 168.039 59.5477 168.039 58.4431C168.039 57.3385 168.934 56.4431 170.039 56.4431C171.144 56.4431 172.039 57.3385 172.039 58.4431ZM186.039 60.4431C187.144 60.4431 188.039 59.5477 188.039 58.4431C188.039 57.3385 187.144 56.4431 186.039 56.4431C184.934 56.4431 184.039 57.3385 184.039 58.4431C184.039 59.5477 184.934 60.4431 186.039 60.4431ZM2.039 76.4431C3.14357 76.4431 4.039 75.5477 4.039 74.4431C4.039 73.3385 3.14357 72.4431 2.039 72.4431C0.934432 72.4431 0.0390015 73.3385 0.0390015 74.4431C0.0390015 75.5477 0.934432 76.4431 2.039 76.4431ZM18.039 76.4431C19.1436 76.4431 20.039 75.5477 20.039 74.4431C20.039 73.3385 19.1436 72.4431 18.039 72.4431C16.9344 72.4431 16.039 73.3385 16.039 74.4431C16.039 75.5477 16.9344 76.4431 18.039 76.4431ZM36.039 74.4431C36.039 75.5477 35.1436 76.4431 34.039 76.4431C32.9344 76.4431 32.039 75.5477 32.039 74.4431C32.039 73.3385 32.9344 72.4431 34.039 72.4431C35.1436 72.4431 36.039 73.3385 36.039 74.4431ZM50.039 76.4431C51.1436 76.4431 52.039 75.5477 52.039 74.4431C52.039 73.3385 51.1436 72.4431 50.039 72.4431C48.9344 72.4431 48.039 73.3385 48.039 74.4431C48.039 75.5477 48.9344 76.4431 50.039 76.4431ZM68.039 74.4431C68.039 75.5477 67.1436 76.4431 66.039 76.4431C64.9344 76.4431 64.039 75.5477 64.039 74.4431C64.039 73.3385 64.9344 72.4431 66.039 72.4431C67.1436 72.4431 68.039 73.3385 68.039 74.4431ZM82.039 76.4431C83.1436 76.4431 84.039 75.5477 84.039 74.4431C84.039 73.3385 83.1436 72.4431 82.039 72.4431C80.9344 72.4431 80.039 73.3385 80.039 74.4431C80.039 75.5477 80.9344 76.4431 82.039 76.4431ZM2.039 60.4431C3.14357 60.4431 4.039 59.5477 4.039 58.4431C4.039 57.3385 3.14357 56.4431 2.039 56.4431C0.934432 56.4431 0.0390015 57.3385 0.0390015 58.4431C0.0390015 59.5477 0.934432 60.4431 2.039 60.4431ZM12.039 90.4431C12.039 91.5477 11.1436 92.4431 10.039 92.4431C8.93443 92.4431 8.039 91.5477 8.039 90.4431C8.039 89.3385 8.93443 88.4431 10.039 88.4431C11.1436 88.4431 12.039 89.3385 12.039 90.4431ZM10.039 108.443C11.1436 108.443 12.039 107.548 12.039 106.443C12.039 105.339 11.1436 104.443 10.039 104.443C8.93443 104.443 8.039 105.339 8.039 106.443C8.039 107.548 8.93443 108.443 10.039 108.443ZM26.039 108.443C27.1436 108.443 28.039 107.548 28.039 106.443C28.039 105.339 27.1436 104.443 26.039 104.443C24.9344 104.443 24.039 105.339 24.039 106.443C24.039 107.548 24.9344 108.443 26.039 108.443ZM44.039 106.443C44.039 107.548 43.1436 108.443 42.039 108.443C40.9344 108.443 40.039 107.548 40.039 106.443C40.039 105.339 40.9344 104.443 42.039 104.443C43.1436 104.443 44.039 105.339 44.039 106.443ZM58.039 108.443C59.1436 108.443 60.039 107.548 60.039 106.443C60.039 105.339 59.1436 104.443 58.039 104.443C56.9344 104.443 56.039 105.339 56.039 106.443C56.039 107.548 56.9344 108.443 58.039 108.443ZM76.039 106.443C76.039 107.548 75.1436 108.443 74.039 108.443C72.9344 108.443 72.039 107.548 72.039 106.443C72.039 105.339 72.9344 104.443 74.039 104.443C75.1436 104.443 76.039 105.339 76.039 106.443ZM90.039 108.443C91.1436 108.443 92.039 107.548 92.039 106.443C92.039 105.339 91.1436 104.443 90.039 104.443C88.9344 104.443 88.039 105.339 88.039 106.443C88.039 107.548 88.9344 108.443 90.039 108.443ZM26.039 92.4431C27.1436 92.4431 28.039 91.5477 28.039 90.4431C28.039 89.3385 27.1436 88.4431 26.039 88.4431C24.9344 88.4431 24.039 89.3385 24.039 90.4431C24.039 91.5477 24.9344 92.4431 26.039 92.4431ZM44.039 90.4431C44.039 91.5477 43.1436 92.4431 42.039 92.4431C40.9344 92.4431 40.039 91.5477 40.039 90.4431C40.039 89.3385 40.9344 88.4431 42.039 88.4431C43.1436 88.4431 44.039 89.3385 44.039 90.4431ZM58.039 92.4431C59.1436 92.4431 60.039 91.5477 60.039 90.4431C60.039 89.3385 59.1436 88.4431 58.039 88.4431C56.9344 88.4431 56.039 89.3385 56.039 90.4431C56.039 91.5477 56.9344 92.4431 58.039 92.4431ZM76.039 90.4431C76.039 91.5477 75.1436 92.4431 74.039 92.4431C72.9344 92.4431 72.039 91.5477 72.039 90.4431C72.039 89.3385 72.9344 88.4431 74.039 88.4431C75.1436 88.4431 76.039 89.3385 76.039 90.4431ZM90.039 92.4431C91.1436 92.4431 92.039 91.5477 92.039 90.4431C92.039 89.3385 91.1436 88.4431 90.039 88.4431C88.9344 88.4431 88.039 89.3385 88.039 90.4431C88.039 91.5477 88.9344 92.4431 90.039 92.4431ZM18.039 60.4431C19.1436 60.4431 20.039 59.5477 20.039 58.4431C20.039 57.3385 19.1436 56.4431 18.039 56.4431C16.9344 56.4431 16.039 57.3385 16.039 58.4431C16.039 59.5477 16.9344 60.4431 18.039 60.4431ZM108.039 90.4431C108.039 91.5477 107.144 92.4431 106.039 92.4431C104.934 92.4431 104.039 91.5477 104.039 90.4431C104.039 89.3385 104.934 88.4431 106.039 88.4431C107.144 88.4431 108.039 89.3385 108.039 90.4431ZM106.039 108.443C107.144 108.443 108.039 107.548 108.039 106.443C108.039 105.339 107.144 104.443 106.039 104.443C104.934 104.443 104.039 105.339 104.039 106.443C104.039 107.548 104.934 108.443 106.039 108.443ZM122.039 108.443C123.144 108.443 124.039 107.548 124.039 106.443C124.039 105.339 123.144 104.443 122.039 104.443C120.934 104.443 120.039 105.339 120.039 106.443C120.039 107.548 120.934 108.443 122.039 108.443ZM140.039 106.443C140.039 107.548 139.144 108.443 138.039 108.443C136.934 108.443 136.039 107.548 136.039 106.443C136.039 105.339 136.934 104.443 138.039 104.443C139.144 104.443 140.039 105.339 140.039 106.443ZM154.039 108.443C155.144 108.443 156.039 107.548 156.039 106.443C156.039 105.339 155.144 104.443 154.039 104.443C152.934 104.443 152.039 105.339 152.039 106.443C152.039 107.548 152.934 108.443 154.039 108.443ZM172.039 106.443C172.039 107.548 171.144 108.443 170.039 108.443C168.934 108.443 168.039 107.548 168.039 106.443C168.039 105.339 168.934 104.443 170.039 104.443C171.144 104.443 172.039 105.339 172.039 106.443ZM186.039 108.443C187.144 108.443 188.039 107.548 188.039 106.443C188.039 105.339 187.144 104.443 186.039 104.443C184.934 104.443 184.039 105.339 184.039 106.443C184.039 107.548 184.934 108.443 186.039 108.443ZM122.039 92.4431C123.144 92.4431 124.039 91.5477 124.039 90.4431C124.039 89.3385 123.144 88.4431 122.039 88.4431C120.934 88.4431 120.039 89.3385 120.039 90.4431C120.039 91.5477 120.934 92.4431 122.039 92.4431ZM140.039 90.4431C140.039 91.5477 139.144 92.4431 138.039 92.4431C136.934 92.4431 136.039 91.5477 136.039 90.4431C136.039 89.3385 136.934 88.4431 138.039 88.4431C139.144 88.4431 140.039 89.3385 140.039 90.4431ZM154.039 92.4431C155.144 92.4431 156.039 91.5477 156.039 90.4431C156.039 89.3385 155.144 88.4431 154.039 88.4431C152.934 88.4431 152.039 89.3385 152.039 90.4431C152.039 91.5477 152.934 92.4431 154.039 92.4431ZM172.039 90.4431C172.039 91.5477 171.144 92.4431 170.039 92.4431C168.934 92.4431 168.039 91.5477 168.039 90.4431C168.039 89.3385 168.934 88.4431 170.039 88.4431C171.144 88.4431 172.039 89.3385 172.039 90.4431ZM186.039 92.4431C187.144 92.4431 188.039 91.5477 188.039 90.4431C188.039 89.3385 187.144 88.4431 186.039 88.4431C184.934 88.4431 184.039 89.3385 184.039 90.4431C184.039 91.5477 184.934 92.4431 186.039 92.4431ZM34.039 60.4431C35.1436 60.4431 36.039 59.5477 36.039 58.4431C36.039 57.3385 35.1436 56.4431 34.039 56.4431C32.9344 56.4431 32.039 57.3385 32.039 58.4431C32.039 59.5477 32.9344 60.4431 34.039 60.4431ZM52.039 58.4431C52.039 59.5477 51.1436 60.4431 50.039 60.4431C48.9344 60.4431 48.039 59.5477 48.039 58.4431C48.039 57.3385 48.9344 56.4431 50.039 56.4431C51.1436 56.4431 52.039 57.3385 52.039 58.4431ZM66.039 60.4431C67.1436 60.4431 68.039 59.5477 68.039 58.4431C68.039 57.3385 67.1436 56.4431 66.039 56.4431C64.9344 56.4431 64.039 57.3385 64.039 58.4431C64.039 59.5477 64.9344 60.4431 66.039 60.4431ZM84.039 58.4431C84.039 59.5477 83.1436 60.4431 82.039 60.4431C80.9344 60.4431 80.039 59.5477 80.039 58.4431C80.039 57.3385 80.9344 56.4431 82.039 56.4431C83.1436 56.4431 84.039 57.3385 84.039 58.4431Z" fill="#0875DD"/>
</svg>
