<svg width="189" height="52" viewBox="0 0 189 52" fill="none" xmlns="http://www.w3.org/2000/svg">
<path fill-rule="evenodd" clip-rule="evenodd" d="M108.513 2C108.513 3.10457 107.617 4 106.513 4C105.408 4 104.513 3.10457 104.513 2C104.513 0.89543 105.408 0 106.513 0C107.617 0 108.513 0.89543 108.513 2ZM106.513 20C107.617 20 108.513 19.1046 108.513 18C108.513 16.8954 107.617 16 106.513 16C105.408 16 104.513 16.8954 104.513 18C104.513 19.1046 105.408 20 106.513 20ZM122.513 20C123.617 20 124.513 19.1046 124.513 18C124.513 16.8954 123.617 16 122.513 16C121.408 16 120.513 16.8954 120.513 18C120.513 19.1046 121.408 20 122.513 20ZM140.513 18C140.513 19.1046 139.617 20 138.513 20C137.408 20 136.513 19.1046 136.513 18C136.513 16.8954 137.408 16 138.513 16C139.617 16 140.513 16.8954 140.513 18ZM154.513 20C155.617 20 156.513 19.1046 156.513 18C156.513 16.8954 155.617 16 154.513 16C153.408 16 152.513 16.8954 152.513 18C152.513 19.1046 153.408 20 154.513 20ZM172.513 18C172.513 19.1046 171.617 20 170.513 20C169.408 20 168.513 19.1046 168.513 18C168.513 16.8954 169.408 16 170.513 16C171.617 16 172.513 16.8954 172.513 18ZM186.513 20C187.617 20 188.513 19.1046 188.513 18C188.513 16.8954 187.617 16 186.513 16C185.408 16 184.513 16.8954 184.513 18C184.513 19.1046 185.408 20 186.513 20ZM122.513 4C123.617 4 124.513 3.10457 124.513 2C124.513 0.89543 123.617 0 122.513 0C121.408 0 120.513 0.89543 120.513 2C120.513 3.10457 121.408 4 122.513 4ZM140.513 2C140.513 3.10457 139.617 4 138.513 4C137.408 4 136.513 3.10457 136.513 2C136.513 0.89543 137.408 0 138.513 0C139.617 0 140.513 0.89543 140.513 2ZM154.513 4C155.617 4 156.513 3.10457 156.513 2C156.513 0.89543 155.617 0 154.513 0C153.408 0 152.513 0.89543 152.513 2C152.513 3.10457 153.408 4 154.513 4ZM172.513 2C172.513 3.10457 171.617 4 170.513 4C169.408 4 168.513 3.10457 168.513 2C168.513 0.89543 169.408 0 170.513 0C171.617 0 172.513 0.89543 172.513 2ZM186.513 4C187.617 4 188.513 3.10457 188.513 2C188.513 0.89543 187.617 0 186.513 0C185.408 0 184.513 0.89543 184.513 2C184.513 3.10457 185.408 4 186.513 4ZM2.5127 20C3.61726 20 4.5127 19.1046 4.5127 18C4.5127 16.8954 3.61726 16 2.5127 16C1.40813 16 0.512695 16.8954 0.512695 18C0.512695 19.1046 1.40813 20 2.5127 20ZM18.5127 20C19.6173 20 20.5127 19.1046 20.5127 18C20.5127 16.8954 19.6173 16 18.5127 16C17.4081 16 16.5127 16.8954 16.5127 18C16.5127 19.1046 17.4081 20 18.5127 20ZM36.5127 18C36.5127 19.1046 35.6173 20 34.5127 20C33.4081 20 32.5127 19.1046 32.5127 18C32.5127 16.8954 33.4081 16 34.5127 16C35.6173 16 36.5127 16.8954 36.5127 18ZM50.5127 20C51.6173 20 52.5127 19.1046 52.5127 18C52.5127 16.8954 51.6173 16 50.5127 16C49.4081 16 48.5127 16.8954 48.5127 18C48.5127 19.1046 49.4081 20 50.5127 20ZM68.5127 18C68.5127 19.1046 67.6173 20 66.5127 20C65.4081 20 64.5127 19.1046 64.5127 18C64.5127 16.8954 65.4081 16 66.5127 16C67.6173 16 68.5127 16.8954 68.5127 18ZM82.5127 20C83.6173 20 84.5127 19.1046 84.5127 18C84.5127 16.8954 83.6173 16 82.5127 16C81.4081 16 80.5127 16.8954 80.5127 18C80.5127 19.1046 81.4081 20 82.5127 20ZM2.5127 4C3.61726 4 4.5127 3.10457 4.5127 2C4.5127 0.89543 3.61726 0 2.5127 0C1.40813 0 0.512695 0.89543 0.512695 2C0.512695 3.10457 1.40813 4 2.5127 4ZM12.5127 34C12.5127 35.1046 11.6173 36 10.5127 36C9.40813 36 8.5127 35.1046 8.5127 34C8.5127 32.8954 9.40813 32 10.5127 32C11.6173 32 12.5127 32.8954 12.5127 34ZM10.5127 52C11.6173 52 12.5127 51.1046 12.5127 50C12.5127 48.8954 11.6173 48 10.5127 48C9.40813 48 8.5127 48.8954 8.5127 50C8.5127 51.1046 9.40813 52 10.5127 52ZM26.5127 52C27.6173 52 28.5127 51.1046 28.5127 50C28.5127 48.8954 27.6173 48 26.5127 48C25.4081 48 24.5127 48.8954 24.5127 50C24.5127 51.1046 25.4081 52 26.5127 52ZM44.5127 50C44.5127 51.1046 43.6173 52 42.5127 52C41.4081 52 40.5127 51.1046 40.5127 50C40.5127 48.8954 41.4081 48 42.5127 48C43.6173 48 44.5127 48.8954 44.5127 50ZM58.5127 52C59.6173 52 60.5127 51.1046 60.5127 50C60.5127 48.8954 59.6173 48 58.5127 48C57.4081 48 56.5127 48.8954 56.5127 50C56.5127 51.1046 57.4081 52 58.5127 52ZM76.5127 50C76.5127 51.1046 75.6173 52 74.5127 52C73.4081 52 72.5127 51.1046 72.5127 50C72.5127 48.8954 73.4081 48 74.5127 48C75.6173 48 76.5127 48.8954 76.5127 50ZM90.5127 52C91.6173 52 92.5127 51.1046 92.5127 50C92.5127 48.8954 91.6173 48 90.5127 48C89.4081 48 88.5127 48.8954 88.5127 50C88.5127 51.1046 89.4081 52 90.5127 52ZM26.5127 36C27.6173 36 28.5127 35.1046 28.5127 34C28.5127 32.8954 27.6173 32 26.5127 32C25.4081 32 24.5127 32.8954 24.5127 34C24.5127 35.1046 25.4081 36 26.5127 36ZM44.5127 34C44.5127 35.1046 43.6173 36 42.5127 36C41.4081 36 40.5127 35.1046 40.5127 34C40.5127 32.8954 41.4081 32 42.5127 32C43.6173 32 44.5127 32.8954 44.5127 34ZM58.5127 36C59.6173 36 60.5127 35.1046 60.5127 34C60.5127 32.8954 59.6173 32 58.5127 32C57.4081 32 56.5127 32.8954 56.5127 34C56.5127 35.1046 57.4081 36 58.5127 36ZM76.5127 34C76.5127 35.1046 75.6173 36 74.5127 36C73.4081 36 72.5127 35.1046 72.5127 34C72.5127 32.8954 73.4081 32 74.5127 32C75.6173 32 76.5127 32.8954 76.5127 34ZM90.5127 36C91.6173 36 92.5127 35.1046 92.5127 34C92.5127 32.8954 91.6173 32 90.5127 32C89.4081 32 88.5127 32.8954 88.5127 34C88.5127 35.1046 89.4081 36 90.5127 36ZM18.5127 4C19.6173 4 20.5127 3.10457 20.5127 2C20.5127 0.89543 19.6173 0 18.5127 0C17.4081 0 16.5127 0.89543 16.5127 2C16.5127 3.10457 17.4081 4 18.5127 4ZM108.513 34C108.513 35.1046 107.617 36 106.513 36C105.408 36 104.513 35.1046 104.513 34C104.513 32.8954 105.408 32 106.513 32C107.617 32 108.513 32.8954 108.513 34ZM106.513 52C107.617 52 108.513 51.1046 108.513 50C108.513 48.8954 107.617 48 106.513 48C105.408 48 104.513 48.8954 104.513 50C104.513 51.1046 105.408 52 106.513 52ZM122.513 52C123.617 52 124.513 51.1046 124.513 50C124.513 48.8954 123.617 48 122.513 48C121.408 48 120.513 48.8954 120.513 50C120.513 51.1046 121.408 52 122.513 52ZM140.513 50C140.513 51.1046 139.617 52 138.513 52C137.408 52 136.513 51.1046 136.513 50C136.513 48.8954 137.408 48 138.513 48C139.617 48 140.513 48.8954 140.513 50ZM154.513 52C155.617 52 156.513 51.1046 156.513 50C156.513 48.8954 155.617 48 154.513 48C153.408 48 152.513 48.8954 152.513 50C152.513 51.1046 153.408 52 154.513 52ZM172.513 50C172.513 51.1046 171.617 52 170.513 52C169.408 52 168.513 51.1046 168.513 50C168.513 48.8954 169.408 48 170.513 48C171.617 48 172.513 48.8954 172.513 50ZM186.513 52C187.617 52 188.513 51.1046 188.513 50C188.513 48.8954 187.617 48 186.513 48C185.408 48 184.513 48.8954 184.513 50C184.513 51.1046 185.408 52 186.513 52ZM122.513 36C123.617 36 124.513 35.1046 124.513 34C124.513 32.8954 123.617 32 122.513 32C121.408 32 120.513 32.8954 120.513 34C120.513 35.1046 121.408 36 122.513 36ZM140.513 34C140.513 35.1046 139.617 36 138.513 36C137.408 36 136.513 35.1046 136.513 34C136.513 32.8954 137.408 32 138.513 32C139.617 32 140.513 32.8954 140.513 34ZM154.513 36C155.617 36 156.513 35.1046 156.513 34C156.513 32.8954 155.617 32 154.513 32C153.408 32 152.513 32.8954 152.513 34C152.513 35.1046 153.408 36 154.513 36ZM172.513 34C172.513 35.1046 171.617 36 170.513 36C169.408 36 168.513 35.1046 168.513 34C168.513 32.8954 169.408 32 170.513 32C171.617 32 172.513 32.8954 172.513 34ZM186.513 36C187.617 36 188.513 35.1046 188.513 34C188.513 32.8954 187.617 32 186.513 32C185.408 32 184.513 32.8954 184.513 34C184.513 35.1046 185.408 36 186.513 36ZM34.5127 4C35.6173 4 36.5127 3.10457 36.5127 2C36.5127 0.89543 35.6173 0 34.5127 0C33.4081 0 32.5127 0.89543 32.5127 2C32.5127 3.10457 33.4081 4 34.5127 4ZM52.5127 2C52.5127 3.10457 51.6173 4 50.5127 4C49.4081 4 48.5127 3.10457 48.5127 2C48.5127 0.89543 49.4081 0 50.5127 0C51.6173 0 52.5127 0.89543 52.5127 2ZM66.5127 4C67.6173 4 68.5127 3.10457 68.5127 2C68.5127 0.89543 67.6173 0 66.5127 0C65.4081 0 64.5127 0.89543 64.5127 2C64.5127 3.10457 65.4081 4 66.5127 4ZM84.5127 2C84.5127 3.10457 83.6173 4 82.5127 4C81.4081 4 80.5127 3.10457 80.5127 2C80.5127 0.89543 81.4081 0 82.5127 0C83.6173 0 84.5127 0.89543 84.5127 2Z" fill="#0875DD"/>
</svg>
