<svg width="28" height="32" viewBox="0 0 28 32" fill="none" xmlns="http://www.w3.org/2000/svg">
<g clip-path="url(#clip0)">
<path d="M6.52276 8.06162H21.5022V1.87509H23.0126V7.24992H24.862V1.87509H26.4957V0H1.5296V1.87509H6.52276V8.06162Z" fill="white"/>
<path d="M8.37225 11.8452C8.37225 13.3619 8.96652 14.8165 10.0243 15.889C11.0821 16.9615 12.5168 17.564 14.0127 17.564C15.5087 17.564 16.9434 16.9615 18.0012 15.889C19.0589 14.8165 19.6532 13.3619 19.6532 11.8452V9.9375H8.37225V11.8452Z" fill="white"/>
<path d="M21.4 17.824L14.0127 27.9533L6.62539 17.824C4.87763 18.2815 3.32912 19.3143 2.22281 20.7604C1.11651 22.2065 0.51501 23.9841 0.512695 25.8142L0.512695 31.9989H27.5127V25.8142C27.5104 23.9841 26.9089 22.2065 25.8026 20.7604C24.6963 19.3143 23.1478 18.2815 21.4 17.824Z" fill="white"/>
<path d="M19.288 17.5654H18.9345C17.5719 18.7742 15.8229 19.4404 14.0123 19.4404C12.2018 19.4404 10.4528 18.7742 9.09019 17.5654H8.73663L14.012 24.7984L19.288 17.5654Z" fill="white"/>
</g>
<defs>
<clipPath id="clip0">
<rect width="27" height="32" fill="white" transform="translate(0.512695)"/>
</clipPath>
</defs>
</svg>
