<svg width="32" height="36" viewBox="0 0 32 36" fill="none" xmlns="http://www.w3.org/2000/svg">
<g clip-path="url(#clip0)">
<path d="M16.0125 11.8803C19.4525 11.8803 22.2412 9.22083 22.2412 5.94016C22.2412 2.6595 19.4525 0 16.0125 0C12.5724 0 9.78369 2.6595 9.78369 5.94016C9.78369 9.22083 12.5724 11.8803 16.0125 11.8803Z" fill="white"/>
<path d="M20.5155 12.7241C19.1748 13.5738 17.6109 14.026 16.0127 14.026C14.4146 14.026 12.8507 13.5738 11.5099 12.7241C10.0675 13.2627 8.7387 14.0556 7.58966 15.0634L16.0133 18.1494L24.437 15.0634C23.2876 14.0555 21.9584 13.2625 20.5155 12.7241Z" fill="white"/>
<path d="M28.9892 21.7729H28.2681C27.9814 21.773 27.7064 21.8844 27.5037 22.0825C27.3009 22.2806 27.187 22.5493 27.187 22.8294V25.6465C27.187 25.9267 27.301 26.1954 27.5038 26.3936C27.7066 26.5917 27.9816 26.703 28.2684 26.703H28.9895C29.6587 26.703 30.3005 26.4433 30.7737 25.981C31.2469 25.5187 31.5128 24.8917 31.5128 24.238C31.5128 23.5842 31.2469 22.9572 30.7737 22.4949C30.3005 22.0327 29.6587 21.7729 28.9895 21.7729H28.9892Z" fill="white"/>
<path d="M3.8618 16.4399C3.71806 16.5372 3.60063 16.6672 3.51957 16.8186C3.43852 16.97 3.39626 17.1383 3.39642 17.3092V19.6612H3.7568C4.61654 19.6621 5.44084 19.996 6.04899 20.5897C6.65714 21.1834 6.99953 21.9884 7.0011 22.8283V25.6454C7.00016 26.4857 6.65805 27.2913 6.04983 27.8855C5.44161 28.4797 4.61695 28.8139 3.7568 28.8148H3.39642V31.0408C3.39642 31.2559 3.46361 31.4658 3.58901 31.6426C3.71441 31.8194 3.89206 31.9546 4.0982 32.0301L14.9315 35.9998V20.0095L4.85752 16.3191C4.69391 16.2591 4.51786 16.2387 4.34444 16.2598C4.17102 16.2808 4.00541 16.3426 3.8618 16.4399Z" fill="white"/>
<path d="M25.024 25.647V22.8285C25.025 21.9882 25.3671 21.1825 25.9753 20.5883C26.5835 19.9942 27.4082 19.6599 28.2684 19.659H28.6287V17.3085C28.6287 17.1377 28.5864 16.9696 28.5053 16.8184C28.4243 16.6671 28.3069 16.5373 28.1633 16.4401C28.0197 16.3429 27.8541 16.2811 27.6807 16.26C27.5073 16.239 27.3313 16.2593 27.1676 16.3192L17.0939 20.0096V36L27.9272 32.0302C28.1334 31.9547 28.311 31.8195 28.4364 31.6428C28.5618 31.466 28.629 31.256 28.629 31.041V28.815H28.2686C27.4087 28.8141 26.5842 28.4802 25.9759 27.8863C25.3677 27.2924 25.0254 26.4871 25.024 25.647Z" fill="white"/>
<path d="M4.83813 25.6465V22.8294C4.83813 22.5493 4.72424 22.2806 4.52149 22.0825C4.31875 21.8844 4.04376 21.773 3.757 21.7729H3.03594C2.36673 21.7729 1.72494 22.0327 1.25174 22.4949C0.778536 22.9572 0.512695 23.5842 0.512695 24.238C0.512695 24.8917 0.778536 25.5187 1.25174 25.981C1.72494 26.4433 2.36673 26.703 3.03594 26.703H3.757C4.04376 26.7029 4.31875 26.5916 4.52149 26.3935C4.72424 26.1953 4.83813 25.9267 4.83813 25.6465Z" fill="white"/>
</g>
<defs>
<clipPath id="clip0">
<rect width="31" height="36" fill="white" transform="translate(0.512695)"/>
</clipPath>
</defs>
</svg>
