<svg width="17" height="16" viewBox="0 0 17 16" fill="none" xmlns="http://www.w3.org/2000/svg">
<g clip-path="url(#clip0)">
<path d="M15.8141 1.04136C15.0921 0.652594 14.2868 1.40236 13.8147 1.84667C12.7317 2.90191 11.8153 4.12375 10.7878 5.23452C9.64928 6.45637 8.59405 7.67822 7.42774 8.87234C6.76128 9.53881 6.03928 10.2608 5.59497 11.0939C4.59528 10.1219 3.73443 9.06668 2.62366 8.20588C1.81835 7.59496 0.485426 7.15065 0.513195 8.62242C0.568733 10.5385 2.26266 12.5935 3.51228 13.8986C4.03989 14.454 4.73412 15.0371 5.53943 15.0649C6.51136 15.1204 7.51105 13.9541 8.09421 13.3154C9.12171 12.2047 9.95479 10.955 10.8989 9.8165C12.1207 8.31696 13.3704 6.84514 14.5644 5.31783C15.3142 4.37368 17.6746 2.04101 15.8141 1.04136ZM1.735 8.51134C1.70723 8.51134 1.67946 8.51134 1.62392 8.53907C1.51284 8.51134 1.42954 8.48353 1.31846 8.42799C1.40177 8.37245 1.54061 8.40022 1.735 8.51134Z" fill="#0875DD"/>
</g>
<defs>
<clipPath id="clip0">
<rect width="16" height="16" fill="white" transform="translate(0.512695)"/>
</clipPath>
</defs>
</svg>
