<svg width="13" height="14" viewBox="0 0 13 14" fill="none" xmlns="http://www.w3.org/2000/svg">
<path d="M6.51269 13.7143C7.36102 13.7124 8.08489 12.9886 8.22698 12H4.79841C4.9405 12.9886 5.66436 13.7124 6.51269 13.7143Z" fill="#6483F6"/>
<path d="M12.4569 11.5135C12.4425 11.4929 11.0127 9.41538 11.0127 7.69231V4.61538C11.0127 2.06638 8.99796 0 6.5127 0C4.02743 0 2.01272 2.06638 2.01272 4.61538V7.69231C2.01272 9.41538 0.582925 11.4929 0.568525 11.5135C0.503241 11.6073 0.494537 11.7307 0.545973 11.8332C0.597408 11.9356 0.700359 12 0.812724 12H12.2127C12.325 12 12.428 11.9356 12.4794 11.8332C12.5309 11.7307 12.5221 11.6073 12.4569 11.5135Z" fill="#6483F6"/>
</svg>
