<svg width="30" height="29" viewBox="0 0 30 29" fill="none" xmlns="http://www.w3.org/2000/svg">
<g clip-path="url(#clip0)">
<path d="M13.3134 22.0898H16.7119V29.0002H13.3134V22.0898Z" fill="white"/>
<path d="M7.36753 29H11.6142V20.3907H18.4111V29H22.678V0H7.36753V29ZM19.2609 3.39845H20.9601V5.09768H19.2609V3.39845ZM19.2609 6.79691H20.9601V8.49613H19.2609V6.79691ZM19.2609 10.1954H20.9601V11.8946H19.2609V10.1954ZM19.2609 13.5938H20.9601V15.293H19.2609V13.5938ZM19.2609 16.9923H20.9601V18.6915H19.2609V16.9923ZM15.8624 3.39947H17.5626V5.09869H15.8634L15.8624 3.39947ZM15.8624 6.79792H17.5626V8.49715H15.8634L15.8624 6.79792ZM15.8624 10.1964H17.5626V11.8956H15.8634L15.8624 10.1964ZM15.8624 13.5948H17.5626V15.2941H15.8634L15.8624 13.5948ZM15.8624 16.9933H17.5626V18.6925H15.8634L15.8624 16.9933ZM12.4639 3.40048H14.1632V5.0997H12.4639V3.40048ZM12.4639 6.79893H14.1632V8.49816H12.4639V6.79893ZM12.4639 10.1974H14.1632V11.8966H12.4639V10.1974ZM12.4639 13.5958H14.1632V15.2951H12.4639V13.5958ZM12.4639 16.9943H14.1632V18.6935H12.4639V16.9943ZM9.06549 3.40149H10.7647V5.10072H9.06549V3.40149ZM9.06549 6.79994H10.7647V8.49917H9.06549V6.79994ZM9.06549 10.1984H10.7647V11.8976H9.06549V10.1984ZM9.06549 13.5969H10.7647V15.2961H9.06549V13.5969ZM9.06549 16.9953H10.7647V18.6945H9.06549V16.9953Z" fill="white"/>
<path d="M24.3378 6.79688H29.5127V29H24.3378V6.79688Z" fill="white"/>
<path d="M0.512695 6.79688H5.66682V29H0.512695V6.79688Z" fill="white"/>
</g>
<defs>
<clipPath id="clip0">
<rect width="29" height="29" fill="white" transform="translate(0.512695)"/>
</clipPath>
</defs>
</svg>
